<svg version="1.0" xmlns="http://www.w3.org/2000/svg" width="346.667" height="346.667" viewBox="0 0 260 260"><path d="M123.8 96.7c-10.1.4-12.1 1.3-6.8 3.2l3 1V119H97v-18.8l3-.7c6-1.3 2.7-2.5-7-2.5-5.5 0-10 .4-10 .8s1.4 1.3 3 1.9l3 1.1v20.4c0 21.1-.3 22.8-4.2 22.8-1 0-1.8.4-1.8 1s4 1 10 1c5.5 0 10-.4 10-.8s-1.3-1.3-3-1.9l-3-1.1V122h23v9.8c0 10.1-.7 12.2-4.2 12.2-1 0-1.8.4-1.8 1s4 1 10 1c9.7 0 13-1.2 7.1-2.5-1.8-.4-3.1-1.4-3.5-2.8-.8-2.9-.7-35.6 0-38.5.4-1.5 1.7-2.5 3.5-2.9 1.6-.3 2.9-1.2 2.9-1.9 0-.8-.1-1.3-.2-1.2-.2.1-4.7.4-10 .5zm36.5 0c-10.6.2-19.3.7-19.3 1.2 0 .4 1.5 1.2 3.3 1.7l3.2 1 .3 20.3c.3 21.6 0 23.1-4.4 23.1-1.3 0-2.4.4-2.4 1s4.2 1 10.5 1c10 0 13.4-1 8-2.4-3.7-.9-4.6-3.7-4.3-12.9l.3-8.2 3.6-.3c5.4-.5 8.6 1.2 10 5.2.7 2 1.7 3.6 2.1 3.6.4 0 .8-4.5.8-10 0-10.3-1-12.5-3-6.6-1.3 4-2.5 4.6-9.1 4.6h-5l.3-9.8.3-9.7h7.7c8.5.1 10.6 1.2 12.8 6.6 2.2 5.2 4 3.6 4-3.6 0-3.6-.1-6.4-.2-6.3-.2.2-9 .4-19.5.5z"/></svg>