<svg width="24" height="24" fill="none" xmlns="http://www.w3.org/2000/svg"><path d="M23.31 0a.667.667 0 00-.11.011h-.003l-3.674.655a.686.686 0 00-.516.44v.002l-1.705 4.567-16.64.433a.666.666 0 00-.496.246.733.733 0 00-.161.55l.919 7.935a.698.698 0 00.62.623l11.864.986 2.351 1.931.008.007.009.004.008.007c.429.334.535.79.475 1.043-.035.144-.088.25-.213.332-.125.082-.342.141-.712.119h-.004a.66.66 0 00-.037 0h-.007l-14.148.043h-.002c-.372-.003-.685.323-.684.711.002.389.316.713.688.707h.002l1.034-.002a1.454 1.454 0 00-.642 1.212c0 .79.62 1.438 1.377 1.438s1.377-.648 1.377-1.438c0-.511-.259-.963-.646-1.218l11.65-.035a1.455 1.455 0 00-.705 1.253c0 .79.62 1.438 1.377 1.438s1.376-.648 1.376-1.438c0-.687-.466-1.265-1.085-1.406.585-.216 1.034-.662 1.313-1.343a.17.17 0 00.01-.026c.213-.89-.165-1.86-.946-2.49l-.006-.006-.004-.007a.176.176 0 00-.023-.023l-1.665-1.365 5.195-13.9 3.297-.586h.002c.346-.058.6-.395.57-.761-.03-.366-.336-.654-.688-.649zM16.8 6.77l-.958 2.565h-1.249V6.828L16.8 6.77zm-2.684.071v2.494h-2.305V6.901l2.305-.06zm-2.782.071v2.423H9.028V6.973l2.306-.06zm-2.783.073v2.35H6.245v-2.29l2.306-.06zM5.77 7.06v2.276H3.463V7.12l2.306-.06zm-2.783.07v2.206h-1.69l-.25-2.153 1.94-.052zM1.353 9.832h1.633v2.253H1.613l-.26-2.253zm2.11 0h2.306v2.253H3.463V9.831zm2.782 0h2.306v2.253H6.245V9.831zm2.783 0h2.306v2.253H9.028V9.831zm2.783 0h2.305v2.253h-2.305V9.831zm2.782 0h1.065l-.842 2.253h-.223V9.831zm-12.922 2.75h1.315v1.616l-1.14-.095-.175-1.522zm1.792 0H5.77v1.847l-2.306-.192V12.58zm2.783 0h2.306v2.077l-2.306-.19V12.58zm2.782 0h2.306v2.31L9.028 14.7v-2.12zm2.783 0h2.306v1.37l-.438 1.171a.496.496 0 00-.181-.052l-1.687-.14v-2.35zm2.783 0h.035l-.035.1v-.1zM2.912 21.716c.45 0 .81.375.81.845s-.36.843-.81.843c-.45 0-.809-.373-.809-.843s.36-.845.81-.845zm13.052 0c.45 0 .81.375.81.845s-.36.843-.81.843c-.45 0-.809-.373-.809-.843s.36-.845.81-.845zm-13.052.401a.448.448 0 00-.44.46c0 .255.196.456.44.456.245 0 .44-.201.44-.457a.448.448 0 00-.44-.459zm13.052 0a.448.448 0 00-.44.46c0 .255.196.456.44.456.245 0 .44-.201.44-.457a.448.448 0 00-.44-.459z" fill="#fff"/></svg>