<svg width="347" height="490" fill="none" xmlns="http://www.w3.org/2000/svg"><path d="M35.268 90.45c.4-20.76 78.146-53.856 136.114-47.9 40.577 4.168 79.688 22.129 108.886 39.69 12.783 7.688-49.134 17.108-34.217 17.108.253 0-5.373 8.06-6.843 10.265-20.723 31.083-21.521 50.464-59.538 56.8-19.49 3.248-24.041-10.443-31.48-25.321-6.683-13.367-30.431-2.897-43.798-9.581-24.559-12.279-45.574-25.401-69.118-41.06h-.006z" fill="url(#paint0_radial)"/><g filter="url(#filter0_f)"><path d="M151.253 54.791c8.478-1.137 19.501 3.827 22.117 10.368l-.691 4.146c-.429 6.11-3.743 16.146-4.838 17.971h-3.456c-12.034-9.31-22.717-4.994-30.411-3.456l-.692-2.764c.744-6.84-2.764-12.356-2.764-19.353 0-1.653 1.104-12.441-1.383-12.441-1.677 0-.118 4.088 1.383 4.838 3.622 1.811 12.135-4.3 17.971-1.382 3.872 1.936 2.818 1.802 2.073 5.53l.691-3.457z" fill="#fff"/></g><path d="M135.186 114.403c5.231-8.565 17.386-17.18 31.48-8.212l-.685-3.422c16.571-69.297 56.51-107.63 118.39-98.548h3.422c5.187 7.371 7.929 15.524 6.843 22.583l.685 3.422c6.927 31.24-9.68 29.675-23.268 34.901l-2.737-2.737c-13.681-8.804-35.668-21.598-37.64-22.583l-2.737 2.737c-18.607 16.344-18.408 48.362-19.846 67.066l4.106.684c6.935.01 10.643 5.404 13.002 7.528l-.684 28.059c-29.37 25.424-71.321-2.963-90.333-31.48l.002.002z" fill="url(#paint1_radial)"/><g filter="url(#filter1_f)"><path d="M63.416 373.398c-25.846 25.698 21.983 34.868 54.198 54.198l9.678 7.742c19.678-6.314 95.805 43.56 112.268 27.098 17.306-17.306 29.745-30.535 48.391-44.519l9.678-7.742c63.429-103.952-191.089-65.526-234.212-36.777z" fill="#500"/><path d="M63.416 373.398c-25.846 25.698 21.983 34.868 54.198 54.198l9.678 7.742c19.678-6.314 95.805 43.56 112.268 27.098 17.306-17.306 29.745-30.535 48.391-44.519l9.678-7.742c63.429-103.952-191.089-65.526-234.212-36.777h0z" stroke="#000" stroke-width=".958"/></g><path d="M44.944 84.51c-13.308.294-25.242 6.35-33.622 22.366-18.455 47.22-8.7 94.427 1.377 141.643 3.634 19.477 10.05 46.394 24.611 71.856 6.685 16.713 18.778 41.353 30.12 52.694 14.135 14.135 29.212 12.561 44.311 14.731-25.126-25.167-21.662-55.135-43.622-87.964l-.689-3.413C41.96 240.776 13.538 99.691 97.4 102.297c-16.7-9.384-35.665-18.154-52.455-17.784v-.002z" fill="url(#paint2_radial)"/><path d="M180.35 139.035c25.975 10.003 40.587-27.101 56.504-47.372 9.175-11.686 30.729-13.373 49.57-3.953 28.866 14.432 42.208 77.068 34.902 113.599-1.202 6.01-13.382 38.703-17.793 43.114-9.03 9.03-9.985 58.096-13.002 71.172l-.684 4.106c-5.489 33.331-8.838 57.706-15.216 74.268-14.306 37.155-100.656 43.215-146.969 6.484-43.028-27.514-33.77-62.078-59.538-100.598l-.684-3.422c-26.9-58.768-57.09-212.837 45.166-192.296 26.273 5.276 46.724 24.388 67.75 34.902l-.006-.004z" fill="url(#paint3_radial)"/><path d="M293.001 79.96c-14.115 2.61-22.6.186-6.587 7.755 28.866 14.432 42.217 77.059 34.911 113.589-1.202 6.011-13.373 38.703-17.784 43.114-9.03 9.03-9.977 58.091-12.994 71.167l-.688 4.102c-3.965 24.077-6.829 43.461-10.509 58.623 15.336-6.331 30.374-15.599 33.772-20.3.678-.938 32.844-55.435 32.844-79.371 0-5.255 10.684-43.601 12.993-51.317 17.222-57.533-6.511-149.039-65.958-147.362z" fill="url(#paint4_radial)"/><g opacity=".686" filter="url(#filter2_f)"><path d="M286.697 6.408c-1.537 1.899-10.6 5.65-11.87 7.422-3.718 5.191-.578 9.844-2.281 13.973-8.503 20.617-2.099 33.961 9.055 30.67 5.819-1.718 12.333-8.63 14.068-17.654 1.049-5.455.352-11.682-3.302-17.999-2.546-4.4-.514-11.156-5.671-16.412h.001z" fill="#54FF00"/></g><g filter="url(#filter3_f)"><path d="M174.879 95.241c3.052-34.525 30.426-64.765 68.435-79.383l-1.369 6.843c-34.925 16.476-54.713 48.068-52.01 90.334l-4.106-5.475c-2.633-4.325-5.649-6.355-10.95-12.318z" fill="#0F0"/></g><path opacity=".487" d="M286.697 6.408c-1.537 1.899-10.6 5.65-11.87 7.422-3.718 5.191-.578 9.844-2.281 13.973-8.503 20.617-2.099 33.961 9.055 30.67 5.819-1.718 12.333-8.63 14.068-17.654 1.049-5.455.352-11.682-3.302-17.999-2.546-4.4-.514-11.156-5.671-16.412h.001z" fill="#000"/><g filter="url(#filter4_f)"><path d="M91.392 123.984c25.242 15.063 94.763 31.479 102.649 31.479l6.843-6.843c13.276-6.396 27.631-8.706 32.849-12.318l5.475 5.475c7.96 7.776 24.424 4.83 9.581 8.212l-1.369 9.581c-16.021 2.405-22.17 2.863-38.323 4.106l-30.112 2.737c-53.556 32.221-131.544-28.908-87.596-42.43l.003.001z" fill="#fff"/></g><g filter="url(#filter5_f)"><path d="M80.441 367.604c-4.159-35.101-41.573-108.042-45.166-131.391l31.48 28.743c38.136 28.481 34.744 83.282 57.484 125.92l-4.106-5.475c-6.351-3.713-12.955-7-19.162-10.95l-6.843 1.369c-7.908-.077-3.1 7.75-5.475 13.687l-1.369-5.474c1.608-7.608-4.38-10.512-6.843-16.425v-.004z" fill="maroon"/></g><g opacity=".858" filter="url(#filter6_f)"><path d="M57.667 143.473c4.237 7.73-1.254-10.247.981-14.717 8.76-17.519 47.904-17.319 38.263 1.962-2.714 5.428-34.668 34.99-39.244 30.414-2.943-2.943-2.943-9.572 0-17.659z" fill="#fff"/></g><g opacity=".858" filter="url(#filter7_f)"><path d="M20.27 113.567c3.19 5.821-.944-7.717.739-11.083 6.596-13.194 36.074-13.043 28.814 1.478-2.044 4.087-26.107 26.349-29.553 22.903-2.217-2.216-2.217-7.209 0-13.298z" fill="#fff"/></g><g opacity=".858" filter="url(#filter8_f)"><path d="M63.832 75.88c2.04 3.722-.604-4.933.472-7.085 4.218-8.434 23.063-8.338 18.422.945-1.307 2.613-16.691 16.846-18.894 14.643-1.417-1.417-1.417-4.61 0-8.502z" fill="#fff"/></g><path d="M316.614 215.602c-14.594 4.997-31.056 11.206-37.724 17.874-5.466 5.466-.013 16.449-6.827 23.263-11.782 11.783-67.579 38.954-82.125 43.803-3.297 1.098-6.474 5.655-9.581 4.101-20.801-10.401-26.859-25.046-50.659-36.945-23.526-11.763-52.6-12.832-76.646-26.018l8.054 39.311c.007.021.022.04.03.06 2.076 5.626 4.185 10.798 6.287 15.389l.689 3.413c25.768 38.521 16.523 73.084 59.55 100.598 46.322 36.73 132.665 30.658 146.979-6.497 6.377-16.562 9.721-40.919 15.21-74.251l.688-4.102c3.018-13.075 3.964-62.137 12.994-71.167 2.828-2.828 8.809-17.238 13.083-28.832h-.002z" fill="url(#paint5_radial)"/><path d="M316.614 215.602c-14.594 4.997-31.056 11.206-37.724 17.874-5.466 5.466-.013 16.449-6.827 23.263-11.782 11.783-67.579 38.954-82.125 43.803-3.297 1.098-6.474 5.655-9.581 4.101-20.801-10.401-26.859-25.046-50.659-36.945-23.526-11.763-52.6-12.832-76.646-26.018l8.054 39.311c.007.021.022.04.03.06 2.076 5.626 4.185 10.798 6.287 15.389l.689 3.413c25.768 38.521 16.523 73.084 59.55 100.598 46.322 36.73 132.665 30.658 146.979-6.497 6.377-16.562 9.721-40.919 15.21-74.251l.688-4.102c3.018-13.075 3.964-62.137 12.994-71.167 2.828-2.828 8.809-17.238 13.083-28.832h-.002z" fill="url(#paint6_radial)"/><g filter="url(#filter9_f)"><path d="M276.982 263.586c-5.725 22.899-10.232 39.822-4.106 64.328 2.301 9.205 12.132 26.47 9.581 32.849-27.62 69.049-79.479 67.957-139.602 46.535l-6.844-4.106c-49.637-16.244-15.055-104.383-15.055-128.661l156.033-10.95-.007.005z" fill="url(#paint7_radial)"/></g><path opacity=".268" d="M35.153 262.701c-6.387.184-11.869 4.254-16.048 13.443 4.015 14.07 9.716 29.409 18.204 44.252 6.685 16.713 18.778 41.354 30.12 52.694 14.134 14.135 29.212 12.561 44.311 14.731-25.127-25.167-21.662-55.135-43.622-87.963l-.69-3.414c-2.895-6.326-5.819-13.806-8.622-22.006-8.612-7.473-16.667-11.936-23.653-11.736v-.001z" fill="url(#paint8_radial)"/><path d="M316.614 215.602c-14.594 4.997-31.056 11.206-37.724 17.874-5.466 5.466-.013 16.449-6.827 23.263-11.782 11.783-67.579 38.954-82.125 43.803-3.297 1.098-6.474 5.655-9.581 4.101-20.801-10.401-26.859-25.046-50.659-36.945-23.526-11.763-52.6-12.832-76.646-26.018l8.054 39.311c.007.021.022.04.03.06 2.076 5.626 4.185 10.798 6.287 15.389l.689 3.413c25.768 38.521 16.523 73.084 59.55 100.598 46.322 36.73 132.665 30.658 146.979-6.497 6.377-16.562 9.721-40.919 15.21-74.251l.688-4.102c3.018-13.075 3.964-62.137 12.994-71.167 2.828-2.828 8.809-17.238 13.083-28.832h-.002z" fill="url(#paint9_radial)"/><g opacity=".831" filter="url(#filter10_f)"><path d="M280.536 366.509c-11.027-37.528 16.977-140.521 46.262-179.573l-1.368 6.844c-9.773 31.166-16.069 161.197-44.893 172.732l-.001-.003z" fill="#FF8080"/></g><g opacity=".456" filter="url(#filter11_f)"><path d="M81.744 162.403c25.242 15.063 94.763 31.479 102.649 31.479l12.651-16.521c13.276-6.396 27.63-8.706 32.848-12.318l5.475 5.475c7.96 7.777 24.424 4.831 9.581 8.212l-1.369 9.581c-16.021 2.405-22.17 2.863-38.323 4.106l-30.112 2.737c-53.556 32.221-137.35-19.229-93.402-32.751h.002z" fill="red"/></g><g opacity=".456" filter="url(#filter12_f)"><path d="M87.83 214.707c31.3 18.678 117.507 39.034 127.285 39.034l15.687-20.486c16.462-7.931 34.262-10.795 40.732-15.274l6.789 6.788c9.871 9.644 30.286 5.99 11.88 10.183l-1.697 11.881c-19.866 2.983-27.491 3.55-47.521 5.091l-37.338 3.394c-66.41 39.955-170.314-23.844-115.819-40.611h.003z" fill="maroon"/></g><g opacity=".816" filter="url(#filter13_f)"><path d="M36.322 127.574c-.599-5.891-1.936 28.656-1.936 44.519 0 11.766-3.871 24.746-3.871 32.905 0 42.323 12.565 86.151 40.647 58.068 7.746-7.745-9.678-23.56-9.678-27.098 0-24.797 4.487-116.138-25.163-108.397v.003z" fill="red"/><path d="M36.322 127.574c-.599-5.891-1.936 28.656-1.936 44.519 0 11.766-3.871 24.746-3.871 32.905 0 42.323 12.565 86.151 40.647 58.068 7.746-7.745-9.678-23.56-9.678-27.098 0-24.797 4.487-116.138-25.163-108.397v.003z" stroke="#000" stroke-width=".958"/></g><g filter="url(#filter14_f)"><path d="M274.404 107.793c6.107 17.816 24.881 21.82 31.454 38.363l6.775 17.051c4.031 10.145-4.517 31.257 0 42.625 1.322 3.328 5.807 9.397 5.807 14.615 0 6.419 6.816-9.873 8.71-15.832 2.54-7.991 13.375-42.895 12.098-49.325-2.584-13.007-1.795-12.002-8.711-20.704-3.551-4.469-1.512-22.874-5.806-25.576-4.855-3.054-11.561-5.051-16.937-7.307-4.039-1.694-7.839 4.425-11.13 3.045-6.626-2.78-19.139-5.061-22.26 3.045z" fill="maroon"/></g><g filter="url(#filter15_f)"><path d="M266.224 80.886c-9.68.047-24.228 3.867-29.4 9.506a52.286 52.286 0 00-3.563.898l2.575.3c-.047.06-.103.117-.15.18l2.036.06c21.917-8.865 35.028-.118 49.551 5.808-2.492-1.996-5.391-3.607-8.563-4.88l5.899 5.986c.692 1.535 4.483-2.583 5.508-.777 4.227-9.415 17.075 11.341 25.896 18.005-3.145-4.021-14.387-27.728-28.329-24.397-2.432-8.335 16.493-1.48 31.71 4.051-10.06-6.52-39.767-14.803-53.169-14.739h-.001zm23.893 17.081l6.35 20.963c-1.193 4.466-9.185-18.648-7.068-19.436 5.049-1.878 5.189 9.708 9.685 13.079l8.221 5.796c-2.56-4.199-14.792-16.183-17.188-20.402z" fill="#fff"/></g><defs><filter id="filter0_f" x="119.8" y="40.652" width="62.181" height="55.235" filterUnits="userSpaceOnUse" color-interpolation-filters="sRGB"><feFlood flood-opacity="0" result="BackgroundImageFix"/><feBlend in="SourceGraphic" in2="BackgroundImageFix" result="shape"/><feGaussianBlur stdDeviation="4.305" result="effect1_foregroundBlur"/></filter><filter id="filter1_f" x="27.219" y="313.207" width="309.32" height="181.396" filterUnits="userSpaceOnUse" color-interpolation-filters="sRGB"><feFlood flood-opacity="0" result="BackgroundImageFix"/><feBlend in="SourceGraphic" in2="BackgroundImageFix" result="shape"/><feGaussianBlur stdDeviation="14.168" result="effect1_foregroundBlur"/></filter><filter id="filter2_f" x="262.287" y=".065" width="40.17" height="65.249" filterUnits="userSpaceOnUse" color-interpolation-filters="sRGB"><feFlood flood-opacity="0" result="BackgroundImageFix"/><feBlend in="SourceGraphic" in2="BackgroundImageFix" result="shape"/><feGaussianBlur stdDeviation="3.172" result="effect1_foregroundBlur"/></filter><filter id="filter3_f" x="159.568" y=".546" width="99.058" height="127.799" filterUnits="userSpaceOnUse" color-interpolation-filters="sRGB"><feFlood flood-opacity="0" result="BackgroundImageFix"/><feBlend in="SourceGraphic" in2="BackgroundImageFix" result="shape"/><feGaussianBlur stdDeviation="7.656" result="effect1_foregroundBlur"/></filter><filter id="filter4_f" x="64.277" y="109.788" width="204.693" height="80.082" filterUnits="userSpaceOnUse" color-interpolation-filters="sRGB"><feFlood flood-opacity="0" result="BackgroundImageFix"/><feBlend in="SourceGraphic" in2="BackgroundImageFix" result="shape"/><feGaussianBlur stdDeviation="7.098" result="effect1_foregroundBlur"/></filter><filter id="filter5_f" x="15.509" y="216.447" width="128.496" height="194.195" filterUnits="userSpaceOnUse" color-interpolation-filters="sRGB"><feFlood flood-opacity="0" result="BackgroundImageFix"/><feBlend in="SourceGraphic" in2="BackgroundImageFix" result="shape"/><feGaussianBlur stdDeviation="9.883" result="effect1_foregroundBlur"/></filter><filter id="filter6_f" x="39.234" y="99.7" width="75.418" height="78.137" filterUnits="userSpaceOnUse" color-interpolation-filters="sRGB"><feFlood flood-opacity="0" result="BackgroundImageFix"/><feBlend in="SourceGraphic" in2="BackgroundImageFix" result="shape"/><feGaussianBlur stdDeviation="8.113" result="effect1_foregroundBlur"/></filter><filter id="filter7_f" x="8.593" y="82.807" width="52.386" height="54.434" filterUnits="userSpaceOnUse" color-interpolation-filters="sRGB"><feFlood flood-opacity="0" result="BackgroundImageFix"/><feBlend in="SourceGraphic" in2="BackgroundImageFix" result="shape"/><feGaussianBlur stdDeviation="5.007" result="effect1_foregroundBlur"/></filter><filter id="filter8_f" x="56.367" y="56.215" width="33.492" height="34.801" filterUnits="userSpaceOnUse" color-interpolation-filters="sRGB"><feFlood flood-opacity="0" result="BackgroundImageFix"/><feBlend in="SourceGraphic" in2="BackgroundImageFix" result="shape"/><feGaussianBlur stdDeviation="3.201" result="effect1_foregroundBlur"/></filter><filter id="filter9_f" x="101.757" y="256.103" width="188.596" height="171.582" filterUnits="userSpaceOnUse" color-interpolation-filters="sRGB"><feFlood flood-opacity="0" result="BackgroundImageFix"/><feBlend in="SourceGraphic" in2="BackgroundImageFix" result="shape"/><feGaussianBlur stdDeviation="3.739" result="effect1_foregroundBlur"/></filter><filter id="filter10_f" x="264.059" y="172.914" width="76.761" height="207.619" filterUnits="userSpaceOnUse" color-interpolation-filters="sRGB"><feFlood flood-opacity="0" result="BackgroundImageFix"/><feBlend in="SourceGraphic" in2="BackgroundImageFix" result="shape"/><feGaussianBlur stdDeviation="7.011" result="effect1_foregroundBlur"/></filter><filter id="filter11_f" x="55.237" y="148.207" width="209.892" height="71.577" filterUnits="userSpaceOnUse" color-interpolation-filters="sRGB"><feFlood flood-opacity="0" result="BackgroundImageFix"/><feBlend in="SourceGraphic" in2="BackgroundImageFix" result="shape"/><feGaussianBlur stdDeviation="7.098" result="effect1_foregroundBlur"/></filter><filter id="filter12_f" x="54.962" y="197.104" width="260.266" height="88.755" filterUnits="userSpaceOnUse" color-interpolation-filters="sRGB"><feFlood flood-opacity="0" result="BackgroundImageFix"/><feBlend in="SourceGraphic" in2="BackgroundImageFix" result="shape"/><feGaussianBlur stdDeviation="8.801" result="effect1_foregroundBlur"/></filter><filter id="filter13_f" x="14.456" y="110.846" width="74.75" height="177.155" filterUnits="userSpaceOnUse" color-interpolation-filters="sRGB"><feFlood flood-opacity="0" result="BackgroundImageFix"/><feBlend in="SourceGraphic" in2="BackgroundImageFix" result="shape"/><feGaussianBlur stdDeviation="7.79" result="effect1_foregroundBlur"/></filter><filter id="filter14_f" x="257.905" y="84.906" width="97.945" height="153.512" filterUnits="userSpaceOnUse" color-interpolation-filters="sRGB"><feFlood flood-opacity="0" result="BackgroundImageFix"/><feBlend in="SourceGraphic" in2="BackgroundImageFix" result="shape"/><feGaussianBlur stdDeviation="8.249" result="effect1_foregroundBlur"/></filter><filter id="filter15_f" x="230.098" y="77.724" width="92.459" height="44.941" filterUnits="userSpaceOnUse" color-interpolation-filters="sRGB"><feFlood flood-opacity="0" result="BackgroundImageFix"/><feBlend in="SourceGraphic" in2="BackgroundImageFix" result="shape"/><feGaussianBlur stdDeviation="1.581" result="effect1_foregroundBlur"/></filter><radialGradient id="paint0_radial" cx="0" cy="0" r="1" gradientUnits="userSpaceOnUse" gradientTransform="matrix(4.23787 58.3093 -150.9329 10.96968 158.646 104.366)"><stop stop-color="#A00"/><stop offset="1" stop-color="#FF2A2A"/></radialGradient><radialGradient id="paint1_radial" cx="0" cy="0" r="1" gradientUnits="userSpaceOnUse" gradientTransform="matrix(9.5804 -76.431 75.83814 9.5061 178.99 155.763)"><stop/><stop offset="1" stop-color="green"/></radialGradient><radialGradient id="paint2_radial" cx="0" cy="0" r="1" gradientUnits="userSpaceOnUse" gradientTransform="matrix(40.22603 223.09546 -149.24336 26.90986 .896 84.512)"><stop stop-color="#FF2A2A"/><stop offset="1" stop-color="#A00"/></radialGradient><radialGradient id="paint3_radial" cx="0" cy="0" r="1" gradientUnits="userSpaceOnUse" gradientTransform="scale(183.665 201.634) rotate(90 .294 .699)"><stop stop-color="#FF2A2A"/><stop offset="1" stop-color="#A00"/></radialGradient><radialGradient id="paint4_radial" cx="0" cy="0" r="1" gradientUnits="userSpaceOnUse" gradientTransform="matrix(13.98215 140.1573 -84.7362 8.45332 326.789 88.408)"><stop stop-color="red"/><stop offset="1" stop-color="#A00"/></radialGradient><radialGradient id="paint5_radial" cx="0" cy="0" r="1" gradientUnits="userSpaceOnUse" gradientTransform="matrix(89.95413 -30.48104 45.17755 133.32571 98.232 384.04)"><stop stop-color="#fff"/><stop offset=".442" stop-color="#FF2A2A" stop-opacity=".549"/><stop offset="1" stop-color="#FF2A2A" stop-opacity="0"/></radialGradient><radialGradient id="paint6_radial" cx="0" cy="0" r="1" gradientUnits="userSpaceOnUse" gradientTransform="rotate(11.089 -2051.944 1631.92) scale(94.9773 213.496)"><stop stop-color="#fff"/><stop offset=".442" stop-color="#FF2A2A" stop-opacity=".549"/><stop offset="1" stop-color="#FF2A2A" stop-opacity="0"/></radialGradient><radialGradient id="paint7_radial" cx="0" cy="0" r="1" gradientUnits="userSpaceOnUse" gradientTransform="matrix(0 -47.6081 78.3101 0 196.05 429.184)"><stop stop-color="maroon"/><stop offset="1" stop-color="maroon" stop-opacity="0"/></radialGradient><radialGradient id="paint8_radial" cx="0" cy="0" r="1" gradientUnits="userSpaceOnUse" gradientTransform="matrix(2.35706 124.83475 -192.27273 3.6304 36.677 266.356)"><stop stop-color="#fff"/><stop offset="1" stop-color="#fff" stop-opacity="0"/></radialGradient><radialGradient id="paint9_radial" cx="0" cy="0" r="1" gradientUnits="userSpaceOnUse" gradientTransform="matrix(36.1496 0 0 28.8409 53.055 278.663)"><stop stop-color="#fff"/><stop offset=".442" stop-color="#FF2A2A" stop-opacity=".549"/><stop offset="1" stop-color="#FF2A2A" stop-opacity="0"/></radialGradient></defs></svg>