<svg width="782" height="535" fill="none" xmlns="http://www.w3.org/2000/svg"><path fill-rule="evenodd" clip-rule="evenodd" d="M363.301 72.549c-18.192 6.822-43.676-29.982-17.697-53.879 30.885 2.627 40.789 45.218 17.697 53.879z" fill="url(#paint0_radial)" stroke="#333" stroke-opacity=".392" stroke-width=".69"/><path fill-rule="evenodd" clip-rule="evenodd" d="M348.488 69.038c12.315 14.216 53.825-6.352 43.645-39.012-28.343-11.727-59.277 20.967-43.645 39.012z" fill="url(#paint1_radial)" stroke="#333" stroke-opacity=".392" stroke-width=".69"/><path fill-rule="evenodd" clip-rule="evenodd" d="M354.625 71.787c-19.011-3.114-20.978-47.651 13.701-55.471 24.716 17.6 10.432 59.42-13.701 55.47z" fill="url(#paint2_radial)" stroke="#333" stroke-opacity=".392" stroke-width=".69"/><path fill-rule="evenodd" clip-rule="evenodd" d="M350.461 71.167c9.609 11.092 41.999-4.957 34.056-30.441-22.115-9.15-46.253 16.36-34.056 30.44z" fill="url(#paint3_radial)" stroke="#333" stroke-opacity=".392" stroke-width=".69"/><path fill-rule="evenodd" clip-rule="evenodd" d="M356.4 70.386c-14.194 5.323-34.079-23.394-13.809-42.041 24.099 2.05 31.828 35.282 13.809 42.04z" fill="url(#paint4_radial)" stroke="#333" stroke-opacity=".392" stroke-width=".69"/><path d="M347.344 63.645c-.43.02-.932.086-1.366.29-9.875 4.662.841 7.89-4.89 26.197-6.365 20.331-14.451 33.749-10.427 39.904-47.105 131.807-36.708 271.38-57.459 406.739 3.702.501 7.405.968 11.107 1.469 20.679-134.884 8.733-274.145 56.644-405.337 6.888-3.037 8.867-17.863 15.127-37.86 5.942-18.98 15.881-16.533 9.773-25.495-1.853-2.72-7.039-.566-9.856-1.405-2.752-.82-5.645-4.65-8.652-4.502h-.001z" fill="url(#paint5_linear)" stroke="#E9E4E3" stroke-opacity=".784" stroke-width=".035"/><path d="M439.144 162.589c-5.496-.87 6.69-5.433 1.194-6.303-24.192-40.024-102.809-25.599-117.709 33.222-27.319 107.349-22.822 221.051-41.734 329.824l16.489 2.609c18.913-108.786 4.291-232.844 34.328-331.953 31.82-74.545 92.769-51.087 107.428-27.4l.004.001z" fill="url(#paint6_linear)" stroke="#E9E4E3" stroke-opacity=".784" stroke-width=".283"/><path fill-rule="evenodd" clip-rule="evenodd" d="M161.869 344.571c.146-2.352 7.286.828 8.673.594 3.474-.584-6.298-9.317-7.121-10.072-2.494-2.286-4.379-5.009-6.761-7.382-2.109-2.097-4.998-4.369-5.851-7.32-.997-3.438 7.09.459 8.135 1.015 1.642-4.067-2.367-7.746-4.358-10.809-3.529-5.424-7.384-10.661-10.466-16.352-.253-.468-3.033-5.436-.584-4.734 2.238.641 4.225 2.529 6.045 3.851.809.588 2.668 2.389 2.63.307-.056-2.967-1.528-6.074-2.581-8.782-1.608-4.13-3.503-8.138-5.124-12.262-1.13-2.873-2.21-5.769-3.126-8.716-.461-1.485-2.249-5.553-1.065-7.078 1.159-1.49 6.431 4.167 7.741 4.577 3.269 1.022 1.252-5.629.895-6.775-2.378-7.641-5.837-14.953-8.183-22.611-.2-.657-2.058-6.356-.045-6.036 1.392.223 5.714 5.665 6.894 4.703 2.541-2.076.144-7.671-.665-9.952-1.714-4.827-3.308-9.51-4.545-14.506-.698-2.825-3.624-12.952 2.758-7.427 1.022.883 3.017 2.733 3.147.119.174-3.531-1-7.069-1.842-10.441-.677-2.704-.913-5.541-1.828-8.171-.609-1.752-1.754-4.092-1.215-6.006 1.076-3.814 7.631 2.169 6.504-4.994-.734-4.661-2.62-9.069-3.722-13.638-1.553-6.435-1.443-13.898.438-20.341 1.301 2.229 3.47 4.029 3.986 6.656.475 2.428 3.728 4.182 2.959 6.89 1.347 2.592 4.195 3.87 6.446 5.585 1.249.952 2.023 2.319 2.792 3.637.665 1.138 2.419.781 3.505 1.053-.534-1.598-2.024-4.946-1.069-6.582.708-1.209 10.295 5.785 11.404 6.63 3.438 2.615 6.573 7.114 11.089 8.014 4.289.856-2.169-8.079-2.893-9.321 12.399 3.107 18.243 16.377 30.642 19.484l-3.329-5.701c-.928-1.593-.836-3.595-2.001-5.079 5.023.755 9.212 5.37 12.472 8.747 4.219 4.366 8.924 8.093 13.505 12.084.683.595 6.048 5.078 6.347 2.793.567-4.335-5.133-7.074-3.141-11.589 4.823 3.066 8.188 7.695 11.665 12.047 3.501 4.386 7.966 7.972 11.774 12.098 3.197 3.463 5.231 1.915 4.145-2.683-.706-2.987-1.177-8.526 2.883-4.318 6.787 7.034 11.896 15.11 18.314 22.439 10.65 12.154 4.901-6.059 4.729-6.102 2.543.637 3.62 3.155 4.758 5.173 1.776 3.151 3.796 6.149 5.486 9.353 1.785 3.377 3.829 6.587 5.711 9.909 1.622 2.866 2.76 6.272 5.708 8.147 1.21-4.147-1.423-8.386-.251-12.219.667-2.179 3.663 3.869 4.201 4.77 1.279 2.145 1.766 4.633 2.537 6.975.826 2.507 2.098 4.839 2.937 7.347.862 2.571 1.978 11.068 5.907 11.135-.601-3.058-.576-6.325.312-9.367-.732 1.555.506 3.278 1.144 4.603 1.007 2.093.792 4.524.543 6.782-.582 5.331.419 10.42.271 15.724-.02.737.126 6.246 1.588 5.568 3.303-1.532 2.168-7.773 6.471-8.916 2.052 10.488-3.953 20.912-1.899 31.4 3.825-1.813 4.868-6.421 8.532-8.487 1.271 6.503-1.174 13.267-3.287 19.437-1.236 3.616-4.929 10.308-1.511 13.598.374-2.011 2.062-3.439 3.347-4.946.882-1.034.74-2.489 1.663-3.489.774-.837 1.693-1.656 1.907-2.818 1.442 1.312.47 3.502-.135 5.002-1.15 2.844-1.872 5.815-2.681 8.754-.861 3.121-1.92 6.184-3.472 9.069-1.408 2.622-.491 5.575-1.573 8.26 2.713-.71 2.946-4.445 4.311-6.335 1.154-1.595 3.749-2.909 2.083.171-4.188 7.745-9.067 15.316-11.533 23.766 2.661-.707 3.992-6.673 6.111-6.676 1.174-.002-2.044 4.786-2.078 4.875-1.573 4.129-3.165 7.309-5.971 10.877-5.568 7.073-11.419 14.517-18.738 19.998-6.413 4.801-13.813 7.642-21.613 9.371-8.226 1.821-18.685 4.097-27.039 2.945-2.978-.411-7.768.359-10.351-1.157-2.211-1.298 6.478-2.546 6.879-2.591 2.105-.237 5.844-1.076 1.829-1.959-3.65-.805-7.649-.351-11.381-.378-3.383-.026-6.721-.162-10.099.204-2.334.252-6.386 1.102-8.32-.58-.887-.772 3.969-1.655 4.516-1.711 2.963-.303 6.7 1.559 9.265-.707-5.663-1.419-11.515-2.015-17.248-3.142-6.105-1.199-12.036-3.016-18.055-4.524 2.835-2.118 12.726-.196 14.135-3.503.881-2.066-17.999-5.424-19.883-5.709-3.511-.529-8.601-.596-11.377-2.995-2.112-1.821 4.822-1.719 5.345-1.764 8.808-.757-.118-4.036-2.954-5.493-5.481-2.814-11.723-4.326-16.908-7.58-1.244-.781-3.365-1.848-3.96-3.262-.527-1.258 4.548-.487 5.038-.504 6.812-.229-1.177-5.057-3.05-6.315-3.176-2.134-5.964-4.797-9.391-6.581-1.549-.805-3.253-1.329-4.726-2.272-1.889-1.212-2.411-3.364-4.053-4.776z" fill="url(#paint7_radial)" stroke="#118C22" stroke-width="1.065"/><path opacity=".604" d="M320.332 394.818c-66.672-46.006-139.239-117.786-150.569-214.159m89.396 164.401c-25.756-53.417-5.46-106.398 4.16-118.592m-41.961 75.439c-16.165-57.204-10.798-84.501 5.1-104.728m47.679 160.361c-55.659-5.948-57.652-8.682-77.872 3.943m25.001-58.896c-39.05-8.175-45.75-11.308-63.42-1.952m148.885 81.299c-25.755-53.417-5.459-106.398 4.161-118.592m-77.944 90.389c-12.725 8.282-20.942 13.541-24.754 20.943m86.326-77.073c-6.446-13.043-10.656-21.388-9.887-29.546m-32.099-18.284c8.143-12.548 13.311-20.649 20.771-24.529m-87.939 17.623c-14.902-3.009-24.458-5.016-32.608-2.259" stroke="#FF0" stroke-opacity=".263" stroke-width="2.129"/><g filter="url(#filter0_f)"><path d="M263.383 365.508c7.438 14.739-1.973 19.74-15.529 18.95-5.724-1.42-8.259-11.86-6.83-16.706 1.429-4.846 14.811-12.862 22.359-2.244z" fill="#85C7E9"/></g><path d="M262.037 364.838c7.438 14.738-1.973 19.739-15.528 18.949-5.724-1.42-8.259-11.86-6.831-16.705 1.429-4.846 14.812-12.862 22.359-2.244h0z" fill="url(#paint8_radial)" stroke="url(#paint9_linear)" stroke-width=".298" stroke-linecap="square" stroke-linejoin="round"/><path d="M245.938 366.283c1.309.722 1.46 2.959.338 4.993-1.123 2.034-3.097 3.098-4.406 2.376-1.309-.722-2.011-4.423-.888-6.457 1.122-2.034 3.646-1.635 4.956-.912z" fill="url(#paint10_linear)"/><path d="M245.855 371.646c.884.474 1.006 1.91.272 3.206s-2.046 1.963-2.93 1.49c-.884-.473-1.388-2.852-.654-4.148.733-1.296 2.428-1.021 3.312-.548z" fill="url(#paint11_linear)"/><path fill-rule="evenodd" clip-rule="evenodd" d="M418.339 213.964c4.025.312-2.247 11.668-2.004 13.903.61 5.596 16.723-9.798 18.115-11.093 4.21-3.927 9.103-6.862 13.45-10.606 3.843-3.314 8.074-7.876 13.241-9.147 6.02-1.485-1.591 11.366-2.666 13.026 6.803 2.773 13.579-3.539 19.068-6.633 9.72-5.482 19.155-11.494 29.284-16.251.833-.39 9.684-4.687 8.2-.778-1.355 3.571-4.825 6.698-7.302 9.575-1.102 1.278-4.407 4.201-.824 4.211 5.105.01 10.609-2.249 15.382-3.849 7.28-2.441 14.38-5.348 21.651-7.813 5.064-1.717 10.163-3.352 15.33-4.724 2.604-.69 9.798-3.424 12.284-1.471 2.429 1.909-7.888 10.183-8.741 12.271-2.127 5.215 9.53 2.199 11.539 1.665 13.401-3.56 26.356-8.867 39.782-12.375 1.15-.3 11.155-3.091 10.376.131-.54 2.226-10.381 8.982-8.862 10.909 3.279 4.147 13.166.488 17.176-.734 8.489-2.588 16.717-4.991 25.442-6.808 4.932-1.026 22.666-5.383 12.449 4.678-1.632 1.61-5.038 4.75-.562 5.046 6.048.4 12.262-1.367 18.151-2.605 4.723-.996 9.625-1.279 14.248-2.659 3.08-.919 7.229-2.679 10.458-1.748 6.431 1.855-4.591 12.176 7.845 10.607 8.092-1.021 15.88-3.901 23.856-5.515 11.234-2.277 24.044-1.85 34.904 1.386-3.978 2.014-7.317 5.436-11.89 6.175-4.226.681-7.607 5.845-12.174 4.519-4.606 2.075-7.126 6.604-10.328 10.16-1.778 1.974-4.213 3.169-6.566 4.36-2.03 1.028-1.616 3.857-2.206 5.591 2.806-.804 8.729-3.084 11.431-1.495 1.998 1.177-11.107 16.333-12.683 18.083-4.884 5.431-12.97 10.313-15.028 17.533-1.957 6.856 14.128-3.211 16.345-4.331-6.744 19.8-30.209 28.734-36.952 48.534l10.173-5.151c2.843-1.437 6.274-1.222 8.955-3.043-1.867 8.04-10.271 14.607-16.443 19.729-7.98 6.625-14.918 14.053-22.294 21.272-1.1 1.077-9.411 9.539-5.519 10.095 7.384 1.057 12.738-8.003 20.269-4.652-5.814 7.638-14.15 12.885-22.021 18.32-7.933 5.472-14.601 12.521-22.122 18.494-6.313 5.016-3.884 8.333 4.14 6.744 5.212-1.033 14.784-1.602 7.093 4.773-12.855 10.659-27.311 18.589-40.631 28.646-22.092 16.688 9.855 8.071 9.949 7.797-1.383 4.06-5.831 5.704-9.429 7.464-5.615 2.744-10.996 5.886-16.692 8.492-6.004 2.752-11.752 5.925-17.674 8.834-5.108 2.509-11.09 4.219-14.646 8.889 6.988 2.082 14.571-2.002 21.026.009 3.668 1.143-7.064 5.75-8.674 6.583-3.831 1.981-8.161 2.679-12.272 3.838-4.402 1.242-8.553 3.205-12.958 4.467-4.516 1.299-19.242 2.804-19.802 9.108 5.323-.862 10.933-.712 16.06.816-2.589-1.227-5.691.702-8.04 1.683-3.709 1.546-7.863 1.118-11.715.643-9.094-1.114-17.953.322-27.05-.094-1.263-.057-10.747-.008-9.747 2.362 2.259 5.354 13.111 3.742 14.587 10.687-18.254 2.942-35.486-7.048-53.741-4.104 2.683 6.201 10.482 8.03 13.618 13.982-11.319 1.823-22.665-2.331-33.028-5.929-6.074-2.106-17.154-8.261-23.195-2.884 3.413.668 5.677 3.425 8.12 5.54 1.677 1.45 4.194 1.271 5.807 2.786 1.351 1.271 2.655 2.773 4.627 3.157-2.418 2.27-6.071.637-8.579-.386-4.758-1.942-9.78-3.2-14.739-4.598-5.266-1.487-10.409-3.289-15.191-5.879-4.346-2.348-9.525-.975-14.016-2.802.913 4.379 7.305 4.878 10.398 7.134 2.611 1.905 4.575 6.116-.53 3.338-12.834-6.984-25.29-15.07-39.532-19.314.914 4.295 11.015 6.633 10.78 10.035-.13 1.885-7.993-3.443-8.142-3.501-6.916-2.664-12.201-5.326-18.014-9.95-11.523-9.177-23.651-18.819-32.24-30.752-7.524-10.457-11.568-22.433-13.656-35.011-2.196-13.268-4.923-30.133-1.997-43.505 1.044-4.767.262-12.482 3.16-16.578 2.482-3.505 3.642 10.486 3.673 11.13.17 3.388 1.187 9.418 3.16 3.003 1.796-5.832 1.469-12.268 1.938-18.257.428-5.43 1.039-10.785.794-16.219-.17-3.756-1.171-10.289 1.939-13.338 1.427-1.398 2.394 6.427 2.429 7.308.185 4.766-3.438 10.702.165 14.896 3.08-9.043 4.767-18.417 7.352-27.582 2.752-9.76 6.546-19.221 9.82-28.831 3.318 4.622-1.106 20.434 4.417 22.808 3.451 1.483 11.36-28.712 12.063-31.726 1.306-5.618 1.998-13.788 6.434-18.164 3.369-3.328 2.408 7.8 2.427 8.641.303 14.165 6.948-.054 9.773-4.558 5.456-8.704 8.761-18.673 14.941-26.888 1.482-1.969 3.556-5.34 6.054-6.247 2.221-.804.32 7.318.295 8.105-.378 10.944 8.822-1.72 11.196-4.683 4.027-5.028 8.918-9.413 12.373-14.855 1.559-2.459 2.651-5.177 4.44-7.511 2.296-2.991 6.052-3.756 8.665-6.344z" fill="url(#paint12_radial)" stroke="#118C22" stroke-width="1.77"/><path opacity=".604" d="M314.661 468.115c86.956-106.422 218.6-221.856 384.329-238.317M405.909 370.352c96.483-42.034 186.125-7.117 206.104 9.19m-128.182-66.279c101.815-25.932 148.67-16.449 181.818 10.499m-284.667 66.099c16.838-88.181 21.621-91.294 3.228-123.593m96.999 43.874c18.28-61.626 24.255-72.169 11.108-100.286m-154.11 233.165c96.483-42.034 186.124-7.117 206.104 9.19M391.957 324.902c-12.629-20.893-20.631-34.382-32.898-40.734m126.924 143.496c23.322-10.262 38.255-16.97 52.22-15.565m34.846-48.467c20.697 13.656 34.07 22.326 39.823 34.694m-24.225-140.654c6.758-23.489 11.219-38.549 7.734-51.473" stroke="#FF0" stroke-opacity=".263" stroke-width="3.54"/><g filter="url(#filter1_f)"><path d="M548.274 322.531c9.545-19.522 26.853-29.993 58.689-28.018 17.291 7.45 16.329 29.713 6.783 49.235-9.545 19.522-31.325 29.32-48.617 21.87-17.291-7.45-26.401-23.565-16.855-43.087z" fill="#84C6E9"/></g><path d="M546.344 326.496c9.165-18.743 25.864-28.761 56.648-26.769 16.741 7.212 15.883 28.615 6.718 47.359-9.165 18.743-30.19 28.101-46.931 20.889-16.74-7.213-25.6-22.734-16.435-41.477v-.002z" fill="url(#paint13_radial)" stroke="url(#paint14_linear)" stroke-width="1.067" stroke-linecap="square" stroke-linejoin="round"/><path d="M569.113 352.928c2.018-4.127 8.486-5.395 14.437-2.832 5.95 2.564 9.142 7.993 7.124 12.12-2.018 4.126-12.692 7.556-18.643 4.993-5.951-2.564-4.935-10.155-2.917-14.281h-.001z" fill="url(#paint15_linear)"/><path d="M577.282 347.703c1.249-2.553 5.251-3.338 8.933-1.752 3.681 1.586 5.656 4.945 4.408 7.499-1.249 2.553-7.853 4.675-11.536 3.089-3.682-1.586-3.053-6.283-1.805-8.836z" fill="url(#paint16_linear)"/><g filter="url(#filter2_f)"><path d="M369.298 372.169c-26.157 11.729-33.498-3.546-30.407-25.402 3.163-9.209 21.339-13.108 29.441-10.713 8.102 2.394 20.09 24.132.966 36.115z" fill="#85C7E9"/></g><path d="M370.564 370.086c-26.155 11.729-33.497-3.546-30.406-25.401 3.163-9.209 21.339-13.108 29.441-10.714 8.101 2.394 20.089 24.133.966 36.114l-.001.001z" fill="url(#paint17_radial)" stroke="url(#paint18_linear)" stroke-width=".496" stroke-linecap="square" stroke-linejoin="round"/><path d="M369.806 344.481c-1.411 2.113-5.278 2.318-8.632.457s-4.929-5.087-3.518-7.2c1.411-2.113 7.867-3.184 11.221-1.323 3.353 1.861 2.34 5.953.929 8.066z" fill="url(#paint19_linear)"/><path d="M360.544 343.99c-.927 1.425-3.411 1.596-5.543.381-2.132-1.214-3.11-3.356-2.183-4.781.928-1.426 5.081-2.199 7.213-.985 2.132 1.215 1.44 3.959.513 5.384v.001z" fill="url(#paint20_linear)"/><path d="M203.772 170.699c5.572 0-5.668-6.404-.097-6.404 30.731-35.707 105.814-9.204 110.421 51.15 8.538 110.167-22.385 220.53-22.385 330.789h-16.715c0-110.273 42.69-229.272 30.058-331.732-18.604-78.506-82.755-64.881-101.28-43.802l-.002-.001z" fill="url(#paint21_linear)" stroke="#E9E4E3" stroke-opacity=".784" stroke-width=".283"/><path fill-rule="evenodd" clip-rule="evenodd" d="M79.206 475.488c-2.683-3.148 3.896-1.224 5.055-1.159 1.778.098 7.472-.968 8.032 1.588-5.627-16.336-33.252-9.844-38.973-26.46 1.217.821 13.79 2.808 13.826 2.227.103-1.71-5.825-5.243-7.088-6.425-5.048-4.724-11.2-7.737-16.484-12.069-3.777-3.098-6.493-8.703-11.778-9.623 2.786-2.135 9.278 3.225 12.722 1.782 4.699-1.969-13.66-15.187-15.265-16.395-1.725-1.299-18.463-14.822-14.608-16.843 3.552-1.862 10.029 4.318 13.125 1.941-9.529-11.147-20.309-21.284-29.3-32.859 4.647-3.563 9.294 5.698 13.94 2.135-7.152-8.367-14.406-16.583-20.976-25.388-7.014-9.396 1.711-3.782 6.47-3.629-3.963-7.927-10.774-14.119-15.127-21.825-3.552-6.287 2.467-2.904 5.836-5.343-4.936-4.963-8.401-11.019-12.74-16.427-5.223-6.505-6.696-12.358-7.788-20.343 2.993 7.588 12.39 12.458 19.412 15.999 1.626.82 15.06 6.796 14.925 5.996-.592-3.532-8.28-12.935.268-10.136 4.959 1.622 9.117 4.858 13.859 6.928 6.231 2.721 12.15 6.144 17.532 10.238-1.6-3.2-2.446-6.867-5.06-9.528-1.572-1.598-4.549-3.388-2.62-5.834 6.537 4.967 14.385 7.825 21.441 11.96 6.984 4.095 14.281 7.728 21.942 10.447-2.104-4.209-5.305-7.819-7.036-12.238-2.918-7.438 5.429-3.811 9.003-1.467 7.65 5.018 14.839 10.415 22.017 16.043 3.11 2.438 10.813 10.311 15.179 7.338-2.455-2.468-11.036-6.844-7.728-11.166 11.057 8.408 25.295 13.238 37.138 20.54 1.506.929 10.255 6.043 7.499.732-1.365-2.628-3.4-5.27-5.52-7.397 5.925-4.033 16.521 7.475 20.692 10.605 4.853 3.642 10.863 5.411 15.708 9.031 2.913 2.177 8.262 7.171 12.198 4.62-2.778-2.794-5.136-5.981-6.874-9.459 7.215 1.913 13.018 8.588 18.738 13.015 7.363 5.699 12.776 13.608 21.941 16.859-1.82-3.641-6.384-7.276-6.021-11.621.136-1.65 4.913 2.705 5.34 3.113 8.594 8.201 16.266 17.185 25.807 24.442-.827-1.654-3.136-5.042-2.058-6.897-.892 1.533 5.577 10.68 6.439 12.25 2.915 5.327 4.604 11.927 9.764 15.738 4.594 3.393 4.004-11.016 8.333-5.888 2.712 3.211 3.486 8.571 4.569 12.435 1.544 5.504 3.031 11.07 5.618 16.245 1.624-1.998 5.324-11.797 8.163-5.437 4.036 9.039 4.235 18.999 5.538 28.552 4.204-1.142 3.567-6.706 3.604-9.956 8.652.398 3.35 24.576 4.028 29.514 4.196-1.397 2.134-8.017 6.212-9.031-4.376 8.291-.681 18.132-3.795 26.739 3.138-.686 3.618-4.454 5.311-6.542 1.753 2.786-1.688 5.515-.113 8.138 1.646 2.745-2.502 6.612-3.654 8.793-4.71 8.912-8.246 18.551-16.807 24.789-9.761 7.112-22.342 8.963-34.233 10.618-5.647.789-11.173 2.587-16.96 2.398-4.542-.149-10.348-2.551-14.387.368l14.035-6.256c-4.981-2.87-11.131-.994-16.263.094-8.381 1.774-17.045 2.175-25.651 1.892 5.307-3.02 11.99-1.17 17.496-3.625-3.075-1.579-6.631-1.26-9.946-1.219-4.496.059-8.969-.627-13.411-1.307-7.293-1.119-14.875.199-21.968-2.316a16.815 16.815 0 017.417-1.437c2.902.095 5.034-2.026 7.471-3.113-8.049-2.855-16.695-1.268-24.953-2.811-4.332-.81-8.687-1.975-13.121-1.735-2.703.144-5.45-3.813-8.108-2.005 4.332-1.931 9.243-2.213 13.988-2.06-1.074-4.064-6.963-4.567-10.43-4.933-6.767-.719-13.421-2.294-20.052-3.827-1.411-.329-14.555-2.629-12.992-5.252.851-1.423 10.294-.42 12.226-1.281-13.488-4.78-26.482-10.796-39.969-15.58z" fill="url(#paint22_radial)"/><path d="M79.206 475.488c-2.683-3.148 3.896-1.224 5.055-1.159 1.778.098 7.472-.968 8.032 1.588-5.627-16.336-33.252-9.844-38.973-26.46 1.217.821 13.79 2.808 13.826 2.227.103-1.71-5.825-5.243-7.088-6.425-5.048-4.724-11.2-7.737-16.484-12.069-3.777-3.098-6.493-8.703-11.778-9.623 2.786-2.135 9.278 3.225 12.722 1.782 4.699-1.969-13.66-15.187-15.265-16.395-1.725-1.299-18.463-14.822-14.608-16.843 3.552-1.862 10.029 4.318 13.125 1.941-9.529-11.147-20.309-21.284-29.3-32.859 4.647-3.563 9.294 5.698 13.94 2.135-7.152-8.367-14.406-16.583-20.976-25.388-7.014-9.396 1.711-3.782 6.47-3.629-3.963-7.927-10.774-14.119-15.127-21.825-3.552-6.287 2.467-2.904 5.836-5.343-4.936-4.963-8.401-11.019-12.74-16.427-5.223-6.505-6.696-12.358-7.788-20.343 2.993 7.588 12.39 12.458 19.412 15.999 1.626.82 15.06 6.796 14.925 5.996-.592-3.532-8.28-12.935.268-10.136 4.959 1.622 9.117 4.858 13.859 6.928 6.231 2.721 12.15 6.144 17.532 10.238-1.6-3.2-2.446-6.867-5.06-9.528-1.572-1.598-4.549-3.388-2.62-5.834 6.537 4.967 14.385 7.825 21.441 11.96 6.984 4.095 14.281 7.728 21.942 10.447-2.104-4.209-5.305-7.819-7.036-12.238-2.918-7.438 5.429-3.811 9.003-1.467 7.65 5.018 14.839 10.415 22.017 16.043 3.11 2.438 10.813 10.311 15.179 7.338-2.455-2.468-11.036-6.844-7.728-11.166 11.057 8.407 25.295 13.238 37.138 20.54 1.506.929 10.255 6.043 7.499.732-1.365-2.628-3.4-5.27-5.52-7.397 5.925-4.033 16.521 7.475 20.692 10.605 4.853 3.642 10.863 5.411 15.708 9.031 2.913 2.177 8.262 7.171 12.198 4.62-2.778-2.794-5.136-5.981-6.874-9.459 7.215 1.913 13.018 8.588 18.738 13.015 7.363 5.699 12.776 13.608 21.941 16.859-1.82-3.641-6.384-7.276-6.021-11.621.136-1.65 4.913 2.705 5.34 3.113 8.594 8.201 16.266 17.185 25.807 24.442-.827-1.654-3.136-5.042-2.058-6.897-.892 1.533 5.577 10.68 6.439 12.25 2.915 5.327 4.604 11.927 9.764 15.738 4.594 3.393 4.004-11.016 8.333-5.888 2.712 3.211 3.486 8.571 4.569 12.435 1.544 5.504 3.031 11.07 5.618 16.245 1.624-1.998 5.324-11.797 8.163-5.437 4.036 9.039 4.235 18.999 5.538 28.552 4.204-1.142 3.567-6.706 3.604-9.956 8.652.398 3.35 24.576 4.028 29.514 4.196-1.397 2.134-8.017 6.212-9.031-4.376 8.291-.681 18.132-3.795 26.739 3.138-.686 3.618-4.454 5.311-6.542 1.753 2.786-1.688 5.515-.113 8.138 1.646 2.745-2.502 6.612-3.654 8.793-4.71 8.912-8.246 18.551-16.808 24.789-9.76 7.112-22.341 8.963-34.232 10.618-5.647.789-11.173 2.587-16.96 2.398-4.542-.149-10.348-2.551-14.387.368l14.035-6.256c-4.981-2.87-11.131-.994-16.263.094-8.381 1.774-17.045 2.175-25.651 1.892 5.307-3.02 11.99-1.17 17.496-3.625-3.075-1.579-6.631-1.26-9.946-1.219-4.496.059-8.969-.627-13.411-1.307-7.293-1.119-14.875.199-21.968-2.316a16.815 16.815 0 017.417-1.437c2.902.095 5.034-2.026 7.471-3.113-8.049-2.855-16.695-1.268-24.953-2.811-4.332-.81-8.687-1.975-13.121-1.735-2.703.144-5.45-3.813-8.108-2.005 4.332-1.931 9.243-2.213 13.988-2.06-1.074-4.064-6.963-4.567-10.43-4.933-6.767-.719-13.421-2.294-20.052-3.827-1.411-.329-14.555-2.629-12.992-5.252.851-1.423 10.294-.42 12.226-1.281-13.488-4.78-26.482-10.796-39.969-15.58" stroke="#118C22" stroke-width="1.77"/><path opacity=".604" d="M284.843 513.331C232.832 436.835 96.981 360.425 8.293 322.672m225.248 131.233c-63.68-33.894-128.738-15.812-143.918-6.068m84.87-32.677c-68.667-23.419-101.974-19.844-127.15-3.751m201.762 57.081c-4.683-60.161-7.765-62.533 7.627-83.111m-80.314 27.84c-7.82-42.444-11.141-49.875.25-67.96m98.118 161.518c-63.68-33.894-128.739-15.812-143.918-6.068m115.742-76.485c10.46-13.253 17.108-21.817 26.15-25.349m-99.35 88.741c-15.397-8.25-25.245-13.624-35.071-13.506m-20.263-34.648c-15.48 7.926-25.469 12.943-30.458 20.889m18.429-88.786c-2.837-16.168-4.746-26.542-1.294-35.008" stroke="#FF0" stroke-opacity=".263" stroke-width="2.429"/><path fill-rule="evenodd" clip-rule="evenodd" d="M197.795 204.61c-.884.972-3.923 2.06-7 2.225-.583.032-1.131.119-1.696.178-2.553.266-7.345-1.379-9.3-2.123-5.846-2.225-9.905-7.055-14.432-10.017-2.774-1.814-6.78-2.945-10.246-4.264-3.053-1.162-6.377-.904-9.078-.759-6.887.37 1.463-1.332 3.2-1.935 4.852-1.685 11.268-2.409 16.42-3.85 3.024-.845 5.71-.562 9.233-.324.693.047 1.382.069 2.073.104 4.265.213 7.567 1.801 10.338 3.614 3.212 2.101 5.213 3.969 5.758 6.441 15.211 1.104 33.391 13.627 4.729 10.71h.001z" fill="url(#paint23_radial)" stroke="url(#paint24_linear)" stroke-width=".346"/><path fill-rule="evenodd" clip-rule="evenodd" d="M248.962 206.152c73.832 16.606 67.515 113.961 24.205 167.937-8.67 33.89-31.011 63.428-60.064 67.209-31.268 4.069-64.44-3.933-80.199-41.343-15.393-55.098-67.97-133.9-5.719-179.252 34.191-27.207 82.426-16.963 121.773-14.543l.004-.008z" fill="url(#paint25_radial)" stroke="#A00" stroke-width=".851"/><g opacity=".84" filter="url(#filter3_f)"><path d="M207.241 423.079c1.454-2.217 1.637-6.686.409-9.975-1.228-3.289-3.406-4.159-4.86-1.941-1.454 2.217-1.638 6.686-.409 9.975 1.228 3.289 3.405 4.158 4.86 1.941z" fill="url(#paint26_radial)"/><path d="M207.241 423.079c1.454-2.217 1.637-6.686.409-9.975-1.228-3.289-3.406-4.159-4.86-1.941-1.454 2.217-1.638 6.686-.409 9.975 1.228 3.289 3.405 4.158 4.86 1.941z" stroke="url(#paint27_linear)" stroke-width="2.489" stroke-linecap="round" stroke-linejoin="round"/></g><g filter="url(#filter4_f)" clip-rule="evenodd"><path fill-rule="evenodd" d="M161.527 326.393c-12.142-7.541-11.159-11.7 3.624-12.302-10.53-5.096-39.337-13.446-12.087-11.818-3.15-9.495-16.529-24.071 2.402-22.599-3.161-7.786-8.207-17.73 3.788-8.155 1.533-10.995 3.404-41.595 4.285-14.928 4.916 16.255-7.789 51.469 21.539 41.606-14.846 15.867-2.106 28.47 9.54 29.121-15.773 6.248-27.067 13.788-13.148 28.594 11.674 14.665-9.344 29.251-13.875 43.877-3.072-12.644-31.213-32.97-7.217-37.32-18.58-8.649-12.272-16.668 2.758-24.466-11.424-3.226-24.977-6.416-5.71-10.16l4.101-1.451v.001z" fill="url(#paint28_radial)"/><path d="M161.527 326.393c-12.142-7.541-11.159-11.7 3.624-12.302-10.53-5.096-39.337-13.446-12.087-11.818-3.15-9.495-16.529-24.071 2.402-22.599-3.161-7.786-8.207-17.73 3.788-8.155 1.533-10.995 3.404-41.595 4.285-14.928 4.916 16.255-7.789 51.469 21.539 41.606-14.846 15.867-2.106 28.47 9.54 29.121-15.773 6.248-27.067 13.788-13.148 28.594 11.674 14.665-9.344 29.251-13.875 43.877-3.072-12.644-31.213-32.97-7.217-37.32-18.58-8.649-12.272-16.668 2.758-24.466-11.424-3.226-24.977-6.416-5.71-10.16l4.101-1.451v.001z" stroke="url(#paint29_radial)" stroke-width=".649"/></g><path fill-rule="evenodd" clip-rule="evenodd" d="M206.398 199.622c.352 1.219 2.604 3.365 5.319 4.689.514.251.971.539 1.456.808 2.192 1.216 7.301 1.551 9.419 1.622 6.333.212 12.253-2.62 17.731-3.579 3.357-.587 7.514-.085 11.27.041 3.308.111 6.204 1.613 8.586 2.775 6.077 2.963-.71-1.766-2.006-2.976-3.621-3.379-9.105-6.483-13.111-9.755-2.352-1.921-4.92-2.689-8.225-3.817-.651-.222-1.286-.464-1.929-.697-3.967-1.433-7.698-1.252-11.053-.665-3.886.68-6.566 1.611-8.206 3.645-14.31-4.801-36.601-.378-9.251 7.91v-.001z" fill="url(#paint30_radial)" stroke="url(#paint31_linear)" stroke-width=".346"/><path fill-rule="evenodd" clip-rule="evenodd" d="M205.763 202.796c1.307-.245 4.337.71 6.797 2.424.466.324.941.584 1.411.876 2.126 1.318 4.721 5.506 5.733 7.272 3.024 5.281 2.992 11.569 4.53 16.647.943 3.112 3.271 6.417 5.065 9.549 1.58 2.758 4.289 4.547 6.448 6.051 5.506 3.836-1.983.184-3.704-.377-4.804-1.566-10.178-4.837-15.053-6.778-2.862-1.14-4.732-2.977-7.27-5.28-.5-.453-1.012-.884-1.518-1.326-3.123-2.729-4.616-5.977-5.558-9.086-1.091-3.602-1.408-6.293-.22-8.592-10.913-10.005-16.68-30.9 3.339-11.38h0z" fill="url(#paint32_radial)" stroke="url(#paint33_linear)" stroke-width=".346"/><path fill-rule="evenodd" clip-rule="evenodd" d="M218.249 195.853c1.649-.686 6.108-.396 10.123.997.76.264 1.506.444 2.258.667 3.4 1.004 8.634 5.411 10.729 7.294 6.268 5.631 8.861 13.403 13.052 19.22 2.568 3.564 7.073 6.961 10.789 10.3 3.274 2.941 7.653 4.353 11.176 5.576 8.986 3.119-2.579.81-5.119.623-7.093-.523-15.665-2.983-23.01-3.948-4.312-.567-7.588-2.286-11.955-4.384-.859-.412-1.726-.794-2.589-1.191-5.328-2.451-8.69-6.022-11.256-9.584-2.973-4.126-4.526-7.354-3.898-10.542-18.816-9.146-35.306-33.246-.3-15.028h0z" fill="url(#paint34_radial)" stroke="url(#paint35_linear)" stroke-width=".461"/><path fill-rule="evenodd" clip-rule="evenodd" d="M205.685 159.594c-2.009 1.707-4.967 6.756-6.238 10.437-1.128 3.271-2.861 6.472-3.92 9.541-1.154 3.344-3.139 6.434-3.503 9.786-.326 3.007-5.139 7.098-.804 7.422 3.012.225 5.5.652 8.276 1.473 2.886.853 6.467-.266 8.089-.893 3.837-1.483-1.311-7.747-1.622-11.665-.3-3.785-.242-6.703 1.985-10.113 1.741-2.667 3.35-6.334 3.654-9.133.346-3.197-.267-5.231-3.031-6.853-.812-.476-1.924-.001-2.886-.002h0z" fill="url(#paint36_linear)" stroke="url(#paint37_radial)" stroke-width=".649"/><path fill-rule="evenodd" clip-rule="evenodd" d="M197.976 207.198c-.403 1.658-3.299 4.961-6.859 7.312-.674.445-1.269.924-1.904 1.386-2.866 2.087-9.685 3.724-12.515 4.314-8.462 1.765-16.539-.502-23.922-.452-4.523.03-10.058 1.658-15.076 2.704-4.421.922-8.213 3.544-11.336 5.607-7.968 5.259.853-2.449 2.521-4.319 4.659-5.219 11.827-10.521 17.007-15.692 3.041-3.036 6.435-4.633 10.795-6.868.859-.44 5.237 1.824 2.542-1.355-3.685-4.347 10.233-3.43 14.753-3.461 5.238-.035 8.876.537 11.182 2.78 18.883-9.573 48.952-9.103 12.813 8.045l-.001-.001z" fill="url(#paint38_radial)" stroke="url(#paint39_linear)" stroke-width=".461"/><g opacity=".706" filter="url(#filter5_f)" clip-rule="evenodd"><path fill-rule="evenodd" d="M255.161 215.474c13.014 6.018 25.239 15.357 30.555 28.649 7.133 4.084 8.315 13.517 10.721 19.713 2.57 7.684-7.093 18.499-3.673 25.826-7.628-10.914-11.078-21.541-18.209-32.722-3.519-10.845-5.102-25.069-12.805-33.124-2.439-2.59-4.741-5.321-6.589-8.342z" fill="#fff"/><path d="M255.161 215.474c13.014 6.018 25.239 15.357 30.555 28.649 7.133 4.084 8.315 13.517 10.721 19.713 2.57 7.684-7.093 18.499-3.673 25.826-7.628-10.914-11.078-21.541-18.209-32.722-3.519-10.845-5.102-25.069-12.805-33.124-2.439-2.59-4.741-5.321-6.589-8.342h0z" stroke="#D40000" stroke-width=".433"/></g><path fill-rule="evenodd" clip-rule="evenodd" d="M513.965 75.684c9.878 10.36 17.256 20.381 8.14 28.153 19.23-9.722 28.011-4.49 36.631.971 6.346 17.912 5.153 26.404-10.175 33.977 16.462.775 29.661 10.889 40.702 27.182-21.896 16.178-33.6 19.459-44.772 12.62 13.25 10.997 7.093 26.623-1.018 42.715-15.874-3.618-29.573-.273-42.736-19.416-7.949 20.835-18.966 24.11-29.509 30.095-12.125-16.828-23.428-25.888-19.333-42.715-15.041 7.566-27.273 4.411-39.684 1.942 4.908-21.129 1.558-31.263 17.298-36.89-9.577-6.664-19.49-11.395-26.456-33.007 16.959-10.77 29.848-7.491 46.807-2.913-13.952-12.33-11.075-22.313-6.105-39.802 25.583-.138 29.464 10.72 39.683 25.241 3.434-13.672 3.616-29.413 30.527-28.153v0z" fill="url(#paint40_radial)" stroke="#000" stroke-width=".738"/><path d="M538.139 154.121c0 10.935-4.304 21.422-11.967 29.154-7.662 7.732-18.055 12.076-28.891 12.076-10.837 0-21.229-4.344-28.892-12.076-7.662-7.732-11.967-18.219-11.967-29.154 0-10.935 4.305-21.422 11.967-29.154 7.663-7.732 18.055-12.076 28.892-12.076 10.836 0 21.229 4.344 28.891 12.076 7.663 7.732 11.967 18.219 11.967 29.154z" fill="url(#paint41_radial)"/><path fill-rule="evenodd" clip-rule="evenodd" d="M490.788 1.017c53.103-1.503 87.738 98.095-.231 131.295-77.97-28.621-67.176-129.387.231-131.295z" fill="url(#paint42_radial)" stroke="#E9E4E3" stroke-opacity=".784" stroke-width="1.903"/><path fill-rule="evenodd" clip-rule="evenodd" d="M649.105 89.996c25.436 44.498-51.982 119.036-122.825 59.218-8.533-79.287 90.533-115.706 122.825-59.218z" fill="url(#paint43_radial)" stroke="#E9E4E3" stroke-opacity=".784" stroke-width="1.903"/><path fill-rule="evenodd" clip-rule="evenodd" d="M343.088 99.538c-25.436 44.497 51.983 119.035 122.826 59.218 8.532-79.287-90.532-115.707-122.826-59.218z" fill="url(#paint44_radial)" stroke="#E9E4E3" stroke-opacity=".784" stroke-width="1.903"/><path fill-rule="evenodd" clip-rule="evenodd" d="M590.635 279.605c-44.007 28.394-129.152-38.036-73.482-111.003 81.915-15.651 129.338 74.965 73.482 111.003z" fill="url(#paint45_radial)" stroke="#E9E4E3" stroke-opacity=".784" stroke-width="1.903"/><path fill-rule="evenodd" clip-rule="evenodd" d="M407.676 282.378c44.006 28.394 129.151-38.036 73.481-111.002-81.915-15.651-129.338 74.965-73.481 111.002z" fill="url(#paint46_radial)" stroke="#E9E4E3" stroke-opacity=".784" stroke-width="1.903"/><path fill-rule="evenodd" clip-rule="evenodd" d="M523.814 153.769a24.325 24.325 0 01-1.974 9.746 25.263 25.263 0 01-5.747 8.274 26.66 26.66 0 01-8.637 5.534 27.656 27.656 0 01-10.202 1.944c-3.502 0-6.969-.66-10.203-1.944a26.671 26.671 0 01-8.637-5.534 25.276 25.276 0 01-5.746-8.274 24.344 24.344 0 01-1.975-9.746 24.335 24.335 0 011.975-9.745 25.29 25.29 0 015.746-8.275 26.688 26.688 0 018.637-5.534 27.686 27.686 0 0110.203-1.944c3.502 0 6.969.661 10.202 1.944a26.677 26.677 0 018.637 5.534 25.278 25.278 0 015.747 8.275 24.317 24.317 0 011.974 9.745z" fill="url(#paint47_radial)"/><path d="M492.085 150.548l3.108-.794.704 2.414.343 1.178c.119.407.965.673 1.226 1.342.262.668.452 1.549.635 2.175l.581 1.993c.186.639-.343 1.689-.117 2.464l.846 2.9c.253.87-.026 1.772-.291 3.093-.264 1.321.699 2.397 1.004 3.443.305 1.047 1.832 2.195 2.166 3.341l1.198 4.107-3.108.795-1.145-3.926c-.326-1.119-1.861-2.295-2.166-3.341l-1.004-3.444c-.433-1.486.642-1.887.396-2.73l-.898-3.081c-.222-.761.378-1.567.196-2.192l-.634-2.175c-.191-.652-.166-1.295-.635-2.175-.468-.879-1.132-1.02-1.279-1.523l-.475-1.631-.651-2.233z" fill="#FFD200" stroke="#ECBE16" stroke-opacity=".392" stroke-width=".239"/><path fill-rule="evenodd" clip-rule="evenodd" d="M507.703 180.303c.197.651.26 1.33.186 1.997a4.886 4.886 0 01-.619 1.892 4.953 4.953 0 01-1.327 1.495 5.17 5.17 0 01-1.833.871 5.405 5.405 0 01-2.056.111 5.513 5.513 0 01-1.966-.665 5.447 5.447 0 01-1.572-1.339 5.202 5.202 0 01-.938-1.807 4.974 4.974 0 01-.185-1.997c.074-.667.284-1.31.618-1.891a4.945 4.945 0 011.327-1.496 5.16 5.16 0 011.833-.87 5.39 5.39 0 012.057-.111 5.493 5.493 0 013.537 2.003c.431.54.75 1.154.938 1.807z" fill="url(#paint48_radial)"/><path d="M493.181 152.994l-3.137-.806-.699 2.413-.342 1.177c-.118.408-.97.67-1.231 1.338-.261.668-.449 1.549-.63 2.174l-.578 1.992c-.186.638.352 1.691.127 2.465l-.841 2.899c-.252.869.034 1.772.306 3.094.272 1.323-.695 2.396-.999 3.442-.303 1.046-1.838 2.189-2.17 3.335l-1.191 4.104 3.137.805 1.138-3.922c.324-1.119 1.867-2.289 2.171-3.335l.998-3.442c.431-1.485-.655-1.89-.41-2.732l.893-3.079c.22-.761-.388-1.569-.206-2.194l.63-2.174c.189-.652.162-1.295.631-2.173.468-.878 1.137-1.017 1.283-1.519l.473-1.63.647-2.232z" fill="#FFD200" stroke="#ECBE16" stroke-opacity=".392" stroke-width=".239"/><path fill-rule="evenodd" clip-rule="evenodd" d="M477.556 182.72a4.948 4.948 0 00-.177 1.993c.077.666.29 1.308.627 1.89.337.581.791 1.09 1.337 1.497.545.407 1.17.704 1.84.875.67.17 1.37.21 2.062.118a5.524 5.524 0 001.967-.657 5.383 5.383 0 001.57-1.33c.43-.537.747-1.149.933-1.801a4.945 4.945 0 00.178-1.992 4.883 4.883 0 00-.627-1.89 5.019 5.019 0 00-1.337-1.497 5.227 5.227 0 00-1.84-.875 5.496 5.496 0 00-4.029.538 5.388 5.388 0 00-1.571 1.331 5.176 5.176 0 00-.933 1.8z" fill="url(#paint49_radial)"/><path d="M490.685 151.545l-3.289.122.156 1.749.075.853c.027.295-.702.648-.723 1.146-.021.498.1 1.123.14 1.575l.129 1.444c.041.463.918 1.049.968 1.611l.186 2.1c.056.63.641 1.17 1.355 1.991.715.821.155 1.736.222 2.494.067.758-1.015 1.839-.941 2.669l.265 2.974 3.289-.122-.253-2.843c-.072-.81 1.008-1.911.941-2.669l-.222-2.494c-.095-1.076-1.277-1.118-1.331-1.729l-.199-2.231c-.049-.551-.91-.961-.95-1.413l-.14-1.576c-.042-.472-.289-.893-.14-1.575.148-.681.743-.913.711-1.277l-.105-1.182-.144-1.617z" fill="#FFD200" stroke="#ECBE16" stroke-opacity=".392" stroke-width=".239"/><path fill-rule="evenodd" clip-rule="evenodd" d="M485.808 174.576c.037.469.213.929.515 1.353.303.425.727.805 1.249 1.119a6.27 6.27 0 001.789.714 7.74 7.74 0 002.057.198 7.423 7.423 0 002.007-.348 5.577 5.577 0 001.651-.84c.462-.351.815-.76 1.04-1.204.225-.444.317-.914.271-1.382a2.699 2.699 0 00-.516-1.354c-.302-.424-.727-.805-1.248-1.119a6.289 6.289 0 00-1.79-.714 7.775 7.775 0 00-2.056-.198 7.416 7.416 0 00-2.007.348 5.601 5.601 0 00-1.651.84c-.462.351-.815.76-1.041 1.204a2.486 2.486 0 00-.27 1.383z" fill="url(#paint50_radial)"/><path d="M493.173 151.801l2.298-2.314 1.899 1.716.926.838c.321.289 1.203.076 1.787.516.583.441 1.219 1.102 1.71 1.546l1.568 1.417c.503.454.599 1.638 1.208 2.189l2.281 2.062c.684.618.919 1.543 1.389 2.822.471 1.279 1.886 1.704 2.709 2.448.823.744 2.77.936 3.671 1.751l3.23 2.919-2.297 2.314-3.088-2.79c-.88-.796-2.848-1.007-3.671-1.751l-2.709-2.448c-1.169-1.056-.441-1.966-1.104-2.565l-2.423-2.19c-.599-.541-.502-1.551-.994-1.996l-1.711-1.546c-.513-.464-.833-1.032-1.71-1.546-.878-.514-1.534-.288-1.929-.645l-1.283-1.16-1.757-1.587z" fill="#FFD200" stroke="#ECBE16" stroke-opacity=".392" stroke-width=".239"/><path fill-rule="evenodd" clip-rule="evenodd" d="M522.678 169.375a5.049 5.049 0 011.209 1.613 4.86 4.86 0 01.118 3.892 5.058 5.058 0 01-1.109 1.682 5.32 5.32 0 01-1.701 1.148 5.538 5.538 0 01-4.08.098 5.338 5.338 0 01-1.753-1.065 5.056 5.056 0 01-1.209-1.612 4.86 4.86 0 01-.118-3.892 5.048 5.048 0 011.109-1.682 5.332 5.332 0 011.701-1.148 5.539 5.539 0 014.08-.098 5.335 5.335 0 011.753 1.064z" fill="url(#paint51_radial)"/><path d="M489.533 153.036l.256-3.246 2.607.166 1.272.082c.441.028.984-.688 1.728-.706.744-.017 1.674.107 2.349.15l2.153.138c.69.044 1.546.914 2.383.968l3.132.2c.939.06 1.732.641 2.942 1.353 1.21.711 2.589.165 3.719.237 1.131.072 2.768-.988 4.006-.909l4.435.284-.256 3.246-4.239-.271c-1.208-.077-2.876.981-4.006.909l-3.719-.237c-1.605-.103-1.641-1.27-2.551-1.328l-3.328-.213c-.822-.052-1.413-.906-2.089-.949l-2.349-.15c-.704-.045-1.328-.292-2.348-.15-1.021.142-1.381.728-1.924.693l-1.761-.113-2.412-.154z" fill="#FFD200" stroke="#ECBE16" stroke-opacity=".392" stroke-width=".239"/><path fill-rule="evenodd" clip-rule="evenodd" d="M524.053 148.645a5.4 5.4 0 011.996.506 5.183 5.183 0 011.633 1.208c.455.503.801 1.09 1.019 1.725.217.636.302 1.308.248 1.978a4.985 4.985 0 01-.56 1.926 5.21 5.21 0 01-1.283 1.581 5.42 5.42 0 01-1.808.991 5.497 5.497 0 01-2.057.25 5.405 5.405 0 01-1.996-.506 5.168 5.168 0 01-1.633-1.208 4.917 4.917 0 01-1.267-3.703c.054-.67.244-1.325.56-1.926a5.21 5.21 0 011.283-1.58 5.404 5.404 0 011.808-.992 5.497 5.497 0 012.057-.25z" fill="url(#paint52_radial)"/><path d="M494.065 148.556l-2.863 1.476.953 1.51.466.737c.161.255-.321.875-.108 1.333.214.457.612.969.859 1.36l.788 1.247c.252.399 1.304.563 1.61 1.048l1.146 1.814c.343.544 1.114.787 2.131 1.23 1.018.442.947 1.499 1.361 2.154.413.654-.044 2.077.409 2.794l1.622 2.568 2.863-1.476-1.55-2.455c-.442-.7.004-2.14-.41-2.794l-1.36-2.154c-.587-.93-1.655-.476-1.988-1.003l-1.217-1.928c-.301-.476-1.256-.486-1.503-.877l-.859-1.361c-.258-.408-.674-.685-.859-1.36-.186-.675.234-1.132.035-1.446l-.644-1.02-.882-1.397z" fill="#FFD200" stroke="#ECBE16" stroke-opacity=".392" stroke-width=".239"/><path fill-rule="evenodd" clip-rule="evenodd" d="M500.437 171.273c.255.41.628.755 1.097 1.015a4.42 4.42 0 001.64.497 6.279 6.279 0 001.93-.097 7.4 7.4 0 001.925-.675 6.837 6.837 0 001.625-1.151 5.125 5.125 0 001.074-1.449 3.385 3.385 0 00.359-1.526 2.579 2.579 0 00-.41-1.368 2.95 2.95 0 00-1.097-1.014 4.402 4.402 0 00-1.64-.498 6.31 6.31 0 00-1.93.097 7.4 7.4 0 00-1.925.675 6.909 6.909 0 00-1.624 1.151 5.124 5.124 0 00-1.075 1.449 3.385 3.385 0 00-.359 1.526c.009.497.148.962.41 1.368z" fill="url(#paint53_radial)"/><path d="M494.531 155.812l3.166-.544-.492-2.459-.24-1.2c-.083-.416.554-.998.477-1.706-.076-.707-.316-1.578-.443-2.215l-.407-2.031c-.13-.651-1.095-1.383-1.253-2.172l-.592-2.955c-.177-.886-.849-1.585-1.703-2.667-.854-1.083-.489-2.442-.702-3.508-.214-1.067.625-2.72.391-3.887l-.837-4.184-3.167.544.801 3.999c.228 1.14-.605 2.821-.391 3.887l.702 3.508c.303 1.514 1.457 1.44 1.629 2.298l.628 3.139c.155.776 1.071 1.258 1.198 1.895l.444 2.216c.133.665.455 1.234.443 2.216-.011.981-.543 1.378-.44 1.89l.333 1.661.455 2.275z" fill="#FFD200" stroke="#ECBE16" stroke-opacity=".392" stroke-width=".239"/><path fill-rule="evenodd" clip-rule="evenodd" d="M494.911 122.666a5.125 5.125 0 00-.778-1.871 5.361 5.361 0 00-1.452-1.455 5.507 5.507 0 00-1.904-.815 5.428 5.428 0 00-2.063-.05c-.682.115-1.33.36-1.907.721a5.036 5.036 0 00-1.457 1.384 4.902 4.902 0 00-.774 3.833c.131.664.395 1.3.778 1.871.382.57.876 1.065 1.452 1.454a5.47 5.47 0 003.968.866 5.238 5.238 0 001.906-.722 5.02 5.02 0 001.457-1.383 4.897 4.897 0 00.784-1.833 4.954 4.954 0 00-.01-2z" fill="url(#paint54_radial)"/><path d="M494.198 153.205l-2.501 2.076-1.72-1.884-.839-.92c-.291-.318-1.186-.19-1.723-.683-.537-.493-1.104-1.21-1.55-1.698l-1.42-1.556c-.455-.498-.437-1.682-.989-2.287l-2.066-2.264c-.62-.679-.764-1.619-1.108-2.934-.345-1.314-1.708-1.871-2.454-2.688-.745-.817-2.658-1.193-3.475-2.088l-2.926-3.205 2.501-2.077 2.797 3.064c.797.873 2.729 1.271 3.475 2.088l2.453 2.688c1.059 1.16.25 1.993.851 2.651l2.195 2.405c.542.594.349 1.587.795 2.076l1.549 1.697c.465.509.729 1.104 1.55 1.698.821.594 1.494.432 1.852.825l1.162 1.273 1.591 1.743z" fill="#FFD200" stroke="#ECBE16" stroke-opacity=".392" stroke-width=".239"/><path fill-rule="evenodd" clip-rule="evenodd" d="M466.608 132.972a5.046 5.046 0 01-1.049-1.721 4.861 4.861 0 01.256-3.885 5.062 5.062 0 011.266-1.568 5.32 5.32 0 011.803-.979 5.53 5.53 0 014.07.293 5.33 5.33 0 011.643 1.228 5.065 5.065 0 011.049 1.721 4.864 4.864 0 01-.256 3.885 5.062 5.062 0 01-1.265 1.568c-.527.437-1.14.77-1.803.98a5.557 5.557 0 01-4.071-.293 5.333 5.333 0 01-1.643-1.229z" fill="url(#paint55_radial)"/><path d="M492.744 155.562l-2.984 1.226-.671-1.642-.327-.801c-.114-.277-.925-.3-1.175-.741-.249-.441-.431-1.053-.604-1.479l-.555-1.355c-.177-.434.332-1.32.116-1.847l-.806-1.972c-.242-.591.028-1.316.284-2.347.256-1.032-.666-1.63-.957-2.342-.291-.712-1.754-1.248-2.073-2.027l-1.142-2.792 2.984-1.226 1.091 2.669c.311.761 1.782 1.315 2.073 2.027l.957 2.341c.413 1.011-.619 1.529-.385 2.102l.857 2.094c.212.518-.365 1.237-.192 1.663l.605 1.478c.182.444.157.925.605 1.479.448.555 1.085.523 1.224.864l.454 1.109.621 1.519z" fill="#FFD200" stroke="#ECBE16" stroke-opacity=".392" stroke-width=".239"/><path fill-rule="evenodd" clip-rule="evenodd" d="M477.811 136.772a2.707 2.707 0 01-.173-1.441 3.857 3.857 0 01.592-1.526 5.74 5.74 0 011.268-1.376 7.245 7.245 0 011.748-1.016 7.208 7.208 0 011.961-.499 5.755 5.755 0 011.872.093c.578.131 1.086.36 1.496.672a2.712 2.712 0 011.064 2.588 3.851 3.851 0 01-.592 1.526 5.72 5.72 0 01-1.268 1.376 7.212 7.212 0 01-1.748 1.016c-.637.26-1.303.43-1.961.5a5.727 5.727 0 01-1.872-.094 3.857 3.857 0 01-1.496-.672 2.712 2.712 0 01-.891-1.147z" fill="url(#paint56_radial)"/><path d="M494.778 154.331l3.025 1.083.941-2.34.459-1.142c.159-.395 1.03-.581 1.356-1.223.327-.642.604-1.502.848-2.108l.777-1.933c.249-.619-.175-1.716.127-2.467l1.13-2.811c.339-.843.149-1.768.015-3.109-.134-1.342.934-2.324 1.342-3.338.408-1.015 2.046-2.017 2.492-3.128l1.601-3.98-3.025-1.083-1.529 3.805c-.436 1.084-2.085 2.112-2.493 3.127l-1.342 3.338c-.579 1.441.455 1.941.126 2.758l-1.2 2.987c-.297.738.222 1.597-.021 2.203l-.848 2.109c-.254.632-.293 1.275-.847 2.108-.555.833-1.232.911-1.428 1.398l-.635 1.581-.871 2.165z" fill="#FFD200" stroke="#ECBE16" stroke-opacity=".392" stroke-width=".239"/><path fill-rule="evenodd" clip-rule="evenodd" d="M513.303 126.143a5.023 5.023 0 00.384-1.974 4.877 4.877 0 00-1.598-3.555 5.112 5.112 0 00-1.735-1.037 5.36 5.36 0 00-2.034-.301 5.525 5.525 0 00-3.717 1.669 5.277 5.277 0 00-1.112 1.715 5.003 5.003 0 00-.383 1.973 4.863 4.863 0 001.597 3.556 5.121 5.121 0 001.735 1.037c.647.23 1.339.332 2.034.301a5.52 5.52 0 003.717-1.67 5.272 5.272 0 001.112-1.714z" fill="url(#paint57_radial)"/><path d="M491.013 154.651l1.698 2.814 2.264-1.234 1.105-.602c.382-.209 1.194.21 1.87-.084.675-.294 1.453-.792 2.04-1.112l1.869-1.019c.6-.327.974-1.466 1.701-1.862l2.72-1.483c.816-.445 1.265-1.297 2.029-2.44.763-1.144 2.248-1.226 3.23-1.761.981-.535 2.931-.263 4.006-.849l3.852-2.099-1.698-2.814-3.682 2.006c-1.05.572-3.025.314-4.006.849l-3.23 1.761c-1.394.759-.899 1.824-1.689 2.255l-2.89 1.575c-.714.389-.859 1.403-1.445 1.723l-2.04 1.112c-.612.334-1.06.815-2.04 1.112-.98.297-1.568-.08-2.04.177l-1.53.833-2.094 1.142z" fill="#FFD200" stroke="#ECBE16" stroke-opacity=".392" stroke-width=".239"/><path fill-rule="evenodd" clip-rule="evenodd" d="M524.055 144.298a5.097 5.097 0 001.556-1.284 4.866 4.866 0 001.032-3.755 5.055 5.055 0 00-.682-1.895 5.317 5.317 0 00-1.382-1.514 5.533 5.533 0 00-3.942-1.052 5.342 5.342 0 00-1.955.623 5.085 5.085 0 00-1.556 1.284 4.874 4.874 0 00-1.033 3.755c.096.666.328 1.31.682 1.895.354.585.824 1.1 1.382 1.514a5.528 5.528 0 003.942 1.052 5.347 5.347 0 001.956-.623z" fill="url(#paint58_radial)"/><path d="M497.069 156.808l-3.282-.146.172-1.748.084-.852c.029-.296-.695-.654-.711-1.152-.017-.499.11-1.122.154-1.575l.142-1.443c.046-.462.927-1.042.982-1.603l.206-2.099c.062-.63.65-1.165 1.371-1.981.722-.816.171-1.735.245-2.493.075-.757-.995-1.846-.913-2.676l.292-2.973 3.281.147-.279 2.841c-.079.81.988 1.919.914 2.677l-.245 2.492c-.106 1.076-1.285 1.109-1.345 1.719l-.219 2.23c-.055.551-.918.954-.963 1.407l-.155 1.574c-.046.472-.296.892-.154 1.574.142.683.734.92.698 1.284l-.116 1.18-.159 1.616z" fill="#FFD200" stroke="#ECBE16" stroke-opacity=".392" stroke-width=".239"/><path fill-rule="evenodd" clip-rule="evenodd" d="M492.406 133.741c.042-.469.221-.929.528-1.351.307-.423.734-.8 1.258-1.111a6.304 6.304 0 011.796-.701 7.782 7.782 0 012.057-.183 7.42 7.42 0 012.003.363 5.548 5.548 0 011.642.854c.458.354.808.766 1.028 1.212.221.446.309.917.258 1.386a2.718 2.718 0 01-.528 1.351c-.307.422-.735.8-1.259 1.111a6.28 6.28 0 01-1.796.7 7.7 7.7 0 01-4.06-.18 5.594 5.594 0 01-1.642-.853c-.458-.355-.807-.767-1.028-1.213a2.484 2.484 0 01-.257-1.385z" fill="url(#paint59_radial)"/><path d="M498.965 146.261l1.398 2.986-2.385 1.001-1.164.488c-.403.169-.525 1.042-1.173 1.385-.649.343-1.532.642-2.15.901l-1.97.826c-.631.265-1.822-.128-2.588.193l-2.866 1.202c-.86.36-1.85.195-3.275.098-1.424-.098-2.369.993-3.403 1.427-1.034.434-1.95 2.093-3.083 2.568l-4.058 1.702-1.398-2.986 3.879-1.627c1.106-.464 2.049-2.135 3.083-2.568l3.403-1.428c1.469-.615 2.084.402 2.917.053l3.045-1.277c.752-.316 1.701.179 2.319-.08l2.15-.901c.644-.271 1.319-.327 2.149-.902.83-.574.855-1.251 1.352-1.46l1.612-.676 2.206-.925z" fill="#FFD200" stroke="#ECBE16" stroke-opacity=".392" stroke-width=".239"/><path fill-rule="evenodd" clip-rule="evenodd" d="M470.709 165.488a5.382 5.382 0 01-2.011.421 5.528 5.528 0 01-3.812-1.448 5.296 5.296 0 01-1.216-1.647 5.027 5.027 0 01-.48-1.954 4.858 4.858 0 011.42-3.628 5.076 5.076 0 011.682-1.117 5.343 5.343 0 012.011-.421 5.527 5.527 0 013.812 1.448 5.292 5.292 0 011.216 1.646c.291.618.455 1.282.48 1.954a4.855 4.855 0 01-1.42 3.628 5.105 5.105 0 01-1.682 1.118z" fill="url(#paint60_radial)"/><path d="M496.639 147.519l.403-3.217-2.596-.281-1.267-.137c-.439-.047-.829-.84-1.557-.983-.727-.143-1.666-.18-2.339-.253l-2.144-.232c-.687-.074-1.704.631-2.538.541l-3.119-.337c-.935-.102-1.832.331-3.165.821-1.333.49-2.578-.279-3.704-.4-1.125-.122-2.522-1.437-3.754-1.57l-4.417-.478-.404 3.217 4.222.456c1.204.13 2.63 1.448 3.755 1.57l3.704.401c1.598.172 1.869-.962 2.775-.864l3.314.358c.819.089 1.573-.645 2.245-.572l2.34.253c.701.076 1.364-.059 2.339.253.974.312 1.21.946 1.751 1.004l1.754.19 2.402.26z" fill="#FFD200" stroke="#ECBE16" stroke-opacity=".392" stroke-width=".239"/><path fill-rule="evenodd" clip-rule="evenodd" d="M463.621 137.208a5.502 5.502 0 00-3.921 1.071 5.206 5.206 0 00-1.354 1.522 4.988 4.988 0 00-.649 1.899 4.88 4.88 0 00.157 1.986c.188.644.507 1.245.939 1.768.431.522.967.957 1.576 1.278a5.39 5.39 0 001.972.592 5.503 5.503 0 003.92-1.07 5.234 5.234 0 001.355-1.522 4.991 4.991 0 00.648-1.9 4.88 4.88 0 00-.157-1.986 4.958 4.958 0 00-.938-1.767 5.164 5.164 0 00-1.576-1.278 5.398 5.398 0 00-1.972-.593z" fill="url(#paint61_radial)"/><path d="M497.857 145.178l-.673-3.209-1.783.392-.87.191c-.301.066-.787-.6-1.306-.552-.519.047-1.145.251-1.606.352l-1.473.324c-.471.103-.933 1.044-1.505 1.17l-2.142.47c-.642.141-1.104.788-1.834 1.601-.731.813-1.771.389-2.544.559-.773.169-2.07-.744-2.917-.558l-3.033.666.673 3.209 2.899-.637c.826-.181 2.144.727 2.917.558l2.544-.559c1.097-.241.944-1.405 1.566-1.542l2.276-.5c.562-.123.843-1.024 1.304-1.126l1.607-.352c.482-.106.876-.406 1.606-.353.729.053 1.068.604 1.44.523l1.204-.265 1.65-.362z" fill="#FFD200" stroke="#ECBE16" stroke-opacity=".392" stroke-width=".239"/><path fill-rule="evenodd" clip-rule="evenodd" d="M473.203 143.822a2.788 2.788 0 00-1.297.673c-.384.345-.703.8-.94 1.339a5.633 5.633 0 00-.437 1.8 6.95 6.95 0 00.133 1.985c.14.661.371 1.295.682 1.866.31.57.692 1.066 1.126 1.459a3.81 3.81 0 001.398.83 2.786 2.786 0 002.752-.599c.384-.345.704-.8.94-1.339a5.647 5.647 0 00.437-1.8 6.955 6.955 0 00-.133-1.986 6.91 6.91 0 00-.681-1.865 5.554 5.554 0 00-1.126-1.46 3.825 3.825 0 00-1.398-.83 2.765 2.765 0 00-1.456-.073z" fill="url(#paint62_radial)"/><path d="M498.039 147.372l2.699 1.788-1.499 2.054-.731 1.001c-.254.347.089 1.14-.282 1.758-.372.617-.963 1.318-1.351 1.85l-1.238 1.695c-.396.543-1.6.82-2.082 1.479l-1.8 2.467c-.541.739-1.459 1.106-2.708 1.75-1.25.644-1.489 2.039-2.139 2.929-.65.89-.576 2.746-1.287 3.721l-2.55 3.492-2.7-1.788 2.438-3.339c.694-.951.637-2.831 1.287-3.721l2.138-2.928c.923-1.264 1.96-.726 2.483-1.443l1.914-2.62c.472-.647 1.524-.717 1.913-1.248l1.35-1.85c.405-.555.945-.945 1.351-1.849.406-.905.082-1.484.394-1.912l1.013-1.387 1.387-1.899z" fill="#FFD200" stroke="#ECBE16" stroke-opacity=".392" stroke-width=".239"/><path fill-rule="evenodd" clip-rule="evenodd" d="M484.164 177.818a5.343 5.343 0 01-1.5 1.399 5.532 5.532 0 01-4.015.731 5.324 5.324 0 01-1.898-.779 5.063 5.063 0 01-1.429-1.421 4.865 4.865 0 01-.675-3.835 5.07 5.07 0 01.856-1.824c.401-.555.91-1.03 1.5-1.399a5.552 5.552 0 014.015-.731 5.324 5.324 0 011.898.779 5.066 5.066 0 011.429 1.422 4.865 4.865 0 01.675 3.834 5.07 5.07 0 01-.856 1.824z" fill="url(#paint63_radial)"/><path d="M496.167 144.128l3.237-.234.221 2.491.107 1.216c.037.421.823.83.95 1.531.127.702.141 1.599.198 2.244l.182 2.057c.058.66-.673 1.597-.603 2.397l.265 2.992c.079.898-.376 1.733-.9 2.982-.523 1.249.219 2.473.314 3.553.096 1.08 1.382 2.474 1.487 3.657l.374 4.238-3.238.234-.358-4.051c-.102-1.154-1.39-2.577-1.486-3.657l-.314-3.553c-.135-1.533 1.01-1.739.933-2.608l-.281-3.179c-.07-.786.684-1.471.627-2.116l-.198-2.244c-.059-.673.092-1.3-.198-2.244-.291-.945-.921-1.2-.967-1.719l-.149-1.683-.203-2.304z" fill="#FFD200" stroke="#ECBE16" stroke-opacity=".392" stroke-width=".239"/><path fill-rule="evenodd" clip-rule="evenodd" d="M505.766 176.081a4.891 4.891 0 01-.216 1.982 4.953 4.953 0 01-.989 1.74c-.447.51-.994.929-1.612 1.232a5.388 5.388 0 01-1.986.534 5.515 5.515 0 01-2.057-.246 5.446 5.446 0 01-1.811-.988 5.23 5.23 0 01-1.287-1.578 4.998 4.998 0 01-.566-1.927 4.893 4.893 0 01.215-1.982 4.98 4.98 0 01.99-1.74 5.15 5.15 0 011.612-1.231 5.383 5.383 0 011.986-.534 5.487 5.487 0 012.056.246c.664.212 1.28.547 1.811.988.532.44.97.977 1.288 1.578a5.01 5.01 0 01.566 1.926z" fill="url(#paint64_radial)"/><path d="M501.464 147.872l-2.043-2.563-1.413 1.113-.689.543c-.239.188-.971-.195-1.412.07-.441.264-.907.714-1.273 1.002l-1.167.919c-.374.295-.362 1.328-.815 1.685l-1.697 1.337c-.509.401-.63 1.173-.915 2.209-.285 1.036-1.403 1.105-2.015 1.588-.613.482-2.18.228-2.851.756l-2.403 1.893 2.043 2.562 2.297-1.809c.655-.516 2.238-.274 2.85-.757l2.016-1.587c.869-.685.209-1.654.702-2.042l1.803-1.421c.446-.351.291-1.271.657-1.559l1.272-1.003c.382-.3.599-.736 1.273-1.002.674-.266 1.224.078 1.519-.153l.954-.752 1.307-1.029z" fill="#FFD200" stroke="#ECBE16" stroke-opacity=".392" stroke-width=".239"/><path fill-rule="evenodd" clip-rule="evenodd" d="M478.815 157.12a2.697 2.697 0 00-.856 1.165 3.82 3.82 0 00-.231 1.611c.034.587.18 1.202.43 1.809a7.146 7.146 0 001.023 1.731 7.172 7.172 0 001.462 1.386c.538.38 1.107.662 1.674.829a3.89 3.89 0 001.631.145 2.721 2.721 0 002.192-1.727 3.804 3.804 0 00.231-1.611 5.666 5.666 0 00-.429-1.809 7.182 7.182 0 00-1.024-1.731 7.193 7.193 0 00-1.461-1.386 5.76 5.76 0 00-1.675-.829 3.887 3.887 0 00-1.63-.145 2.72 2.72 0 00-1.337.562z" fill="url(#paint65_radial)"/><path fill-rule="evenodd" clip-rule="evenodd" d="M513.616 156.119a4.857 4.857 0 01-.394 1.95 5.057 5.057 0 01-1.15 1.654 5.332 5.332 0 01-1.727 1.107 5.53 5.53 0 01-4.081 0 5.325 5.325 0 01-1.728-1.107 5.069 5.069 0 01-1.149-1.654 4.875 4.875 0 01-.395-1.95c-.004-.668.13-1.33.395-1.949a5.073 5.073 0 011.149-1.655 5.342 5.342 0 011.728-1.107 5.544 5.544 0 014.081 0 5.348 5.348 0 011.727 1.107 5.06 5.06 0 011.15 1.655c.265.619.399 1.281.394 1.949z" fill="url(#paint66_radial)"/><path fill-rule="evenodd" clip-rule="evenodd" d="M499.72 161.667c.004.668-.13 1.33-.395 1.949a5.06 5.06 0 01-1.15 1.655c-.493.474-1.08.85-1.727 1.107a5.55 5.55 0 01-4.081 0 5.342 5.342 0 01-1.728-1.107 5.073 5.073 0 01-1.149-1.655 4.873 4.873 0 01-.395-1.949 4.875 4.875 0 01.395-1.95 5.073 5.073 0 011.149-1.655 5.34 5.34 0 011.728-1.106 5.53 5.53 0 014.081 0 5.324 5.324 0 011.727 1.106 5.06 5.06 0 011.15 1.655c.265.619.399 1.281.395 1.95z" fill="url(#paint67_radial)"/><path fill-rule="evenodd" clip-rule="evenodd" d="M492.498 150.017a4.87 4.87 0 01-.395 1.949 5.062 5.062 0 01-1.149 1.655 5.325 5.325 0 01-1.728 1.107 5.53 5.53 0 01-4.081 0 5.332 5.332 0 01-1.727-1.107 5.047 5.047 0 01-1.149-1.655 4.853 4.853 0 01-.395-1.949c-.005-.668.13-1.33.395-1.949a5.047 5.047 0 011.149-1.655 5.348 5.348 0 011.727-1.107 5.55 5.55 0 014.081 0 5.342 5.342 0 011.728 1.107 5.062 5.062 0 011.149 1.655c.265.619.399 1.281.395 1.949z" fill="url(#paint68_radial)"/><path fill-rule="evenodd" clip-rule="evenodd" d="M471.391 151.903a4.853 4.853 0 01-.395 1.949 5.047 5.047 0 01-1.149 1.655 5.348 5.348 0 01-1.727 1.107 5.53 5.53 0 01-4.081 0 5.342 5.342 0 01-1.728-1.107 5.047 5.047 0 01-1.149-1.655 4.87 4.87 0 01-.395-1.949 4.87 4.87 0 01.395-1.949 5.047 5.047 0 011.149-1.655 5.342 5.342 0 011.728-1.107 5.53 5.53 0 014.081 0 5.348 5.348 0 011.727 1.107 5.047 5.047 0 011.149 1.655c.265.618.4 1.281.395 1.949z" fill="url(#paint69_radial)"/><path fill-rule="evenodd" clip-rule="evenodd" d="M481.113 168.545a4.853 4.853 0 01-.395 1.949 5.047 5.047 0 01-1.149 1.655 5.348 5.348 0 01-1.727 1.107 5.534 5.534 0 01-4.081 0 5.342 5.342 0 01-1.728-1.107 5.047 5.047 0 01-1.149-1.655 4.87 4.87 0 01-.395-1.949 4.87 4.87 0 01.395-1.949 5.047 5.047 0 011.149-1.655 5.342 5.342 0 011.728-1.107 5.534 5.534 0 014.081 0 5.348 5.348 0 011.727 1.107 5.047 5.047 0 011.149 1.655c.265.618.4 1.281.395 1.949z" fill="url(#paint70_radial)"/><path fill-rule="evenodd" clip-rule="evenodd" d="M486.393 129.825a4.87 4.87 0 01-.395 1.949 5.062 5.062 0 01-1.149 1.655 5.342 5.342 0 01-1.728 1.107 5.549 5.549 0 01-4.081 0 5.327 5.327 0 01-1.727-1.107 5.05 5.05 0 01-1.15-1.655 4.87 4.87 0 01-.395-1.949 4.87 4.87 0 01.395-1.949 5.05 5.05 0 011.15-1.655 5.327 5.327 0 011.727-1.107 5.53 5.53 0 014.081 0 5.342 5.342 0 011.728 1.107 5.062 5.062 0 011.149 1.655 4.87 4.87 0 01.395 1.949z" fill="url(#paint71_radial)"/><path fill-rule="evenodd" clip-rule="evenodd" d="M483.893 141.252a4.87 4.87 0 01-.395 1.949 5.05 5.05 0 01-1.15 1.655c-.493.474-1.08.85-1.727 1.107a5.53 5.53 0 01-4.081 0 5.327 5.327 0 01-1.727-1.107 5.05 5.05 0 01-1.15-1.655 4.87 4.87 0 01-.395-1.949 4.87 4.87 0 01.395-1.949 5.05 5.05 0 011.15-1.655 5.327 5.327 0 011.727-1.107 5.53 5.53 0 014.081 0 5.327 5.327 0 011.727 1.107 5.05 5.05 0 011.15 1.655 4.87 4.87 0 01.395 1.949z" fill="url(#paint72_radial)"/><path fill-rule="evenodd" clip-rule="evenodd" d="M496.952 139.921c.004.668-.13 1.33-.395 1.949a5.073 5.073 0 01-1.149 1.655 5.342 5.342 0 01-1.728 1.107 5.548 5.548 0 01-4.081 0 5.327 5.327 0 01-1.727-1.107 5.06 5.06 0 01-1.15-1.655 4.873 4.873 0 01-.395-1.949 4.875 4.875 0 01.395-1.95 5.06 5.06 0 011.15-1.655 5.308 5.308 0 011.727-1.106 5.53 5.53 0 014.081 0 5.323 5.323 0 011.728 1.106 5.073 5.073 0 011.149 1.655c.265.619.399 1.281.395 1.95z" fill="url(#paint73_radial)"/><path fill-rule="evenodd" clip-rule="evenodd" d="M503.615 151.903a4.853 4.853 0 01-.395 1.949 5.047 5.047 0 01-1.149 1.655 5.348 5.348 0 01-1.727 1.107 5.534 5.534 0 01-4.082 0 5.348 5.348 0 01-1.727-1.107 5.047 5.047 0 01-1.149-1.655 4.853 4.853 0 01-.395-1.949 4.853 4.853 0 01.395-1.949 5.047 5.047 0 011.149-1.655 5.348 5.348 0 011.727-1.107 5.534 5.534 0 014.082 0 5.348 5.348 0 011.727 1.107 5.047 5.047 0 011.149 1.655c.265.618.4 1.281.395 1.949z" fill="url(#paint74_radial)"/><path fill-rule="evenodd" clip-rule="evenodd" d="M504.453 125.387a4.87 4.87 0 01-.395 1.949 5.062 5.062 0 01-1.149 1.655 5.342 5.342 0 01-1.728 1.107 5.549 5.549 0 01-4.081 0 5.327 5.327 0 01-1.727-1.107 5.05 5.05 0 01-1.15-1.655 4.87 4.87 0 01-.395-1.949 4.87 4.87 0 01.395-1.949 5.05 5.05 0 011.15-1.655 5.327 5.327 0 011.727-1.107 5.53 5.53 0 014.081 0 5.342 5.342 0 011.728 1.107 5.062 5.062 0 011.149 1.655 4.87 4.87 0 01.395 1.949z" fill="url(#paint75_radial)"/><path fill-rule="evenodd" clip-rule="evenodd" d="M510.558 143.36a4.87 4.87 0 01-.395 1.949 5.062 5.062 0 01-1.149 1.655 5.342 5.342 0 01-1.728 1.107 5.53 5.53 0 01-4.081 0 5.348 5.348 0 01-1.727-1.107 5.05 5.05 0 01-1.15-1.655 4.852 4.852 0 01-.394-1.949 4.852 4.852 0 01.394-1.949 5.05 5.05 0 011.15-1.655 5.348 5.348 0 011.727-1.107 5.53 5.53 0 014.081 0 5.342 5.342 0 011.728 1.107 5.062 5.062 0 011.149 1.655 4.87 4.87 0 01.395 1.949z" fill="url(#paint76_radial)"/><path fill-rule="evenodd" clip-rule="evenodd" d="M518.338 133.597c.004.668-.13 1.33-.395 1.949a5.062 5.062 0 01-1.149 1.655 5.342 5.342 0 01-1.728 1.107 5.545 5.545 0 01-4.081 0 5.327 5.327 0 01-1.727-1.107 5.05 5.05 0 01-1.15-1.655 4.873 4.873 0 01-.395-1.949 4.87 4.87 0 01.395-1.949 5.05 5.05 0 011.15-1.655 5.327 5.327 0 011.727-1.107 5.53 5.53 0 014.081 0 5.342 5.342 0 011.728 1.107 5.062 5.062 0 011.149 1.655 4.87 4.87 0 01.395 1.949z" fill="url(#paint77_radial)"/><path fill-rule="evenodd" clip-rule="evenodd" d="M519.722 146.578c.004.668-.13 1.33-.395 1.949a5.05 5.05 0 01-1.15 1.655c-.493.474-1.08.85-1.727 1.107a5.55 5.55 0 01-4.081 0 5.342 5.342 0 01-1.728-1.107 5.062 5.062 0 01-1.149-1.655 4.873 4.873 0 01-.395-1.949 4.87 4.87 0 01.395-1.949 5.062 5.062 0 011.149-1.655 5.342 5.342 0 011.728-1.107 5.53 5.53 0 014.081 0 5.327 5.327 0 011.727 1.107 5.05 5.05 0 011.15 1.655 4.87 4.87 0 01.395 1.949z" fill="url(#paint78_radial)"/><path fill-rule="evenodd" clip-rule="evenodd" d="M521.675 161.667c.005.668-.13 1.33-.395 1.949a5.058 5.058 0 01-1.149 1.655 5.348 5.348 0 01-1.727 1.107 5.553 5.553 0 01-4.081 0 5.342 5.342 0 01-1.728-1.107 5.058 5.058 0 01-1.149-1.655 4.873 4.873 0 01-.395-1.949 4.875 4.875 0 01.395-1.95 5.058 5.058 0 011.149-1.655 5.34 5.34 0 011.728-1.106 5.534 5.534 0 014.081 0 5.346 5.346 0 011.727 1.106 5.058 5.058 0 011.149 1.655c.265.619.4 1.281.395 1.95z" fill="url(#paint79_radial)"/><path fill-rule="evenodd" clip-rule="evenodd" d="M493.615 167.99a4.875 4.875 0 01-.395 1.95 5.06 5.06 0 01-1.15 1.655 5.335 5.335 0 01-1.727 1.106 5.53 5.53 0 01-4.081 0 5.34 5.34 0 01-1.728-1.106 5.073 5.073 0 01-1.149-1.655 4.875 4.875 0 01-.395-1.95c-.004-.668.13-1.33.395-1.949a5.073 5.073 0 011.149-1.655 5.342 5.342 0 011.728-1.107 5.544 5.544 0 014.081 0 5.338 5.338 0 011.727 1.107 5.06 5.06 0 011.15 1.655c.265.619.399 1.281.395 1.949z" fill="url(#paint80_radial)"/><defs><radialGradient id="paint0_radial" cx="0" cy="0" r="1" gradientUnits="userSpaceOnUse" gradientTransform="matrix(22.22707 5.38674 -6.10973 25.21031 355.365 46.807)"><stop stop-color="#FFF7F7"/><stop offset="1" stop-color="#fff"/></radialGradient><radialGradient id="paint1_radial" cx="0" cy="0" r="1" gradientUnits="userSpaceOnUse" gradientTransform="matrix(22.22707 5.38674 -6.10973 25.21031 368.874 50.16)"><stop stop-color="#FFF7F7"/><stop offset="1" stop-color="#fff"/></radialGradient><radialGradient id="paint2_radial" cx="0" cy="0" r="1" gradientUnits="userSpaceOnUse" gradientTransform="rotate(13.63 -3.769 1535.214) scale(20.0993 29.0789)"><stop stop-color="#FFF7F7"/><stop offset="1" stop-color="#fff"/></radialGradient><radialGradient id="paint3_radial" cx="0" cy="0" r="1" gradientUnits="userSpaceOnUse" gradientTransform="rotate(13.623 -53.119 1561.733) scale(17.9561 20.3502)"><stop stop-color="#FFF7F7"/><stop offset="1" stop-color="#fff"/></radialGradient><radialGradient id="paint4_radial" cx="0" cy="0" r="1" gradientUnits="userSpaceOnUse" gradientTransform="rotate(13.623 -35.553 1491.168) scale(17.9561 20.3502)"><stop stop-color="#FFF7F7"/><stop offset="1" stop-color="#fff"/></radialGradient><radialGradient id="paint7_radial" cx="0" cy="0" r="1" gradientUnits="userSpaceOnUse" gradientTransform="rotate(-73.73 305.47 -16.045) scale(242.135 221.318)"><stop stop-color="green"/><stop offset="1" stop-color="#5EEB00"/></radialGradient><radialGradient id="paint8_radial" cx="0" cy="0" r="1" gradientUnits="userSpaceOnUse" gradientTransform="matrix(13.0029 -15.2722 18.39793 15.66418 256.897 370.073)"><stop stop-color="#fff"/><stop offset="1" stop-color="#5FC0ED"/></radialGradient><radialGradient id="paint12_radial" cx="0" cy="0" r="1" gradientUnits="userSpaceOnUse" gradientTransform="matrix(391.7251 116.71803 -103.41383 347.07402 518.078 333.942)"><stop stop-color="green"/><stop offset="1" stop-color="#5EEB00"/></radialGradient><radialGradient id="paint13_radial" cx="0" cy="0" r="1" gradientUnits="userSpaceOnUse" gradientTransform="rotate(-137.029 354.924 43.752) scale(58.3303 60.873)"><stop stop-color="#fff"/><stop offset="1" stop-color="#5FC0ED"/></radialGradient><radialGradient id="paint17_radial" cx="0" cy="0" r="1" gradientUnits="userSpaceOnUse" gradientTransform="matrix(24.44392 21.25927 -27.10725 31.16794 362.276 361.7)"><stop stop-color="#fff"/><stop offset="1" stop-color="#5FC0ED"/></radialGradient><radialGradient id="paint22_radial" cx="0" cy="0" r="1" gradientUnits="userSpaceOnUse" gradientTransform="matrix(219.27532 -97.74875 97.0179 217.63585 143.785 388.312)"><stop stop-color="green"/><stop offset="1" stop-color="#5EEB00"/></radialGradient><radialGradient id="paint23_radial" cx="0" cy="0" r="1" gradientUnits="userSpaceOnUse" gradientTransform="matrix(2.50905 -6.78576 33.90728 12.5373 178.177 200.94)"><stop stop-color="#008600"/><stop offset="1" stop-color="#3CC000"/></radialGradient><radialGradient id="paint25_radial" cx="0" cy="0" r="1" gradientUnits="userSpaceOnUse" gradientTransform="rotate(169.327 86.666 175.547) scale(69.0211 102.057)"><stop stop-color="#FF6E2F"/><stop offset=".115" stop-color="red"/><stop offset="1" stop-color="#B80000"/></radialGradient><radialGradient id="paint26_radial" cx="0" cy="0" r="1" gradientUnits="userSpaceOnUse" gradientTransform="rotate(69.52 -198.02 356.274) scale(6.36009 3.87374)"><stop stop-color="#9B7E2A"/><stop offset=".536" stop-color="#CDB42A"/><stop offset="1" stop-color="#FFEA2A"/></radialGradient><radialGradient id="paint28_radial" cx="0" cy="0" r="1" gradientUnits="userSpaceOnUse" gradientTransform="matrix(23.0905 67.46102 -43.43655 14.86742 161.23 299.203)"><stop stop-color="#fff"/><stop offset="1" stop-color="#fff" stop-opacity="0"/></radialGradient><radialGradient id="paint29_radial" cx="0" cy="0" r="1" gradientUnits="userSpaceOnUse" gradientTransform="matrix(23.09105 67.46073 -42.98304 14.71261 161.232 299.19)"><stop stop-color="#E50000"/><stop offset="1" stop-color="#FD0000" stop-opacity="0"/></radialGradient><radialGradient id="paint30_radial" cx="0" cy="0" r="1" gradientUnits="userSpaceOnUse" gradientTransform="matrix(.86744 -7.11196 36.2165 4.41732 225.887 203.773)"><stop stop-color="#008600"/><stop offset="1" stop-color="#3CC000"/></radialGradient><radialGradient id="paint32_radial" cx="0" cy="0" r="1" gradientUnits="userSpaceOnUse" gradientTransform="matrix(-6.32489 3.90816 -18.48122 -29.90963 218.371 217.495)"><stop stop-color="#008600"/><stop offset="1" stop-color="#3CC000"/></radialGradient><radialGradient id="paint34_radial" cx="0" cy="0" r="1" gradientUnits="userSpaceOnUse" gradientTransform="matrix(-6.83455 6.68121 -33.97241 -34.7521 241.304 210.296)"><stop stop-color="#008600"/><stop offset="1" stop-color="#3CC000"/></radialGradient><radialGradient id="paint37_radial" cx="0" cy="0" r="1" gradientUnits="userSpaceOnUse" gradientTransform="rotate(-93.368 187.873 -5.914) scale(14.6263 12.3334)"><stop stop-color="#008600"/><stop offset="1" stop-color="#3CC000"/></radialGradient><radialGradient id="paint38_radial" cx="0" cy="0" r="1" gradientUnits="userSpaceOnUse" gradientTransform="rotate(-99.796 177.499 36.1) scale(9.12027 49.9345)"><stop stop-color="#008600"/><stop offset="1" stop-color="#3CC000"/></radialGradient><radialGradient id="paint40_radial" cx="0" cy="0" r="1" gradientUnits="userSpaceOnUse" gradientTransform="rotate(-18.32 724.781 -1461.658) scale(77.2141 99.5737)"><stop stop-color="#007D00"/><stop offset="1" stop-color="#B6E468"/></radialGradient><radialGradient id="paint41_radial" cx="0" cy="0" r="1" gradientUnits="userSpaceOnUse" gradientTransform="matrix(42.6296 0 0 42.9201 497.287 154.13)"><stop stop-color="#FFF7F7"/><stop offset="1" stop-color="#fff"/></radialGradient><radialGradient id="paint42_radial" cx="0" cy="0" r="1" gradientUnits="userSpaceOnUse" gradientTransform="rotate(-66.407 329.474 -288.08) scale(97.1729 69.7199)"><stop stop-color="#FFF7F7"/><stop offset="1" stop-color="#fff"/></radialGradient><radialGradient id="paint43_radial" cx="0" cy="0" r="1" gradientUnits="userSpaceOnUse" gradientTransform="matrix(65.5527 0 0 55.7934 589.914 117.064)"><stop stop-color="#FFF7F7"/><stop offset="1" stop-color="#fff"/></radialGradient><radialGradient id="paint44_radial" cx="0" cy="0" r="1" gradientUnits="userSpaceOnUse" gradientTransform="matrix(65.5527 0 0 55.7934 402.28 126.718)"><stop stop-color="#FFF7F7"/><stop offset="1" stop-color="#fff"/></radialGradient><radialGradient id="paint45_radial" cx="0" cy="0" r="1" gradientUnits="userSpaceOnUse" gradientTransform="matrix(59.4126 0 0 61.1042 556.876 226.648)"><stop stop-color="#FFF7F7"/><stop offset="1" stop-color="#fff"/></radialGradient><radialGradient id="paint46_radial" cx="0" cy="0" r="1" gradientUnits="userSpaceOnUse" gradientTransform="matrix(39.4108 0 0 61.1041 425.878 242.221)"><stop stop-color="#FFF7F7"/><stop offset="1" stop-color="#fff"/></radialGradient><radialGradient id="paint47_radial" cx="0" cy="0" r="1" gradientUnits="userSpaceOnUse" gradientTransform="matrix(128.062 0 0 137.288 497.228 153.77)"><stop stop-color="#FF0"/><stop offset="1" stop-color="#FF0800"/></radialGradient><radialGradient id="paint48_radial" cx="0" cy="0" r="1" gradientUnits="userSpaceOnUse" gradientTransform="matrix(24.40938 -6.15975 6.8312 27.07017 502.647 181.584)"><stop stop-color="#FF0"/><stop offset="1" stop-color="#FF0800"/></radialGradient><radialGradient id="paint49_radial" cx="0" cy="0" r="1" gradientUnits="userSpaceOnUse" gradientTransform="matrix(-24.4903 -6.23248 6.86111 -26.96046 482.641 184.014)"><stop stop-color="#FF0"/><stop offset="1" stop-color="#FF0800"/></radialGradient><radialGradient id="paint50_radial" cx="0" cy="0" r="1" gradientUnits="userSpaceOnUse" gradientTransform="rotate(177.888 243.944 91.717) scale(25.5211 19.3217)"><stop stop-color="#FF0"/><stop offset="1" stop-color="#FF0800"/></radialGradient><radialGradient id="paint51_radial" cx="0" cy="0" r="1" gradientUnits="userSpaceOnUse" gradientTransform="matrix(17.63702 -17.76194 19.93714 19.79692 519.017 173.063)"><stop stop-color="#FF0"/><stop offset="1" stop-color="#FF0800"/></radialGradient><radialGradient id="paint52_radial" cx="0" cy="0" r="1" gradientUnits="userSpaceOnUse" gradientTransform="matrix(1.9573 -24.50355 28.5092 2.27727 523.65 153.731)"><stop stop-color="#FF0"/><stop offset="1" stop-color="#FF0800"/></radialGradient><radialGradient id="paint53_radial" cx="0" cy="0" r="1" gradientUnits="userSpaceOnUse" gradientTransform="matrix(-22.27497 11.46007 -9.04971 -17.58995 505.062 168.894)"><stop stop-color="#FF0"/><stop offset="1" stop-color="#FF0800"/></radialGradient><radialGradient id="paint54_radial" cx="0" cy="0" r="1" gradientUnits="userSpaceOnUse" gradientTransform="matrix(24.91588 -4.21205 4.63595 27.4234 489.739 123.54)"><stop stop-color="#FF0"/><stop offset="1" stop-color="#FF0800"/></radialGradient><radialGradient id="paint55_radial" cx="0" cy="0" r="1" gradientUnits="userSpaceOnUse" gradientTransform="matrix(-19.25922 15.98932 -17.94625 -21.61636 470.606 129.653)"><stop stop-color="#FF0"/><stop offset="1" stop-color="#FF0800"/></radialGradient><radialGradient id="paint56_radial" cx="0" cy="0" r="1" gradientUnits="userSpaceOnUse" gradientTransform="rotate(157.772 228.081 114.805) scale(25.1442 19.7125)"><stop stop-color="#FF0"/><stop offset="1" stop-color="#FF0800"/></radialGradient><radialGradient id="paint57_radial" cx="0" cy="0" r="1" gradientUnits="userSpaceOnUse" gradientTransform="matrix(23.65571 8.39659 -9.36745 26.39092 508.392 124.4)"><stop stop-color="#FF0"/><stop offset="1" stop-color="#FF0800"/></radialGradient><radialGradient id="paint58_radial" cx="0" cy="0" r="1" gradientUnits="userSpaceOnUse" gradientTransform="matrix(12.95287 21.39844 -24.05077 14.55838 521.366 139.855)"><stop stop-color="#FF0"/><stop offset="1" stop-color="#FF0800"/></radialGradient><radialGradient id="paint59_radial" cx="0" cy="0" r="1" gradientUnits="userSpaceOnUse" gradientTransform="rotate(-177.46 250.333 61.47) scale(25.5072 19.3404)"><stop stop-color="#FF0"/><stop offset="1" stop-color="#FF0800"/></radialGradient><radialGradient id="paint60_radial" cx="0" cy="0" r="1" gradientUnits="userSpaceOnUse" gradientTransform="matrix(10.64691 22.59665 -25.46401 11.99793 468.498 160.797)"><stop stop-color="#FF0"/><stop offset="1" stop-color="#FF0800"/></radialGradient><radialGradient id="paint61_radial" cx="0" cy="0" r="1" gradientUnits="userSpaceOnUse" gradientTransform="matrix(3.08559 -24.38627 28.38092 3.59103 462.98 142.271)"><stop stop-color="#FF0"/><stop offset="1" stop-color="#FF0800"/></radialGradient><radialGradient id="paint62_radial" cx="0" cy="0" r="1" gradientUnits="userSpaceOnUse" gradientTransform="rotate(-101.937 297.464 -117.822) scale(24.7016 19.8439)"><stop stop-color="#FF0"/><stop offset="1" stop-color="#FF0800"/></radialGradient><radialGradient id="paint63_radial" cx="0" cy="0" r="1" gradientUnits="userSpaceOnUse" gradientTransform="matrix(20.87868 13.81275 -15.49852 23.42682 479.829 174.951)"><stop stop-color="#FF0"/><stop offset="1" stop-color="#FF0800"/></radialGradient><radialGradient id="paint64_radial" cx="0" cy="0" r="1" gradientUnits="userSpaceOnUse" gradientTransform="matrix(25.3725 -1.80617 1.9622 27.56445 500.499 176.456)"><stop stop-color="#FF0"/><stop offset="1" stop-color="#FF0800"/></radialGradient><radialGradient id="paint65_radial" cx="0" cy="0" r="1" gradientUnits="userSpaceOnUse" gradientTransform="matrix(-15.59612 -19.56071 15.36994 -12.25473 482.053 161.181)"><stop stop-color="#FF0"/><stop offset="1" stop-color="#FF0800"/></radialGradient><radialGradient id="paint66_radial" cx="0" cy="0" r="1" gradientUnits="userSpaceOnUse" gradientTransform="matrix(25.6127 0 0 27.4587 508.299 156.119)"><stop stop-color="#FF0"/><stop offset="1" stop-color="#FF0800"/></radialGradient><radialGradient id="paint67_radial" cx="0" cy="0" r="1" gradientUnits="userSpaceOnUse" gradientTransform="matrix(25.6128 0 0 27.4586 494.402 161.667)"><stop stop-color="#FF0"/><stop offset="1" stop-color="#FF0800"/></radialGradient><radialGradient id="paint68_radial" cx="0" cy="0" r="1" gradientUnits="userSpaceOnUse" gradientTransform="matrix(25.6127 0 0 27.4586 487.181 150.017)"><stop stop-color="#FF0"/><stop offset="1" stop-color="#FF0800"/></radialGradient><radialGradient id="paint69_radial" cx="0" cy="0" r="1" gradientUnits="userSpaceOnUse" gradientTransform="matrix(25.6127 0 0 27.4586 466.074 151.903)"><stop stop-color="#FF0"/><stop offset="1" stop-color="#FF0800"/></radialGradient><radialGradient id="paint70_radial" cx="0" cy="0" r="1" gradientUnits="userSpaceOnUse" gradientTransform="matrix(25.6125 0 0 27.4586 475.796 168.545)"><stop stop-color="#FF0"/><stop offset="1" stop-color="#FF0800"/></radialGradient><radialGradient id="paint71_radial" cx="0" cy="0" r="1" gradientUnits="userSpaceOnUse" gradientTransform="matrix(25.6128 0 0 27.4587 481.075 129.825)"><stop stop-color="#FF0"/><stop offset="1" stop-color="#FF0800"/></radialGradient><radialGradient id="paint72_radial" cx="0" cy="0" r="1" gradientUnits="userSpaceOnUse" gradientTransform="matrix(25.6125 0 0 27.4587 478.575 141.252)"><stop stop-color="#FF0"/><stop offset="1" stop-color="#FF0800"/></radialGradient><radialGradient id="paint73_radial" cx="0" cy="0" r="1" gradientUnits="userSpaceOnUse" gradientTransform="matrix(25.6128 0 0 27.4587 491.634 139.921)"><stop stop-color="#FF0"/><stop offset="1" stop-color="#FF0800"/></radialGradient><radialGradient id="paint74_radial" cx="0" cy="0" r="1" gradientUnits="userSpaceOnUse" gradientTransform="matrix(25.6127 0 0 27.4586 498.298 151.903)"><stop stop-color="#FF0"/><stop offset="1" stop-color="#FF0800"/></radialGradient><radialGradient id="paint75_radial" cx="0" cy="0" r="1" gradientUnits="userSpaceOnUse" gradientTransform="matrix(25.6128 0 0 27.4586 499.135 125.387)"><stop stop-color="#FF0"/><stop offset="1" stop-color="#FF0800"/></radialGradient><radialGradient id="paint76_radial" cx="0" cy="0" r="1" gradientUnits="userSpaceOnUse" gradientTransform="matrix(25.6127 0 0 27.4586 505.241 143.36)"><stop stop-color="#FF0"/><stop offset="1" stop-color="#FF0800"/></radialGradient><radialGradient id="paint77_radial" cx="0" cy="0" r="1" gradientUnits="userSpaceOnUse" gradientTransform="matrix(25.6127 0 0 27.4587 513.021 133.597)"><stop stop-color="#FF0"/><stop offset="1" stop-color="#FF0800"/></radialGradient><radialGradient id="paint78_radial" cx="0" cy="0" r="1" gradientUnits="userSpaceOnUse" gradientTransform="matrix(25.6127 0 0 27.4586 514.404 146.578)"><stop stop-color="#FF0"/><stop offset="1" stop-color="#FF0800"/></radialGradient><radialGradient id="paint79_radial" cx="0" cy="0" r="1" gradientUnits="userSpaceOnUse" gradientTransform="matrix(25.6127 0 0 27.4586 516.358 161.667)"><stop stop-color="#FF0"/><stop offset="1" stop-color="#FF0800"/></radialGradient><radialGradient id="paint80_radial" cx="0" cy="0" r="1" gradientUnits="userSpaceOnUse" gradientTransform="matrix(25.6128 0 0 27.4586 488.297 167.99)"><stop stop-color="#FF0"/><stop offset="1" stop-color="#FF0800"/></radialGradient><linearGradient id="paint5_linear" x1="361.718" y1="-724.92" x2="443.679" y2="-719.16" gradientUnits="userSpaceOnUse"><stop stop-color="green"/><stop offset="1" stop-color="#5EEB00"/></linearGradient><linearGradient id="paint6_linear" x1="414.006" y1="-106.579" x2="374.23" y2="-113.494" gradientUnits="userSpaceOnUse"><stop stop-color="#008600"/><stop offset="1" stop-color="#3CC000"/></linearGradient><linearGradient id="paint9_linear" x1="246.578" y1="384.518" x2="252.902" y2="361.011" gradientUnits="userSpaceOnUse"><stop stop-color="#53BEEC"/><stop offset="1" stop-color="#53BEEC" stop-opacity="0"/></linearGradient><linearGradient id="paint10_linear" x1="240.458" y1="370.028" x2="249.854" y2="366.255" gradientUnits="userSpaceOnUse"><stop stop-color="#FBFFF9"/><stop offset="1" stop-color="#FBFFF9" stop-opacity="0"/></linearGradient><linearGradient id="paint11_linear" x1="242.217" y1="374.008" x2="248.35" y2="371.361" gradientUnits="userSpaceOnUse"><stop stop-color="#FBFFF9"/><stop offset="1" stop-color="#FBFFF9" stop-opacity="0"/></linearGradient><linearGradient id="paint14_linear" x1="536.486" y1="498.583" x2="475.843" y2="468.931" gradientUnits="userSpaceOnUse"><stop stop-color="#53BEEC"/><stop offset="1" stop-color="#53BEEC" stop-opacity="0"/></linearGradient><linearGradient id="paint15_linear" x1="580.267" y1="367.715" x2="566.675" y2="342.553" gradientUnits="userSpaceOnUse"><stop stop-color="#FBFFF9"/><stop offset="1" stop-color="#FBFFF9" stop-opacity="0"/></linearGradient><linearGradient id="paint16_linear" x1="584.183" y1="356.85" x2="575.771" y2="341.285" gradientUnits="userSpaceOnUse"><stop stop-color="#FBFFF9"/><stop offset="1" stop-color="#FBFFF9" stop-opacity="0"/></linearGradient><linearGradient id="paint18_linear" x1="338.898" y1="344.783" x2="377.064" y2="358.744" gradientUnits="userSpaceOnUse"><stop stop-color="#53BEEC"/><stop offset="1" stop-color="#53BEEC" stop-opacity="0"/></linearGradient><linearGradient id="paint19_linear" x1="364.071" y1="335.512" x2="369.532" y2="350.778" gradientUnits="userSpaceOnUse"><stop stop-color="#FBFFF9"/><stop offset="1" stop-color="#FBFFF9" stop-opacity="0"/></linearGradient><linearGradient id="paint20_linear" x1="356.955" y1="338.043" x2="360.787" y2="348.013" gradientUnits="userSpaceOnUse"><stop stop-color="#FBFFF9"/><stop offset="1" stop-color="#FBFFF9" stop-opacity="0"/></linearGradient><linearGradient id="paint21_linear" x1="274.709" y1="-879.958" x2="315.178" y2="-879.958" gradientUnits="userSpaceOnUse"><stop stop-color="#008600"/><stop offset="1" stop-color="#3CC000"/></linearGradient><linearGradient id="paint24_linear" x1="177.539" y1="205.444" x2="157.66" y2="169.45" gradientUnits="userSpaceOnUse"><stop stop-color="#008600"/><stop offset="1" stop-color="#3CC000"/></linearGradient><linearGradient id="paint27_linear" x1="208.118" y1="414.622" x2="204.03" y2="413.878" gradientUnits="userSpaceOnUse"><stop stop-color="#FDF5F8"/><stop offset="1" stop-color="#F5F5F2" stop-opacity="0"/></linearGradient><linearGradient id="paint31_linear" x1="224.389" y1="208.101" x2="258.831" y2="182.681" gradientUnits="userSpaceOnUse"><stop stop-color="#008600"/><stop offset="1" stop-color="#3CC000"/></linearGradient><linearGradient id="paint33_linear" x1="221.792" y1="214.288" x2="215.981" y2="255.262" gradientUnits="userSpaceOnUse"><stop stop-color="#008600"/><stop offset="1" stop-color="#3CC000"/></linearGradient><linearGradient id="paint35_linear" x1="244.53" y1="205.331" x2="248.996" y2="258.032" gradientUnits="userSpaceOnUse"><stop stop-color="#008600"/><stop offset="1" stop-color="#3CC000"/></linearGradient><linearGradient id="paint36_linear" x1="221.053" y1="171.452" x2="204.201" y2="165.939" gradientUnits="userSpaceOnUse"><stop stop-color="#008600"/><stop offset="1" stop-color="#3CC000"/></linearGradient><linearGradient id="paint39_linear" x1="174.361" y1="222.389" x2="129.35" y2="193.757" gradientUnits="userSpaceOnUse"><stop stop-color="#008600"/><stop offset="1" stop-color="#3CC000"/></linearGradient><filter id="filter0_f" x="240.276" y="359.912" width="26.084" height="24.982" filterUnits="userSpaceOnUse" color-interpolation-filters="sRGB"><feFlood flood-opacity="0" result="BackgroundImageFix"/><feBlend in="SourceGraphic" in2="BackgroundImageFix" result="shape"/><feGaussianBlur stdDeviation=".178" result="effect1_foregroundBlur"/></filter><filter id="filter1_f" x="543.374" y="293.238" width="78.203" height="75.914" filterUnits="userSpaceOnUse" color-interpolation-filters="sRGB"><feFlood flood-opacity="0" result="BackgroundImageFix"/><feBlend in="SourceGraphic" in2="BackgroundImageFix" result="shape"/><feGaussianBlur stdDeviation=".519" result="effect1_foregroundBlur"/></filter><filter id="filter2_f" x="337.636" y="334.77" width="42.511" height="42.053" filterUnits="userSpaceOnUse" color-interpolation-filters="sRGB"><feFlood flood-opacity="0" result="BackgroundImageFix"/><feBlend in="SourceGraphic" in2="BackgroundImageFix" result="shape"/><feGaussianBlur stdDeviation=".297" result="effect1_foregroundBlur"/></filter><filter id="filter3_f" x="200.339" y="407.969" width="9.352" height="18.304" filterUnits="userSpaceOnUse" color-interpolation-filters="sRGB"><feFlood flood-opacity="0" result="BackgroundImageFix"/><feBlend in="SourceGraphic" in2="BackgroundImageFix" result="shape"/><feGaussianBlur stdDeviation=".211" result="effect1_foregroundBlur"/></filter><filter id="filter4_f" x="138.362" y="242.674" width="59.348" height="161.327" filterUnits="userSpaceOnUse" color-interpolation-filters="sRGB"><feFlood flood-opacity="0" result="BackgroundImageFix"/><feBlend in="SourceGraphic" in2="BackgroundImageFix" result="shape"/><feGaussianBlur stdDeviation="1.486" result="effect1_foregroundBlur"/></filter><filter id="filter5_f" x="248.756" y="209.053" width="54.488" height="86.877" filterUnits="userSpaceOnUse" color-interpolation-filters="sRGB"><feFlood flood-opacity="0" result="BackgroundImageFix"/><feBlend in="SourceGraphic" in2="BackgroundImageFix" result="shape"/><feGaussianBlur stdDeviation="3.073" result="effect1_foregroundBlur"/></filter></defs></svg>