<svg width="101" height="252" fill="none" xmlns="http://www.w3.org/2000/svg"><path d="M35.57 122.19c-.85.67-.18.29-.4.39l-.01-.01-.03-.03-.07-.06-.15-.12a5.315 5.315 0 00-.97-.59c-.45-.22-.93-.38-1.41-.48-.96-.21-1.95-.19-2.89.03-1.89.44-3.59 1.56-5.09 2.89-1.52 1.32-2.87 2.87-4.11 4.52-1.26 1.63-2.41 3.37-3.49 5.15-1.07 1.78-2.1 3.75-3.13 5.63a37.28 37.28 0 01-3.6 5.37 55.45 55.45 0 01-4.36 4.86c-.77.77-1.62 1.51-2.42 2.23-.83.66-1.55 1.42-2.44 2.19l-.5-.27c.12-1.13.38-2.28.8-3.38.41-1.06.82-2.07 1.27-3.06.9-1.98 1.89-3.9 2.95-5.77a39.85 39.85 0 013.63-5.31c1.37-1.69 2.71-3.31 4.06-5.08 2.73-3.49 5.77-6.86 9.66-9.36 1.95-1.2 4.16-2.2 6.55-2.33 1.19-.07 2.4.11 3.49.56.54.23 1.05.52 1.51.87.23.17.45.36.65.56.1.1.2.2.3.31l.14.17.07.09.03.05.02.03.01.02c-.21.11.47-.26-.38.42l.31-.49zm32.21-9.04c2.67-5.75 5.53-11.35 8.42-16.92l8.68-16.68c2.87-5.56 5.76-11.1 8.44-16.73 1.34-2.82 2.66-5.64 3.83-8.53 1.2-2.88 2.27-5.8 3.03-8.88.09 3.18-.53 6.36-1.26 9.46-.78 3.09-1.75 6.13-2.88 9.1-2.23 5.95-4.88 11.72-7.81 17.33-1.49 2.79-2.99 5.57-4.57 8.31-1.61 2.72-3.2 5.45-4.92 8.09-3.37 5.33-6.95 10.54-10.96 15.45z" fill="#050504"/><path d="M26.19 34.62c-1.47 30.93 5.46 53.25 5.46 78.53s-22.77 87.2-2.73 99.95c20.03 12.75 59.19 10.24 61.01-59.08C91.75 84.7 69.85 25.51 55.3 10.94 40.76-3.62 28.02-3.62 26.19 34.62z" fill="#BBD28C" stroke="#276839" stroke-width="3.794" stroke-miterlimit="10"/><path d="M35.41 5.03s33.25 93.73 22.45 130.69c-10.8 36.96-12.11 65.12-10.86 76.1 1.25 10.98 21.61-3.06 21.61-3.06s19.51-77.44 5.56-124.07C60.22 38.05 55.36 34.36 55.19 18.26c-.08-7.05-4.88-12.29-4.88-12.29-6.82-1.71-14.89-.64 0 0" fill="#276839"/><path d="M35.41 5.03s33.25 93.73 22.45 130.69c-10.8 36.96-12.11 65.12-10.86 76.1 1.25 10.98 21.61-3.06 21.61-3.06s19.51-77.44 5.56-124.07C60.22 38.05 55.36 34.36 55.19 18.26c-.08-7.05-4.88-12.29-4.88-12.29-6.82-1.71-14.89-.64 0 0" stroke="#ABC872" stroke-width="2.137" stroke-miterlimit="10"/><path d="M30.86 20.37s19.06 96.92 15.42 113.62c-3.64 16.71 11.02 66.36-5.16 79.92-7.51 6.29-19.68-13.76-16.75-34 2.93-20.24 11.66-67.34 8.56-100.17-3.09-32.82-2.07-59.37-2.07-59.37z" fill="#437C53" stroke="#ABC872" stroke-width="1.897" stroke-miterlimit="10"/><path d="M25.71 216.43c-3.61 1.19-7.23 2.31-10.85 3.45l.35-1.37c3.66 3.09 7.26 6.26 10.89 9.39l5.46 4.68c1.84 1.53 3.67 3.08 5.39 4.76l1.36 1.33-1.2 1.37a77.51 77.51 0 01-2.76 2.99c-.92.99-1.9 1.94-2.87 2.9-1.97 1.88-3.98 3.74-6.21 5.4l-.29-.24c1.26-2.48 2.75-4.77 4.27-7.04.78-1.11 1.55-2.24 2.37-3.32.8-1.1 1.63-2.17 2.48-3.23l.16 2.7c-1.78-1.6-3.44-3.33-5.09-5.07l-5.01-5.16c-3.35-3.43-6.74-6.81-10.05-10.28l-1.04-1.09 1.39-.28c3.72-.76 7.43-1.54 11.16-2.25l.09.36zm42.26 2.66c.18 2.3.33 4.61.47 6.91l.42 6.91c.13 2.3.25 4.61.34 6.91.1 2.3.22 4.61.39 6.91l-3.5-.61c.22-.57.37-.74.58-1.05.21-.26.43-.51.68-.7.49-.41 1.04-.7 1.58-.87.27-.11.55-.18.8-.21.26-.04.53-.1.79-.12.48-.01 1.02-.03 1.46.05.95.09 1.78.37 2.6.63.77.34 1.56.65 2.26 1.06.72.38 1.41.82 2.05 1.28.67.44 1.29.94 1.89 1.45 1.21 1.02 2.31 2.16 3.32 3.37l-.22.31c-1.51-.5-2.89-1.15-4.31-1.69l-1.03-.44c-.35-.13-.7-.25-1.04-.39l-1.02-.41c-.34-.11-.69-.21-1.02-.34-1.34-.48-2.7-.81-3.87-.92-.31-.06-.55.01-.82-.03-.22.03-.49.02-.65.09-.09.02-.2.03-.25.07-.07.03-.15.05-.2.08-.07.02-.1.06-.15.08-.02-.01-.1.13-.02-.08l-3.5-.61c.17-2.3.29-4.61.39-6.91.1-2.3.21-4.61.34-6.91l.42-6.91c.14-2.3.29-4.61.47-6.91h.35z" fill="#050504"/><path d="M40.52 87.72c4.877 0 8.83-.51 8.83-1.14 0-.63-3.953-1.14-8.83-1.14-4.877 0-8.83.51-8.83 1.14 0 .63 3.953 1.14 8.83 1.14zm27.79-2.36c4.877 0 8.83-.51 8.83-1.14 0-.63-3.953-1.14-8.83-1.14-4.877 0-8.83.51-8.83 1.14 0 .63 3.953 1.14 8.83 1.14z" fill="#276839" stroke="#CCDBD0" stroke-width="4.33" stroke-miterlimit="10"/><path d="M40.52 86.59a7.49 7.49 0 100-14.98 7.49 7.49 0 000 14.98z" fill="#050504" stroke="#040504" stroke-width="1.459" stroke-miterlimit="10"/><path d="M39.67 76.74a2.13 2.13 0 100-4.26 2.13 2.13 0 000 4.26z" fill="#EBF2DE" stroke="#E4EDD2" stroke-width=".415" stroke-miterlimit="10"/><path d="M68.31 84.23a7.49 7.49 0 100-14.98 7.49 7.49 0 000 14.98z" fill="#050504" stroke="#040504" stroke-width="1.459" stroke-miterlimit="10"/><path d="M68.62 74.32a2.13 2.13 0 100-4.26 2.13 2.13 0 000 4.26z" fill="#EBF2DE" stroke="#E4EDD2" stroke-width=".415" stroke-miterlimit="10"/><path d="M28.37 69.2c1.01-1.71 2.22-3.29 3.53-4.81 1.33-1.49 2.78-2.89 4.41-4.11 1.62-1.2 3.4-2.4 5.49-2.82 2.05-.44 4.31-.26 6.11.75l-.05.18c-1.02.03-1.96.09-2.89.22-.92.15-1.81.38-2.68.67-.87.28-1.73.62-2.59.97-.87.34-1.72.77-2.53 1.27-1.63.99-3.16 2.2-4.59 3.52-1.45 1.3-2.8 2.73-4.05 4.25l-.16-.09zm53.79-1.99c-.85-1.59-2.05-2.98-3.45-4.02-1.39-1.07-2.97-1.81-4.61-2.27l-1.26-.24c-.41-.09-.86-.06-1.28-.1-.84-.1-1.7-.06-2.56-.18-.43-.09-.87-.04-1.3-.08-.44-.04-.88-.06-1.33-.12-.9-.02-1.81-.07-2.78-.26l-.05-.24c.83-.5 1.72-.87 2.63-1.2.93-.23 1.87-.45 2.84-.53 1.95-.16 3.9.39 5.71 1.1 1.82.73 3.48 1.82 4.81 3.21 1.31 1.4 2.35 3.03 2.86 4.84l-.23.09zM49.21 92.3c1.34 1.45 2.62 2.89 3.98 4.21.69.64 1.36 1.29 2.1 1.82.72.54 1.47 1.01 2.22 1.21.75.23 1.41.18 2.03-.21.63-.37 1.19-1.05 1.66-1.82.95-1.55 1.6-3.39 2.36-5.21.01 1.98-.23 3.97-1.05 5.89-.39.96-1.02 1.91-1.99 2.64-.48.37-1.1.59-1.73.7-.63.06-1.26.01-1.81-.17-2.23-.75-3.66-2.31-4.9-3.87-1.21-1.59-2.19-3.33-2.87-5.19z" fill="#040504"/></svg>