<svg width="20" height="20" fill="none" xmlns="http://www.w3.org/2000/svg"><path opacity=".8" d="M20 17.514c0 .66-1.054 1.292-2.929 1.758-1.875.466-4.419.728-7.071.728s-5.196-.262-7.071-.728C1.054 18.806 0 18.174 0 17.514c0-.659 1.054-1.291 2.929-1.758 1.875-.466 4.419-.728 7.071-.728s5.196.262 7.071.728c1.875.467 2.929 1.099 2.929 1.758z" fill="url(#paint0_radial)"/><path d="M9.611.002a.427.427 0 00-.203.092.448.448 0 00-.133.184L6.846 6.114l-6.12.58a.427.427 0 00-.228.1.464.464 0 00-.01.684l4.603 4.196-1.347 6.2a.464.464 0 00.163.47.425.425 0 00.483.023l5.278-3.252 5.278 3.238a.424.424 0 00.482-.024.465.465 0 00.163-.47l-1.347-6.184 4.604-4.196a.464.464 0 00-.01-.684.427.427 0 00-.229-.1l-6.12-.58L10.061.278a.445.445 0 00-.18-.216.423.423 0 00-.27-.06z" fill="#9C7F00"/><path d="M4.17 17.972l1.404-6.457-4.81-4.366 6.372-.614L9.665.455l2.533 6.078 6.372.608-4.805 4.37 1.41 6.456L9.67 14.59l-5.5 3.382z" fill="#EDD400"/><path d="M9.668.975L7.323 6.623a.21.21 0 01-.069.08.2.2 0 01-.1.036l-5.895.566 4.45 4.05a.213.213 0 01.056.204L4.46 17.54l5.11-3.136a.199.199 0 01.196 0l5.11 3.122-1.306-5.967a.218.218 0 01.056-.204l4.45-4.05-5.896-.566a.2.2 0 01-.099-.035.209.209 0 01-.07-.082L9.669.975h0z" stroke="url(#paint1_linear)"/><path opacity=".6" d="M9.668.452L7.14 6.535l-6.373.61 4.169 3.79C8.73 9.522 13.69 8.412 18.257 7.42l.31-.276-6.373-.61L9.667.452z" fill="url(#paint2_linear)"/><defs><linearGradient id="paint1_linear" x1="-1.113" y1=".743" x2="-1.113" y2="17.774" gradientUnits="userSpaceOnUse"><stop stop-color="#EEEEEC" stop-opacity=".8"/><stop offset="1" stop-color="#EEEEEC" stop-opacity="0"/></linearGradient><linearGradient id="paint2_linear" x1="5.264" y1="-16.229" x2="14.562" y2="31.429" gradientUnits="userSpaceOnUse"><stop stop-color="#fff"/><stop offset="1" stop-color="#fff" stop-opacity="0"/></linearGradient><radialGradient id="paint0_radial" cx="0" cy="0" r="1" gradientUnits="userSpaceOnUse" gradientTransform="matrix(10 0 0 2.48591 10 17.514)"><stop stop-color="#2E3436" stop-opacity=".594"/><stop offset="1" stop-color="#2E3436" stop-opacity="0"/></radialGradient></defs></svg>