<svg width="373" height="507" fill="none" xmlns="http://www.w3.org/2000/svg"><g filter="url(#filter0_f)"><path d="M319.88 472.43c0 6.847-56.788 12.398-126.84 12.398S66.2 479.277 66.2 472.43c0-6.847 56.788-12.398 126.84-12.398s126.84 5.551 126.84 12.398z" fill="#2B2200"/></g><path opacity=".84" d="M67.031 282.099c-28.02 77.985 4.83 164.266 87.668 191.521 42.45 16.007 56.983 4.621 87.778-.704 23.423-4.051 46.112-.829 67.324-11.435 28.111-30.154 42.6-65.099 45.857-103.851 5.184-25.923 2.676-48.241-3.756-69.285-9.995-50.185-49.354-76.467-67.49-120.638-11.783-66.881-40.536-83.063-104.319-76.966-26.705 2.434-50.179 13.823-57.764 40.305-13.085 25.004-39.883 115.19-55.298 151.056v-.003z" fill="#FC0" stroke="#000" stroke-width="1.888"/><path d="M67.031 282.099c-28.02 77.985 4.83 164.266 87.668 191.521 42.45 16.007 56.983 4.621 87.778-.704 23.423-4.051 46.112-.829 67.324-11.435 28.111-30.154 42.6-65.099 45.857-103.851 5.184-25.923 2.676-48.241-3.756-69.285-9.995-50.185-49.354-76.467-67.49-120.638-11.783-66.881-40.536-83.063-104.319-76.966-26.705 2.434-50.179 13.823-57.764 40.305-13.085 25.004-39.883 115.19-55.298 151.056v-.003z" fill="url(#paint0_radial)"/><path opacity=".69" d="M249.395 354.557c0 51.47-41.726 93.197-93.196 93.197s-93.197-41.727-93.197-93.197c0-51.47 41.727-93.197 93.197-93.197 51.47 0 93.196 41.727 93.196 93.197z" fill="url(#paint1_radial)"/><path opacity=".5" d="M228.624 150.653c0 33.743-27.355 61.098-61.098 61.098-33.744 0-61.099-27.355-61.099-61.098 0-33.743 27.355-61.099 61.099-61.099 33.743 0 61.098 27.356 61.098 61.099z" fill="url(#paint2_radial)"/><path d="M155.361 110.481c17.261-6.642 31.433-13.824 49.566-13.824" stroke="#000" stroke-width="1.888"/><path d="M67.031 282.099c-28.02 77.985 4.83 164.266 87.668 191.521 42.45 16.007 56.983 4.621 87.778-.704 23.423-4.051 46.112-.829 67.324-11.435 28.111-30.154 42.6-65.099 45.857-103.851 5.184-25.923 2.676-48.241-3.756-69.285-9.995-50.185-49.354-76.467-67.49-120.638-11.783-66.881-40.536-83.063-104.319-76.966-26.705 2.434-50.179 13.823-57.764 40.305-13.085 25.004-39.883 115.19-55.298 151.056v-.003z" fill="url(#paint3_radial)" stroke="#D4AA00" stroke-width="1.888"/><g filter="url(#filter1_f)"><path d="M67.466 269.298c10.93-2.579 34.027.305 41.961-7.63 4.089-4.089-1.143-19.256-1.907-23.842-5.354-32.124 12.786-78.166 8.583-99.184l-47.685 58.176-.954 72.48h.002z" fill="#540"/></g><path d="M172.903 102.72l-3.035-45.182-1.011-1.686c-6.769-4.063-11.621-16.49-1.349-18.545v-1.349c-.62-9.03.8-8.732 6.743-13.487l1.686-1.349c4.386-5.868 6.898-13.708 14.836-7.755l1.349-1.348c9.395-9.232 17.759-12.903 31.695-10.116l1.686.338c5.513 1.151 0 3.486 0 6.069l1.686.337c2.404 1.097 1.647 2.796 1.012 4.383l-2.023.338c-18.412 4.441-11.94-1.84-20.905 10.115l-1.348 1.011c-1.481-2.31-6.744 7.465-6.744 4.72 0-2.05 8.06 4.466 4.721 12.814v1.685c6.567 8.895 3.892 21.449-2.023 29.336l-1.349 2.022c-16.397 3.232-8.81-3.648-13.15-14.498v1.686c3.927 13.215 2.023 22.107 2.023 36.347l-14.499 4.114h-.001z" fill="#520"/><g filter="url(#filter2_f)"><path d="M205.908 10.84c-6.388 1.8-11.368 12.993-16.108 11.817-1.345-4.152-5.005-4.608-5.665-.015-2.566 5.726-12.608 7.379-8.792 14.751 1.471 5.612-9.922 5.901-4.071 10.326 2.857 2.18 6.459 9.342 6.786 9.913-.136-5.787 2.373-10.979 4.248-16.403 6.377 6.884 10.815 17.987 12.745 25.432 7.453-9.458-1.955-20.036-.295-30.389-5.476-2.538-7.659-10.809-.944-13.512 3.736-3.872 9.274-8.677 12.096-11.92zm-27.734 53.048c1.051 8.615-.248 21.089 1.948 27.792.626-9.44-.184-19.12-1.83-28.44l-.118.65v-.002z" fill="#A40"/><path d="M205.908 10.84c-6.388 1.8-11.368 12.993-16.108 11.817-1.345-4.152-5.005-4.608-5.665-.015-2.566 5.726-12.608 7.379-8.792 14.751 1.471 5.612-9.922 5.901-4.071 10.326 2.857 2.18 6.459 9.342 6.786 9.913-.136-5.787 2.373-10.979 4.248-16.403 6.377 6.884 10.815 17.987 12.745 25.432 7.453-9.458-1.955-20.036-.295-30.389-5.476-2.538-7.659-10.809-.944-13.512 3.736-3.872 9.274-8.677 12.096-11.92h0zm-27.734 53.048c1.051 8.615-.248 21.089 1.948 27.792.626-9.44-.184-19.12-1.83-28.44l-.118.65v-.002z" stroke="#A40" stroke-width="1.888"/></g><path d="M171.543 72.377c-4.854-.54-24.259 5.724-37.09 12.139-4.347 2.173-30.396-4.421-23.602.674l-3.372-.674C58.618 82.022 19.525 94.893-2.035 122.21c-2.269 2.875-11.896 13.463-13.768 16.657-1.737 2.964 4.255-1.488 2.875 1.749-4.528 10.625-7.092 22.715-7.436 36.242-.068 2.686-3.825 16.758-3.717 19.558.11 2.825 4.088-5.622 4.382-2.682.792 7.914 2.26 16.242 4.445 24.979 3.133 12.532 1.644 26.512 6.069 39.786 3.567 10.702-6.377 53.429-15.915 51.522h3.372c21.892-2.469 41.56-6.837 57.305-14.006 29.805-14.281 45.662-50.717 59.97-79.862 12.566-26.827 20.941-56.602 17.327-79.712l.675-3.372c3.07-10.699 9.411-28.36 21.582-39.11 8.434-7.448 24.067-17.079 37.086-18.21l-.674-3.372z" fill="url(#paint4_radial)"/><path d="M-15.238 307.042c13.288-9.13 31.749-38.953 42.215-60.692 25.738-53.457 87.675-172.493 142.289-172.23" stroke="#0F0" stroke-width="1.888"/><g filter="url(#filter3_f)"><path d="M-15.238 307.042c13.288-9.13 31.749-38.953 42.215-60.692 25.738-53.457 87.675-172.493 142.289-172.23" stroke="#0F0" stroke-width="1.888"/></g><g filter="url(#filter4_f)"><path d="M52.398 190.031l-26.005-8.81-9.657-10.405 9.657 10.405-17.124.391-12.14 6.838 12.14-6.838 17.124-.391 26.005 8.81zm0 0L31.703 205.14l-21.53-.204-13.66-9.248 13.66 9.248-16.975 8.485-6.074 13.008 6.074-13.008 16.976-8.485 21.529.204-9.404 19.156-12.518 9.603 12.518-9.603-1.449 15.039-8.552 10.502 8.552-10.502 1.45-15.039 9.403-19.156 20.695-15.109z" stroke="#0F0" stroke-width=".997"/></g><g filter="url(#filter5_f)"><path d="M86.385 140.938l-26.004-8.81-9.657-10.405 9.657 10.405-17.124.39-12.14 6.839 12.14-6.839 17.124-.39 26.004 8.81zm0 0l-20.694 15.109-21.53-.204-13.66-9.248 13.66 9.248-16.975 8.485-6.074 13.008 6.074-13.008 16.975-8.485 21.53.204-9.404 19.156-12.518 9.603 12.518-9.603-1.45 15.039-8.552 10.502 8.553-10.502 1.449-15.039 9.404-19.156 20.694-15.109z" stroke="#0F0" stroke-width=".997"/></g><g filter="url(#filter6_f)"><path d="M95.996 124.076l-26.644-16.815-7.979-14.203 7.979 14.203-19.209-4.165-15.381 4.368 15.381-4.368 19.209 4.165 26.644 16.815zm0 0L68.85 135.373l-23.965-6.012-12.757-13.988 12.757 13.988-21.218 4.906-10.272 12.881 10.272-12.881 21.218-4.906 23.965 6.012-15.638 18.845-16.547 7.35 16.547-7.35-5.658 16.388-12.363 9.42 12.363-9.42 5.657-16.388 15.639-18.845 27.146-11.297z" stroke="#0F0" stroke-width="1.144"/></g><g filter="url(#filter7_f)"><path d="M33.969 243.467l11.543 16.89 3.457 14.267-3.457-14.267 8.322 4.184 6.664-4.387-6.664 4.387-8.322-4.184-11.543-16.89zm0 0l11.76-11.348 10.383 6.039 5.526 14.051-5.526-14.051 9.193-4.928 4.45-12.938-4.45 12.938-9.193 4.928-10.382-6.039 6.775-18.929 7.168-7.383-7.168 7.383 2.45-16.462 5.357-9.462-5.357 9.462-2.45 16.462-6.775 18.929-11.761 11.348z" stroke="#0F0" stroke-width=".755"/></g><g filter="url(#filter8_f)"><path d="M68.202 176.323l15.651-13.174 7.158-12.818-7.158 12.818 9.14-1.799 5.242 6.015-5.242-6.015-9.14 1.799-15.651 13.174zm0 0l8.285 14.086 11.622-3.032 9.094-12.053-9.094 12.053 7.534 7.213.815 13.658-.816-13.658-7.533-7.213-11.622 3.032 1.449 20.053 4.924 9.036-4.924-9.036-2.056 16.516 2.622 10.552-2.622-10.552 2.056-16.516-1.449-20.053-8.285-14.086z" stroke="#0F0" stroke-width=".755"/></g><g filter="url(#filter9_f)"><path d="M.227 236.745l15.651-13.174 7.157-12.817-7.157 12.817 9.14-1.798 5.242 6.014-5.242-6.014-9.14 1.798L.227 236.745zm0 0l8.285 14.087 11.622-3.032 9.093-12.053-9.093 12.053 7.533 7.213.816 13.658-.816-13.658-7.533-7.213-11.622 3.032 1.449 20.053 4.924 9.035-4.924-9.035-2.056 16.516 2.622 10.552-2.622-10.552 2.056-16.516-1.449-20.053-8.285-14.087" stroke="#0F0" stroke-width=".755"/></g><g filter="url(#filter10_f)"><path d="M69.561 146.734L42.917 129.92l-7.979-14.204 7.98 14.204-19.21-4.165-15.381 4.367 15.381-4.367 19.21 4.165 26.643 16.814zm0 0l-27.146 11.298-23.965-6.012-12.757-13.988L18.45 152.02l-21.218 4.905-10.271 12.881 10.271-12.881 21.218-4.905 23.965 6.012-15.638 18.844-16.547 7.351 16.547-7.351-5.658 16.389-12.363 9.419 12.363-9.419 5.658-16.389 15.638-18.844 27.146-11.298z" stroke="#0F0" stroke-width="1.144"/></g><g filter="url(#filter11_f)"><path d="M249.548 479.98c0 3.05-25.296 5.522-56.501 5.522s-56.501-2.472-56.501-5.522c0-3.05 25.296-5.523 56.501-5.523s56.501 2.473 56.501 5.523z" fill="#2B2200"/></g><g filter="url(#filter12_f)"><path d="M189.481 327.813c0 25.698-18.115 46.531-40.462 46.531-22.347 0-40.462-20.833-40.462-46.531 0-25.699 18.115-46.531 40.462-46.531 22.347 0 40.462 20.832 40.462 46.531z" fill="#FFF6D5"/></g><g filter="url(#filter13_f)"><path d="M221.379 161.67c0 26.765-18.867 48.462-42.141 48.462-23.275 0-42.142-21.697-42.142-48.462 0-26.765 18.867-48.462 42.142-48.462 23.274 0 42.141 21.697 42.141 48.462z" fill="#FFF6D5"/></g><g filter="url(#filter14_f)"><path d="M214.028 470.919c42.803-17.365 99.113-69.797 117.338-195.56l1.349 6.743c23.215 51.584-15.491 180.204-118.687 188.82v-.003z" fill="olive"/><path d="M214.028 470.919c42.803-17.365 99.113-69.797 117.338-195.56l1.349 6.743c23.215 51.584-15.491 180.204-118.687 188.82v-.003z" stroke="#000" stroke-width="1.888"/></g><g filter="url(#filter15_f)"><path d="M252.953 468.174c31.682-12.853 73.36-51.661 86.849-144.746l.999 4.991c17.183 38.18-11.466 133.38-87.848 139.757v-.002z" fill="#FC0"/></g><defs><filter id="filter0_f" x="44.215" y="438.047" width="297.65" height="68.766" filterUnits="userSpaceOnUse" color-interpolation-filters="sRGB"><feFlood flood-opacity="0" result="BackgroundImageFix"/><feBlend in="SourceGraphic" in2="BackgroundImageFix" result="shape"/><feGaussianBlur stdDeviation="10.992" result="effect1_foregroundBlur"/></filter><filter id="filter1_f" x="47.604" y="118.782" width="88.997" height="170.377" filterUnits="userSpaceOnUse" color-interpolation-filters="sRGB"><feFlood flood-opacity="0" result="BackgroundImageFix"/><feBlend in="SourceGraphic" in2="BackgroundImageFix" result="shape"/><feGaussianBlur stdDeviation="9.93" result="effect1_foregroundBlur"/></filter><filter id="filter2_f" x="164.54" y="5.831" width="46.313" height="90.243" filterUnits="userSpaceOnUse" color-interpolation-filters="sRGB"><feFlood flood-opacity="0" result="BackgroundImageFix"/><feBlend in="SourceGraphic" in2="BackgroundImageFix" result="shape"/><feGaussianBlur stdDeviation="2.05" result="effect1_foregroundBlur"/></filter><filter id="filter3_f" x="-18.923" y="70.025" width="191.343" height="240.946" filterUnits="userSpaceOnUse" color-interpolation-filters="sRGB"><feFlood flood-opacity="0" result="BackgroundImageFix"/><feBlend in="SourceGraphic" in2="BackgroundImageFix" result="shape"/><feGaussianBlur stdDeviation="1.575" result="effect1_foregroundBlur"/></filter><filter id="filter4_f" x="-17.956" y="165.848" width="76.052" height="88.933" filterUnits="userSpaceOnUse" color-interpolation-filters="sRGB"><feFlood flood-opacity="0" result="BackgroundImageFix"/><feBlend in="SourceGraphic" in2="BackgroundImageFix" result="shape"/><feGaussianBlur stdDeviation="2.314" result="effect1_foregroundBlur"/></filter><filter id="filter5_f" x="18.21" y="118.933" width="71.695" height="84.576" filterUnits="userSpaceOnUse" color-interpolation-filters="sRGB"><feFlood flood-opacity="0" result="BackgroundImageFix"/><feBlend in="SourceGraphic" in2="BackgroundImageFix" result="shape"/><feGaussianBlur stdDeviation="1.225" result="effect1_foregroundBlur"/></filter><filter id="filter6_f" x="8.789" y="88.618" width="92.605" height="96.022" filterUnits="userSpaceOnUse" color-interpolation-filters="sRGB"><feFlood flood-opacity="0" result="BackgroundImageFix"/><feBlend in="SourceGraphic" in2="BackgroundImageFix" result="shape"/><feGaussianBlur stdDeviation="2.08" result="effect1_foregroundBlur"/></filter><filter id="filter7_f" x="31.386" y="184.989" width="40.816" height="91.815" filterUnits="userSpaceOnUse" color-interpolation-filters="sRGB"><feFlood flood-opacity="0" result="BackgroundImageFix"/><feBlend in="SourceGraphic" in2="BackgroundImageFix" result="shape"/><feGaussianBlur stdDeviation="1.046" result="effect1_foregroundBlur"/></filter><filter id="filter8_f" x="64.397" y="146.829" width="37.441" height="94.11" filterUnits="userSpaceOnUse" color-interpolation-filters="sRGB"><feFlood flood-opacity="0" result="BackgroundImageFix"/><feBlend in="SourceGraphic" in2="BackgroundImageFix" result="shape"/><feGaussianBlur stdDeviation="1.659" result="effect1_foregroundBlur"/></filter><filter id="filter9_f" x="-3.357" y="207.473" width="36.998" height="93.667" filterUnits="userSpaceOnUse" color-interpolation-filters="sRGB"><feFlood flood-opacity="0" result="BackgroundImageFix"/><feBlend in="SourceGraphic" in2="BackgroundImageFix" result="shape"/><feGaussianBlur stdDeviation="1.548" result="effect1_foregroundBlur"/></filter><filter id="filter10_f" x="-16.686" y="112.236" width="90.685" height="94.103" filterUnits="userSpaceOnUse" color-interpolation-filters="sRGB"><feFlood flood-opacity="0" result="BackgroundImageFix"/><feBlend in="SourceGraphic" in2="BackgroundImageFix" result="shape"/><feGaussianBlur stdDeviation="1.6" result="effect1_foregroundBlur"/></filter><filter id="filter11_f" x="126.753" y="464.664" width="132.588" height="30.632" filterUnits="userSpaceOnUse" color-interpolation-filters="sRGB"><feFlood flood-opacity="0" result="BackgroundImageFix"/><feBlend in="SourceGraphic" in2="BackgroundImageFix" result="shape"/><feGaussianBlur stdDeviation="4.897" result="effect1_foregroundBlur"/></filter><filter id="filter12_f" x="71.462" y="244.187" width="155.114" height="167.251" filterUnits="userSpaceOnUse" color-interpolation-filters="sRGB"><feFlood flood-opacity="0" result="BackgroundImageFix"/><feBlend in="SourceGraphic" in2="BackgroundImageFix" result="shape"/><feGaussianBlur stdDeviation="18.547" result="effect1_foregroundBlur"/></filter><filter id="filter13_f" x="98.462" y="74.573" width="161.551" height="174.192" filterUnits="userSpaceOnUse" color-interpolation-filters="sRGB"><feFlood flood-opacity="0" result="BackgroundImageFix"/><feBlend in="SourceGraphic" in2="BackgroundImageFix" result="shape"/><feGaussianBlur stdDeviation="19.317" result="effect1_foregroundBlur"/></filter><filter id="filter14_f" x="180.15" y="242.387" width="192.806" height="262.331" filterUnits="userSpaceOnUse" color-interpolation-filters="sRGB"><feFlood flood-opacity="0" result="BackgroundImageFix"/><feBlend in="SourceGraphic" in2="BackgroundImageFix" result="shape"/><feGaussianBlur stdDeviation="16.393" result="effect1_foregroundBlur"/></filter><filter id="filter15_f" x="235.348" y="305.823" width="127.876" height="179.958" filterUnits="userSpaceOnUse" color-interpolation-filters="sRGB"><feFlood flood-opacity="0" result="BackgroundImageFix"/><feBlend in="SourceGraphic" in2="BackgroundImageFix" result="shape"/><feGaussianBlur stdDeviation="8.802" result="effect1_foregroundBlur"/></filter><radialGradient id="paint0_radial" cx="0" cy="0" r="1" gradientUnits="userSpaceOnUse" gradientTransform="rotate(149.376 61.704 275.871) scale(89.1396 45.7019)"><stop stop-color="#A80"/><stop offset="1" stop-color="#D4AA00" stop-opacity="0"/></radialGradient><radialGradient id="paint1_radial" cx="0" cy="0" r="1" gradientUnits="userSpaceOnUse" gradientTransform="matrix(100.3169 -10.93385 10.09797 92.64782 149.138 365.467)"><stop stop-color="#FFF6D5"/><stop offset="1" stop-color="#FFF6D5" stop-opacity="0"/></radialGradient><radialGradient id="paint2_radial" cx="0" cy="0" r="1" gradientUnits="userSpaceOnUse" gradientTransform="rotate(-6.22 1533.58 -1420.086) scale(66.1559 61.0984)"><stop stop-color="#fff"/><stop offset="1" stop-color="#FFF6D5" stop-opacity="0"/></radialGradient><radialGradient id="paint3_radial" cx="0" cy="0" r="1" gradientUnits="userSpaceOnUse" gradientTransform="rotate(149.376 122.105 126.407) scale(89.1396 45.7019)"><stop stop-color="#A80"/><stop offset="1" stop-color="#D4AA00" stop-opacity="0"/></radialGradient><radialGradient id="paint4_radial" cx="0" cy="0" r="1" gradientUnits="userSpaceOnUse" gradientTransform="rotate(93.378 -48.875 108.87) scale(194.553 119.811)"><stop stop-color="#55D400"/><stop offset="1" stop-color="#050"/></radialGradient></defs></svg>