<svg width="48" height="48" fill="none" xmlns="http://www.w3.org/2000/svg"><path opacity=".631" fill-rule="evenodd" clip-rule="evenodd" d="M42.975 42.375c0 .739-.479 1.47-1.408 2.153-.929.682-2.29 1.302-4.007 1.825-1.717.522-3.755.936-5.998 1.219a57.122 57.122 0 01-7.075.428 57.06 57.06 0 01-7.074-.428c-2.243-.283-4.281-.697-5.998-1.22-1.717-.522-3.079-1.142-4.008-1.824C6.478 43.845 6 43.114 6 42.375c0-.739.478-1.47 1.407-2.153.93-.682 2.291-1.302 4.008-1.825 1.717-.522 3.755-.936 5.998-1.219a57.122 57.122 0 017.074-.428c2.428 0 4.832.145 7.075.428 2.243.283 4.281.697 5.998 1.22 1.717.522 3.078 1.142 4.007 1.824.93.683 1.408 1.414 1.408 2.153z" fill="url(#paint0_radial)"/><path d="M44.53 23.999a20.527 20.527 0 11-41.059 0c0-5.446 2.164-10.67 6.014-14.52a20.527 20.527 0 0135.046 14.52z" fill="url(#paint1_radial)" stroke="#204A87" stroke-width=".939"/><path opacity=".96" d="M42.706 24.001A18.71 18.71 0 0124 42.71 18.705 18.705 0 015.294 24 18.71 18.71 0 0124 5.293 18.705 18.705 0 0142.706 24v0z" stroke="#fff" stroke-width="2.592"/><path d="M24.52 13.455c-.9 0-1.825.103-2.789.287a24.96 24.96 0 00-3.187.835h-.027l-.026.027-.027.026a.104.104 0 000 .026v4.332a.104.104 0 000 .026v.027l.027.026.026.026h.107c.97-.6 1.898-1.059 2.788-1.358.891-.308 1.737-.47 2.497-.47.807 0 1.398.177 1.832.523.433.335.664.82.664 1.435 0 .402-.122.795-.371 1.2-.24.408-.63.862-1.169 1.332l-.93.783c-1.02.902-1.69 1.663-2.018 2.27-.326.595-.478 1.27-.478 2.036v.679a.114.114 0 000 .026v.026l.026.026.027.026h5.285l.027-.026.026-.026a.114.114 0 000-.026v-.652c0-.391.127-.746.32-1.07.188-.327.6-.794 1.247-1.358l.903-.783c.907-.82 1.556-1.574 1.94-2.296.382-.723.584-1.565.584-2.48 0-1.776-.633-3.119-1.886-4.046-1.254-.936-3.065-1.409-5.418-1.409zm-3.028 16l-.027.026-.026.026a.114.114 0 000 .026v4.906a.114.114 0 000 .027v.026l.026.026.027.026h5.285l.027-.026.026-.026a.114.114 0 000-.026v-4.907a.114.114 0 000-.026v-.026l-.026-.027-.027-.026h-5.285z" fill="url(#paint2_radial)" stroke="#fff" stroke-opacity=".786" stroke-width=".926"/><defs><radialGradient id="paint0_radial" cx="0" cy="0" r="1" gradientUnits="userSpaceOnUse" gradientTransform="matrix(18.4874 0 0 5.62502 24.487 42.375)"><stop/><stop offset="1" stop-opacity="0"/></radialGradient><radialGradient id="paint1_radial" cx="0" cy="0" r="1" gradientUnits="userSpaceOnUse" gradientTransform="matrix(26.0025 .12507 -.13652 28.38257 25.674 28.733)"><stop stop-color="#9CBCDE"/><stop offset="1" stop-color="#204A87"/></radialGradient><radialGradient id="paint2_radial" cx="0" cy="0" r="1" gradientUnits="userSpaceOnUse" gradientTransform="matrix(33.0764 0 0 50.201 25.143 17.795)"><stop stop-color="#fff"/><stop offset="1" stop-color="#B8B8B8"/></radialGradient></defs></svg>