<svg viewBox="0 0 300 500" xmlns="http://www.w3.org/2000/svg"><defs><linearGradient id="l" x1="393.81" x2="366.48" y1="257.79" y2="227.09" gradientTransform="translate(0 200)" gradientUnits="userSpaceOnUse"><stop stop-color="#e6e6e6" offset="0"/><stop stop-color="#666" offset="1"/></linearGradient><linearGradient id="k" x1="437.14" x2="364.32" y1="238.4" y2="251.7" gradientTransform="translate(0 200)" gradientUnits="userSpaceOnUse"><stop stop-color="#fff" offset="0"/></linearGradient><linearGradient id="j" x1="383.53" x2="418.5" y1="188.56" y2="186.99" gradientTransform="translate(0 200)" gradientUnits="userSpaceOnUse"><stop stop-color="#fff" stop-opacity=".512" offset=".5"/></linearGradient><linearGradient id="i" x1="410" x2="415.65" y1="123.42" y2="146.8" gradientTransform="translate(0 200)" gradientUnits="userSpaceOnUse"><stop stop-color="#ccc" offset="0"/><stop stop-color="#fff" offset="1"/></linearGradient><linearGradient id="h" x1="-22.476" x2="-17.907" y1="146.28" y2="65.572" gradientUnits="userSpaceOnUse"><stop stop-color="#fff" offset="0"/><stop stop-color="#fff" offset="1"/></linearGradient><linearGradient id="g" x1="-20.587" x2="-17.677" y1="147.14" y2="73.131" gradientUnits="userSpaceOnUse"><stop stop-color="#d0d0d0" offset="0"/><stop stop-color="#ccdbd4" offset="1"/></linearGradient><linearGradient id="f" x1="353.61" x2="456.76" y1="86.721" y2="86.721" gradientTransform="translate(0 200)" gradientUnits="userSpaceOnUse"><stop stop-color="#6d6d6d" offset="0"/><stop stop-color="#b7b7b7" offset=".5"/><stop stop-color="#797979" offset="1"/></linearGradient><linearGradient id="e" x1="405.48" x2="406.59" y1="122.57" y2="84.37" gradientTransform="translate(0 200)" gradientUnits="userSpaceOnUse"><stop stop-color="#999" offset="0"/></linearGradient><linearGradient id="d" x1="399.48" x2="399.04" y1="118.97" y2="80.971" gradientTransform="translate(0 199)" gradientUnits="userSpaceOnUse"><stop stop-color="#b3b3b3" offset="0"/></linearGradient><linearGradient id="c" x1="428.95" x2="462.81" y1="-51.545" y2="68.996" gradientTransform="translate(46.847 267.19) scale(.79784)" gradientUnits="userSpaceOnUse"><stop stop-color="#f9f9f9" offset="0"/><stop stop-color="#ccc" offset="1"/></linearGradient><filter id="o" color-interpolation-filters="sRGB"><feGaussianBlur stdDeviation=".161"/></filter><filter id="n" color-interpolation-filters="sRGB"><feGaussianBlur stdDeviation=".197"/></filter><filter id="m" color-interpolation-filters="sRGB"><feGaussianBlur stdDeviation=".199"/></filter><radialGradient id="b" cx="308.41" cy="364.1" r="79.42" gradientTransform="matrix(.93799 0 0 .24684 19.125 274.22)" gradientUnits="userSpaceOnUse"><stop offset="0"/></radialGradient><radialGradient id="a" cx="428.74" cy="-.115" r="32.311" gradientTransform="matrix(2.5276 1.0206 -.13885 1.9334 -671.45 -142.1)" gradientUnits="userSpaceOnUse"><stop stop-color="#e6e6e6" offset="0"/></radialGradient></defs><path transform="matrix(.88307 0 0 1.71818 -120.715 -232.069)" d="M387.83 364.1c0 12.691-35.558 22.979-79.42 22.979-43.863 0-79.42-10.288-79.42-22.979 0-12.691 35.558-22.979 79.42-22.979 43.863 0 79.42 10.288 79.42 22.979z" fill="url(#b)"/><path d="M370.76 426.38a16.717 16.717 0 00-.336 3.352c0 13.621 17.469 24.67 37.821 24.67 20.352 0 36.843-11.049 36.843-24.67 0-1.14-.112-2.253-.336-3.352-13.03 15.622-20.258 19.858-35.95 20.361-15.464.496-35.603-8.323-38.042-20.361z" fill="url(#l)" transform="translate(-438.33 -239.34) scale(1.4497)"/><path d="M442.41 432.31c-8.881 11.003-22.889 18.092-37.25 16.281-11.459-.67-23.253-4.488-31.312-12.938 6.574 13.059 23.018 17.023 36.562 16.688 13.135-.335 29.562-6.502 32.531-20.656l-.531.625z" fill="url(#k)" transform="translate(-438.33 -239.34) scale(1.4497)"/><path d="M99.364 387.322L65.465 217.837l165.397-18.118-23.962 179.43s-19.784 33.8-59.03 31.56c-36.678-2.094-48.508-23.378-48.508-23.378z" fill="#d40000"/><path d="M226.85 203.587L69.514 220.802l33.071 165.179c.258.455 2.67 4.577 9.332 9.514 7.04 5.216 18.409 10.768 36.107 11.778 36.271 2.07 54.619-27.815 55.54-29.356L226.85 203.59z" fill="red" opacity=".5"/><path d="M422.5 329.88l-41.938 4.031 11.375 110.03c3.551 1.05 7.696 1.818 12.531 2.094 5.084.29 9.653-.35 13.719-1.531l4.313-114.62z" fill="url(#j)" opacity=".766" transform="translate(-438.33 -239.34) scale(1.4497)"/><path d="M461.59 302.88L347.5 315.349l1.969 9.875c10.682 8.373 24.242 16.194 57.816 14.984 25.117-.905 42.259-9.587 51.829-19.48z" fill="url(#i)" transform="translate(-438.33 -239.34) scale(1.4497)"/><path transform="matrix(.90883 -.05899 .07827 1.2873 160.077 50.875)" d="M78.109 111c0 21.254-45.309 38.484-101.2 38.484-55.891 0-101.2-17.23-101.2-38.484s45.309-38.484 101.2-38.484c55.891 0 101.2 17.23 101.2 38.484z" fill="url(#h)"/><path d="M409.59 267.56c28.664.488 51.339 12.13 52.312 27.875 1.075 17.373-24.653 33.157-57.469 35.25-2.051.13-4.09.199-6.094.219 2.648.021 5.36-.045 8.094-.219 32.816-2.094 58.543-17.877 57.469-35.25-.997-16.11-24.706-27.91-54.312-27.875z" fill="gray" filter="url(#o)" transform="translate(-438.33 -239.34) scale(1.4497)"/><path transform="matrix(.85118 -.0543 .0733 1.185 158.106 61.676)" d="M78.109 111c0 21.254-45.309 38.484-101.2 38.484-55.891 0-101.2-17.23-101.2-38.484s45.309-38.484 101.2-38.484c55.891 0 101.2 17.23 101.2 38.484z" fill="url(#g)" filter="url(#n)"/><path d="M446.82 277.22c7.574 3.832 15.919 23.062-2.297 36.33s-48.625 14.664-63.671 11.718c-8.33-1.63 5.044-22.659 23.261-35.927 18.216-13.268 32.902-17.082 42.707-12.121z" fill="url(#a)" transform="translate(-438.33 -239.34) scale(1.4497)"/><path transform="matrix(.59767 0 0 .76838 161.425 106.5)" d="M78.109 111c0 21.254-45.309 38.484-101.2 38.484-55.891 0-101.2-17.23-101.2-38.484s45.309-38.484 101.2-38.484c55.891 0 101.2 17.23 101.2 38.484z" fill="#fff" fill-opacity=".636" filter="url(#m)"/><path d="M206.457 188.261c0 16.788-26.34 30.397-58.832 30.397-32.492 0-58.832-13.609-58.832-30.397 0-16.788 26.34-30.397 58.832-30.397 32.492 0 58.832 13.61 58.832 30.397z" fill="#ccc"/><path d="M404.2 273.99c-22.413 0-40.594 9.388-40.594 20.969 0 1.547.353 3.048.969 4.5 3.99-9.415 20.206-16.469 39.625-16.469s35.635 7.054 39.625 16.469c.615-1.452.937-2.953.937-4.5 0-11.58-18.15-20.969-40.562-20.969z" fill="url(#f)" transform="translate(-438.33 -239.34) scale(1.4497)"/><path d="M432.59 286.78l-55.594 1.969-1.688 20.938c7.359 3.852 17.572 6.25 28.875 6.25 12.508 0 23.681-2.934 31.125-7.531l-2.718-21.625z" fill="url(#e)" transform="translate(-438.33 -239.34) scale(1.4497)"/><path d="M189.508 181.03c0 11.881-18.384 21.512-41.061 21.512-22.678 0-41.061-9.631-41.061-21.512 0-11.88 18.383-21.512 41.06-21.512 22.678 0 41.062 9.631 41.062 21.512z" fill="#f2f2f2"/><path d="M404.76 282.14c-13.005 0-23.955 4.586-27.281 10.844 3.341 6.245 14.293 10.812 27.281 10.812s23.94-4.567 27.281-10.812c-3.326-6.258-14.277-10.844-27.281-10.844z" fill="url(#d)" transform="translate(-438.33 -239.34) scale(1.4497)"/><path d="M148.436 159.501c-22.678 0-41.044 9.639-41.044 21.52 0 .238.03.489.045.725.745-11.539 18.796-20.795 41-20.795s40.3 9.256 41.043 20.795c.015-.236.046-.487.046-.725 0-11.881-18.413-21.52-41.09-21.52z" fill="#fff"/><path d="M137.766 183.624h16.531l2.893-8.95h-15.705z" fill="#4d4d4d"/><path d="M72.312 61.72s-1.457 3.687-1.662 5.638c-.224 2.125.506 6.397.506 6.397s.511.104.542.109v.036c.2.018.48.053.687.072 2.746.449 28.214 4.644 41.35 8.856-.147-.04-.286-.07-.434-.109a61.98 61.98 0 013.253 1.085c.281.108.572.218.831.325.179.07.373.147.542.217.22.097.451.193.65.29 1.452.698 2.337 1.391 2.495 2.023 7.954 31.87 22.576 92.356 23.711 97.049l.506.036 1.301.036 1.627.072 2.891.109 2.964.108.434.036 1.374-4.229.072-.216c-3.866-15.985-16.902-70.15-24.362-100.014a2.325 2.325 0 00-.109-.325l-.036-.072c-.307-.604-1-1.23-1.988-1.844-9.468-7.528-57.145-15.687-57.145-15.687z"/><path d="M352.24 207.67s-1.006 2.544-1.147 3.89c-.154 1.466.35 4.413.35 4.413s33.56 5.412 34.431 8.9c5.487 21.985 15.573 63.708 16.356 66.945l6.707.274.947-2.917c-1.018-4.148-11.38-46.28-17.129-69.288-1.38-5.524-40.515-12.217-40.515-12.217z" fill="url(#c)" transform="translate(-438.33 -239.34) scale(1.4497)"/><path d="M72.283 63.56c-.411 1.167-.837 2.533-1.012 3.723 7.743 1.077 56.594 8.053 57.76 12.723 7.787 31.202 23.192 96.227 25.047 104.061l.434.036 1.446-4.446c-3.866-15.984-16.902-70.15-24.363-100.013a2.325 2.325 0 00-.108-.325l-.036-.073c-3.036-5.966-42.359-12.659-59.17-15.687zm-.976 6.76a64.18 64.18 0 00.398 3.578c15.43 1.396 51.196 5.042 52.194 9.036 7.496 30.035 21.568 89.281 24.326 100.916l2.891.109c-3.644-15.055-17.044-71.079-24.614-101.386-1.396-5.586-36.392-9.561-55.193-12.253zm42.001 12.397c4.74 1.446 7.998 2.893 8.313 4.157 7.935 31.79 22.474 91.898 23.675 96.867l1.302.036c-4.531-18.765-16.266-67.75-23.385-96.254-.44-1.762-4.326-3.352-9.904-4.807z" fill="#ff2a2a"/></svg>