<svg viewBox="0 0 100 100" xmlns="http://www.w3.org/2000/svg"><path d="M50 5C25.187 5 5 25.187 5 50s20.187 45 45 45c24.814 0 45-20.188 45-45C95 25.187 74.814 5 50 5zm0 84.204c-21.617 0-39.204-17.587-39.204-39.204S28.382 10.796 50 10.796c21.619 0 39.205 17.587 39.205 39.204S71.618 89.204 50 89.204z"/><path d="M50 10.796c-21.618 0-39.204 17.587-39.204 39.204S28.383 89.204 50 89.204c21.618 0 39.205-17.587 39.205-39.204S71.619 10.796 50 10.796zm13.063 13.913c4.121 0 7.463 5.19 7.463 11.592s-3.342 11.592-7.463 11.592-7.461-5.19-7.461-11.592 3.339-11.592 7.461-11.592zm-26.066 0c4.121 0 7.462 5.19 7.462 11.592s-3.341 11.592-7.462 11.592-7.462-5.19-7.462-11.592 3.341-11.592 7.462-11.592zm35.868 39.016C68.12 71.456 59.42 76.259 50.161 76.259c-9.502 0-18.314-4.993-22.999-13.03a2.897 2.897 0 011.044-3.963 2.895 2.895 0 013.963 1.043c3.651 6.265 10.545 10.153 17.992 10.153 7.259 0 14.065-3.744 17.764-9.771a2.898 2.898 0 014.94 3.034z" fill="#FFF200"/><ellipse cx="36.997" cy="36.301" rx="7.462" ry="11.592"/><ellipse cx="63.063" cy="36.301" rx="7.463" ry="11.592"/><path d="M71.91 59.738a2.898 2.898 0 00-3.985.953c-3.698 6.025-10.505 9.771-17.764 9.771-7.447 0-14.341-3.89-17.992-10.153a2.895 2.895 0 00-3.963-1.043 2.897 2.897 0 00-1.044 3.963c4.685 8.037 13.497 13.03 22.999 13.03 9.259 0 17.959-4.803 22.704-12.534a2.9 2.9 0 00-.955-3.987z"/></svg>