<svg width="30" height="30" fill="none" xmlns="http://www.w3.org/2000/svg"><path fill-rule="evenodd" clip-rule="evenodd" d="M21.2 1.499H8.8a7.27 7.27 0 00-5.16 2.156A7.391 7.391 0 001.5 8.86v12.278c0 1.952.77 3.825 2.139 5.205A7.27 7.27 0 008.8 28.499h12.4a7.27 7.27 0 005.162-2.156 7.391 7.391 0 002.139-5.205V8.86c0-1.953-.77-3.825-2.139-5.205A7.27 7.27 0 0021.2 1.499" fill="#F00A10"/><path d="M17.903 15l4.353-4.39c.456-.46.684-.968.684-1.525-.027-.502-.256-.969-.684-1.4a2.208 2.208 0 00-1.368-.67c-.54-.041-1.05.182-1.534.67L15 12.072l-4.354-4.389c-.442-.446-.94-.668-1.493-.668a2.171 2.171 0 00-1.41.668c-.345.349-.545.802-.6 1.359-.056.585.145 1.108.6 1.568L12.099 15l-4.353 4.389c-.387.39-.601.899-.643 1.526.042.543.256 1.01.643 1.4.359.362.815.585 1.368.669.539.042 1.05-.181 1.534-.669L15 17.925l4.354 4.39c.456.46.96.662 1.513.606.567-.042 1.03-.244 1.39-.606.33-.335.531-.787.6-1.359.083-.557-.117-1.08-.6-1.567l-4.354-4.39z" fill="#CB1E0E"/><path d="M17.677 15l4.014-4.047c.42-.424.631-.893.631-1.407-.025-.462-.236-.893-.63-1.291a2.036 2.036 0 00-1.262-.617c-.497-.038-.969.167-1.415.617l-4.013 4.047-4.014-4.047c-.408-.411-.867-.617-1.376-.617-.497.039-.93.244-1.3.617-.319.321-.504.739-.555 1.253-.05.54.134 1.02.555 1.445L12.326 15l-4.014 4.046c-.357.36-.555.829-.593 1.407.038.501.236.932.593 1.291.331.334.752.54 1.261.617.497.038.969-.167 1.415-.617l4.014-4.046 4.013 4.046c.42.424.886.61 1.396.56.522-.04.949-.226 1.28-.56.306-.308.49-.726.555-1.252.076-.514-.109-.996-.555-1.446L17.677 15" fill="#fff"/><path fill-rule="evenodd" clip-rule="evenodd" d="M21.366 2.654H8.633c-3.37 0-6.084 2.736-6.084 6.134v12.424c.109 2.652.529.976 1.327-1.962.929-3.414 3.952-6.398 7.634-8.634 2.81-1.707 5.956-2.797 11.682-2.9 3.247-.06 2.96-4.216-1.826-5.062z" fill="url(#paint0_linear)"/><defs><linearGradient id="paint0_linear" x1="8.215" y1="-2.828" x2="14.598" y2="15.627" gradientUnits="userSpaceOnUse"><stop stop-color="#fff"/><stop offset="1" stop-color="#fff" stop-opacity="0"/></linearGradient></defs></svg>