<svg width="20" height="20" fill="none" xmlns="http://www.w3.org/2000/svg"><path d="M14.563 1.81l.286.023.286.024.255.023.222.024.19.023.192.024.159.023.159.024.159.047.127.023.095.024.127.023.096.047.063.024.096.047.063.023.064.047.095.024.127.07.191.094.191.07.16.024.158.024.19-.047.16-.047.127-.094.064-.118.063-.117v-.118l-.032-.14-.095-.095-.095-.094-.16-.07-.095-.047-.127-.047-.127-.07-.064-.048-.095-.023-.096-.047-.095-.047-.095-.024-.096-.047-.127-.047-.095-.023-.127-.047-.128-.024-.127-.047-.127-.023-.159-.024-.159-.023-.19-.047-.16-.024-.222-.023-.191-.024h-.254L15.167.87l-.254-.024h-.446l-.159.047-.127.07-.127.095-.063.117-.032.118v.14l.063.118.096.094.127.094.159.047.159.024zM5.692.752h-.255l-.254.024-.223.023-.222.024-.223.023h-.19L4.133.87l-.16.047-.158.023-.16.024-.126.023-.16.047-.127.024-.127.047-.095.023-.127.047-.096.047-.095.024-.095.047-.096.047-.063.047-.096.047-.127.047-.095.047-.128.047-.127.07-.127.094-.095.094-.032.141v.118l.063.117.096.118.127.094.127.047.19.047.16-.024.19-.023.16-.07.19-.095.16-.07.063-.024.064-.047.095-.023.064-.047.095-.024.095-.023.096-.047.127-.024.127-.023.127-.047.16-.024.158-.023.191-.024.223-.023.222-.024.255-.023.254-.024.286-.023.19-.024.128-.047.127-.094.096-.094.063-.117.032-.141-.064-.118-.063-.117L6.169.87 6.04.799 5.883.752h-.191zm10.46 2.608l-.159.071-.127.07-.127.071-.127.047-.127.024-.128.047-.095.023-.127.024h-.127l-.16.023h-.921l-.223-.023h-.572l-.128-.024h-2.289l-.19.024h-.668l-.223.023H7.822l-.191-.023h-.382l-.159-.024H6.9l-.16-.023h-.158l-.16-.024-.158-.023h-.16l-.158-.024-.16-.023H5.66l-.16-.024-.127-.023-.127-.024-.127-.023-.159-.024-.127-.023h-.127l-.127-.024-.096-.023-.127-.024-.095-.023-.128-.024-.095-.023-.095-.024-.096-.023-.095-.024-.096-.023-.095-.024-.095-.023-.064-.024-.19-.023h-.16l-.19.023-.128.07-.127.095-.063.117-.064.118.032.14.032.118.095.118.127.07.16.07.063.024.095.024.095.023.096.024.095.023.096.024.095.023.095.024.128.023.095.024.127.023.096.024.127.023.127.024.095.023.128.024.159.023h.127l.127.024.127.023.127.024h.16l.158.023.127.024.16.023h.158l.16.024.158.023h.16l.158.024h.191l.159.023h.159l.19.024h.541l.191.023h1.208l.191-.023h.668l.223-.024h.794l.191-.023h.859l.159.023h.922l.127.024h.604l.159.023h.636l.127-.023h.16l.126-.024h.127l.16-.023.127-.024.127-.047.127-.023.127-.047.16-.024.126-.07.128-.047.159-.07.159-.071.159-.094.127-.094.095-.094.032-.118v-.117l-.032-.141-.064-.118-.127-.094-.159-.07-.159-.024h-.159l-.159.024-.159.047zm.192 1.599l-.096.023-.095.024-.064.023-.095.024-.095.023-.064.024-.095.023-.064.024-.095.023h-.064l-.095.024h-.064l-.095.023-.064.024h-.095l-.096.023h-.095l-.127.024h-.096l-.127.023h-.223l-.127.024h-.318l-.127.023h-.731l-.223.024H8.967l-.19-.024h-.541l-.16-.023h-.35l-.158-.024h-.19l-.16-.023H7.06l-.16-.024h-.159l-.159-.023-.19-.024h-.16l-.159-.023-.127-.024h-.159l-.159-.023-.127-.024h-.159L5.215 5.1l-.159-.024-.127-.023-.16-.024-.126-.023-.128-.024-.127-.023-.127-.024-.127-.023-.127-.024-.127-.023-.128-.024-.095-.023-.127-.024-.096-.047-.127-.023-.095-.024-.191-.023h-.159l-.159.023-.159.07-.095.095-.096.117-.031.141v.118l.031.117.096.118.127.07.159.07.095.024.127.047.128.024.095.023.127.024.127.023.128.024.095.023.127.024.127.047.16.023.127.024.127.023.127.024h.127l.159.023.127.024.16.023.158.024.127.023.16.024h.158l.16.023.127.024h.158l.16.023.158.024h.16l.158.023H6.9l.16.024h.158l.16.023h.19l.159.024h.35l.159.023h.54l.19.024h3.721l.223-.024h.89l.16-.023h.285l.16-.024h.222l.127-.023h.127l.127-.024h.096l.095-.023h.095l.096-.024.127-.023h.064l.095-.024.095-.023.096-.024h.095l.096-.023.063-.024.096-.023.095-.024.095-.023.096-.024.095-.047.096-.023.127-.024.127-.07.127-.07.096-.118.063-.118v-.117l-.032-.141-.095-.118-.127-.094-.128-.047-.158-.047h-.191l-.16.024zm1.812 12.714l-.064.047-.031.047-.064.07-.064.024-.063.047-.064.047-.063.047-.064.047-.063.024-.096.047-.095.023-.096.047-.095.024-.096.023-.095.047-.127.024-.095.047-.128.023-.127.024-.127.023-.127.024-.127.047-.128.023-.127.024-.127.023-.159.024-.159.023-.127.024h-.159l-.159.023-.159.024-.159.023-.159.024h-.159l-.159.023-.159.024h-.19l-.16.023h-.19l-.16.024-.19.023h-.191l-.19.024h-.16l-.19.023h-.191l-.191.024H11.7l-.19.023h-.191l-.19.024h-.383l-.19.023h-.604l-.16.024h-.89l-.19-.024h-.318l-.191-.023h-.16l-.19-.024-.159-.023h-.19l-.16-.024-.159-.023-.159-.024-.159-.023-.19-.024-.16-.023-.158-.024-.16-.023-.158-.024-.16-.023-.158-.024-.16-.023-.158-.024-.127-.047-.16-.023-.127-.024-.159-.047-.159-.023-.127-.024-.159-.047-.127-.023-.127-.047-.127-.024-.16-.047-.126-.023-.128-.024-.127-.047-.127-.023-.095-.024-.128-.047-.127-.023-.127-.047-.095-.024-.096-.023-.127-.047-.095-.024-.127-.023-.096-.024-.095-.047-.096-.023-.095-.024-.19-.07-.223-.047-.191-.07-.16-.024h-.158l-.16.047-.158.07-.127.094-.096.118-.031.117v.141l.063.094.096.118.127.094.159.07.159.047.19.047.223.07.095.024.096.024.095.023.096.047.095.024.095.023.128.024.095.047.127.023.127.024.096.047.127.023.095.047.127.024.128.024.159.047.127.023.127.047.127.023.127.047.128.024.159.023.127.047.159.024.127.024.159.046.159.024.127.023.159.047.159.024.159.023.159.024.159.024.159.047.159.023.159.023.159.024.159.023.19.024.16.023.159.024h.159l.19.023.16.024.19.024h.159l.19.023h.16l.19.024h.35l.191.023h.89l.191-.023h.445l.223-.024h.445l.223-.023h.19l.223-.024h.19l.223-.023h.191l.223-.024h.159l.222-.024h.191l.19-.023h.192l.159-.024.19-.023h.16l.19-.024.16-.023h.158l.19-.023.16-.024.159-.023.159-.024h.159l.127-.023.159-.024.159-.024.159-.023.127-.024.127-.023.127-.024.16-.023.127-.023.127-.047.127-.024.127-.023.096-.024.127-.024.127-.047.095-.023.128-.024.095-.046.095-.024.096-.047.095-.047.095-.024.096-.047.095-.047.096-.023.095-.047.064-.047.063-.047.096-.024.063-.047.064-.047.063-.07.064-.047.064-.047.063-.047.064-.047.063-.07.032-.048.064-.047.063-.117.032-.141-.032-.118-.063-.117-.096-.118-.159-.07-.159-.047-.19-.024-.16.024-.158.047-.128.07-.095.094zM1.113 6.933V16.5l.064.117.127.094.127.094.159.047h.35l.159-.047.127-.094.127-.094.064-.117V6.791l-.064-.117-.127-.094-.127-.094-.16-.047-.158-.024-.191.024-.159.047-.127.094-.127.094-.064.117v.141zm2.989.047v10.036l.063.117.128.094.127.094.159.047h.35l.158-.047.128-.094.095-.094.064-.117.031-.118V6.98l-.031-.14-.064-.118-.095-.094-.128-.07-.159-.048-.19-.023-.16.023-.158.047-.127.07-.128.095-.063.117v.141z" fill="#F00A10"/><path d="M7.25 7.591v10.036l.095.117.096.094.127.094.159.047h.35l.158-.047.128-.094.127-.094.063-.117.032-.118V7.591l-.032-.117-.063-.118-.127-.117-.128-.07-.159-.048-.19-.023-.16.023-.158.047-.127.07-.096.118-.095.118v.117zm3.402.024v10.012l.032.117.064.118.095.117.159.07.127.048.19.023.192-.023.159-.047.127-.07.095-.118.064-.118.032-.117V7.615l-.032-.118-.064-.117-.095-.118-.127-.07-.16-.047-.19-.024-.191.024-.127.047-.16.07-.095.118-.063.117-.032.118zm3.625-.141v9.424l.032.141.063.117.096.095.127.094.159.047h.35l.159-.047.127-.094.127-.095.064-.117.031-.141V7.474l-.031-.141-.064-.118-.127-.094-.128-.07-.158-.047-.16-.024-.19.024-.16.047-.126.07-.096.094-.063.118-.032.14zm3.306-.353V16.5l.032.14.064.118.095.094.127.07.16.047.19.024.19-.024.16-.046.127-.071.095-.094.064-.117.032-.142V7.121l-.032-.117-.064-.118-.095-.117-.127-.07-.16-.048-.19-.023-.19.023-.16.047-.127.07-.095.118-.064.118-.032.117zm-4.101-4.959l-.032-.117v-.118l-.032-.117-.032-.118-.031-.117-.064-.118-.064-.117-.095-.094-.064-.118-.095-.094-.095-.117-.128-.094-.095-.094-.127-.071-.127-.07-.127-.071-.128-.07-.127-.071-.127-.047-.159-.07-.127-.047-.16-.024-.158-.047-.16-.023-.126-.047-.191-.024-.16-.023h-.158L10.333 0h-.317l-.159.024h-.159l-.127.023-.16.024-.126.023-.16.024-.127.047-.158.023-.128.047-.127.024-.127.047-.095.07-.128.047-.127.047-.127.07-.095.071-.096.07-.095.071-.096.07-.095.071-.064.07-.095.095-.063.07-.064.094-.064.094-.063.07-.064.095-.032.094-.031.094-.032.094-.032.094v.211l-.032.094.032.141.064.118.095.094.127.07.19.047.16.024.19-.024.128-.047.159-.07.095-.094.064-.118.032-.14.031-.165.032-.141.096-.141.063-.118.127-.094.096-.07.095-.094.127-.07.16-.048.158-.07.127-.047.16-.047.158-.024.191-.023.16-.024h.349l.19.024.16.023.159.024.19.047.128.047.159.07.127.047.127.07.127.095.096.07.095.094.095.118.064.14.063.142.032.164v.141l.096.118.095.094.127.07.16.047.158.024.191-.024.159-.047.127-.07.127-.094.064-.118.032-.14zM1.304 5.617l.031-2.515v-.14l-.063-.118-.127-.094-.096-.07-.159-.071H.51l-.16.047-.126.07-.096.118-.063.117-.032.118L0 5.593v.141l.064.118.127.094.127.07.159.07h.35l.159-.046.127-.094.095-.094.064-.094.032-.141zM20 5.805V3.431l-.032-.14-.063-.118-.096-.094-.127-.07-.159-.048-.19-.023-.16.023-.159.047-.159.07-.095.095-.064.117-.031.141v2.374l.031.141.064.117.095.095.16.07.158.047.16.024.19-.024.159-.047.127-.07.096-.095.063-.117.032-.141z" fill="#F00A10"/></svg>