<svg viewBox="0 0 204.04 141.41" xmlns="http://www.w3.org/2000/svg"><defs><filter id="a"><feGaussianBlur stdDeviation="4.328"/></filter></defs><g fill="none" stroke="#000" stroke-width="6.8"><path d="M16.84 94.579c63.337-11.324 101.35-9.38 125.16 0-4.087 14.004-19.27 24.528-33.234 36.77 27.399-13.103 55.193-25.078 84.146-36.062-8.336-34.826-36.765-54.136-60.811-78.489 3.52 8.19 8.649 17.164 12.088 25.321 1.725 4.09 2.49 7.798 1.347 10.742-41.719-13.894-83.439-13.43-125.16-2.828L16.841 94.58z" filter="url(#a)"/><path d="M15.412 83.864c63.337-11.324 101.35-9.38 125.16 0-4.087 14.004-19.27 24.528-33.234 36.77 27.399-13.103 55.193-25.078 84.146-36.062-8.336-34.826-36.765-54.136-60.811-78.489 3.52 8.19 8.649 17.164 12.088 25.321 1.725 4.09 2.49 7.798 1.347 10.742-41.719-13.894-83.439-13.43-125.16-2.828l-3.535 44.548z"/></g></svg>